%TF.GenerationSoftware,KiCad,Pcbnew,9.0.0-rc2-32673a0ead~182~ubuntu24.04.1*%
%TF.CreationDate,2025-01-29T18:27:37-05:00*%
%TF.ProjectId,cmod_s7,636d6f64-5f73-4372-9e6b-696361645f70,rev?*%
%TF.SameCoordinates,Original*%
%TF.FileFunction,Legend,Top*%
%TF.FilePolarity,Positive*%
%FSLAX46Y46*%
G04 Gerber Fmt 4.6, Leading zero omitted, Abs format (unit mm)*
G04 Created by KiCad (PCBNEW 9.0.0-rc2-32673a0ead~182~ubuntu24.04.1) date 2025-01-29 18:27:37*
%MOMM*%
%LPD*%
G01*
G04 APERTURE LIST*
G04 Aperture macros list*
%AMRoundRect*
0 Rectangle with rounded corners*
0 $1 Rounding radius*
0 $2 $3 $4 $5 $6 $7 $8 $9 X,Y pos of 4 corners*
0 Add a 4 corners polygon primitive as box body*
4,1,4,$2,$3,$4,$5,$6,$7,$8,$9,$2,$3,0*
0 Add four circle primitives for the rounded corners*
1,1,$1+$1,$2,$3*
1,1,$1+$1,$4,$5*
1,1,$1+$1,$6,$7*
1,1,$1+$1,$8,$9*
0 Add four rect primitives between the rounded corners*
20,1,$1+$1,$2,$3,$4,$5,0*
20,1,$1+$1,$4,$5,$6,$7,0*
20,1,$1+$1,$6,$7,$8,$9,0*
20,1,$1+$1,$8,$9,$2,$3,0*%
G04 Aperture macros list end*
%ADD10C,0.100000*%
%ADD11C,0.300000*%
%ADD12C,0.150000*%
%ADD13C,0.254000*%
%ADD14C,0.200000*%
%ADD15C,0.120000*%
%ADD16C,0.127000*%
%ADD17C,1.594000*%
%ADD18RoundRect,0.102000X0.695000X0.695000X-0.695000X0.695000X-0.695000X-0.695000X0.695000X-0.695000X0*%
%ADD19RoundRect,0.250000X-0.350000X-0.450000X0.350000X-0.450000X0.350000X0.450000X-0.350000X0.450000X0*%
%ADD20RoundRect,0.250000X0.350000X0.450000X-0.350000X0.450000X-0.350000X-0.450000X0.350000X-0.450000X0*%
%ADD21RoundRect,0.102000X0.762000X0.762000X-0.762000X0.762000X-0.762000X-0.762000X0.762000X-0.762000X0*%
%ADD22C,1.728000*%
%ADD23RoundRect,0.250000X0.337500X0.475000X-0.337500X0.475000X-0.337500X-0.475000X0.337500X-0.475000X0*%
%ADD24RoundRect,0.102000X-0.875000X-0.475000X0.875000X-0.475000X0.875000X0.475000X-0.875000X0.475000X0*%
%ADD25RoundRect,0.102000X-0.875000X-1.625000X0.875000X-1.625000X0.875000X1.625000X-0.875000X1.625000X0*%
%ADD26RoundRect,0.102000X0.600000X0.600000X-0.600000X0.600000X-0.600000X-0.600000X0.600000X-0.600000X0*%
%ADD27C,2.286000*%
%ADD28C,6.000000*%
%ADD29C,1.168400*%
G04 APERTURE END LIST*
D10*
X131836074Y-57943180D02*
X131764646Y-57990800D01*
X131764646Y-57990800D02*
X131550360Y-58038419D01*
X131550360Y-58038419D02*
X131407503Y-58038419D01*
X131407503Y-58038419D02*
X131193217Y-57990800D01*
X131193217Y-57990800D02*
X131050360Y-57895561D01*
X131050360Y-57895561D02*
X130978931Y-57800323D01*
X130978931Y-57800323D02*
X130907503Y-57609847D01*
X130907503Y-57609847D02*
X130907503Y-57466990D01*
X130907503Y-57466990D02*
X130978931Y-57276514D01*
X130978931Y-57276514D02*
X131050360Y-57181276D01*
X131050360Y-57181276D02*
X131193217Y-57086038D01*
X131193217Y-57086038D02*
X131407503Y-57038419D01*
X131407503Y-57038419D02*
X131550360Y-57038419D01*
X131550360Y-57038419D02*
X131764646Y-57086038D01*
X131764646Y-57086038D02*
X131836074Y-57133657D01*
X132478931Y-58038419D02*
X132478931Y-57038419D01*
X132478931Y-57038419D02*
X132978931Y-57752704D01*
X132978931Y-57752704D02*
X133478931Y-57038419D01*
X133478931Y-57038419D02*
X133478931Y-58038419D01*
X134407503Y-58038419D02*
X134264646Y-57990800D01*
X134264646Y-57990800D02*
X134193217Y-57943180D01*
X134193217Y-57943180D02*
X134121789Y-57847942D01*
X134121789Y-57847942D02*
X134121789Y-57562228D01*
X134121789Y-57562228D02*
X134193217Y-57466990D01*
X134193217Y-57466990D02*
X134264646Y-57419371D01*
X134264646Y-57419371D02*
X134407503Y-57371752D01*
X134407503Y-57371752D02*
X134621789Y-57371752D01*
X134621789Y-57371752D02*
X134764646Y-57419371D01*
X134764646Y-57419371D02*
X134836075Y-57466990D01*
X134836075Y-57466990D02*
X134907503Y-57562228D01*
X134907503Y-57562228D02*
X134907503Y-57847942D01*
X134907503Y-57847942D02*
X134836075Y-57943180D01*
X134836075Y-57943180D02*
X134764646Y-57990800D01*
X134764646Y-57990800D02*
X134621789Y-58038419D01*
X134621789Y-58038419D02*
X134407503Y-58038419D01*
X136193218Y-58038419D02*
X136193218Y-57038419D01*
X136193218Y-57990800D02*
X136050360Y-58038419D01*
X136050360Y-58038419D02*
X135764646Y-58038419D01*
X135764646Y-58038419D02*
X135621789Y-57990800D01*
X135621789Y-57990800D02*
X135550360Y-57943180D01*
X135550360Y-57943180D02*
X135478932Y-57847942D01*
X135478932Y-57847942D02*
X135478932Y-57562228D01*
X135478932Y-57562228D02*
X135550360Y-57466990D01*
X135550360Y-57466990D02*
X135621789Y-57419371D01*
X135621789Y-57419371D02*
X135764646Y-57371752D01*
X135764646Y-57371752D02*
X136050360Y-57371752D01*
X136050360Y-57371752D02*
X136193218Y-57419371D01*
X138907503Y-57943180D02*
X138836075Y-57990800D01*
X138836075Y-57990800D02*
X138621789Y-58038419D01*
X138621789Y-58038419D02*
X138478932Y-58038419D01*
X138478932Y-58038419D02*
X138264646Y-57990800D01*
X138264646Y-57990800D02*
X138121789Y-57895561D01*
X138121789Y-57895561D02*
X138050360Y-57800323D01*
X138050360Y-57800323D02*
X137978932Y-57609847D01*
X137978932Y-57609847D02*
X137978932Y-57466990D01*
X137978932Y-57466990D02*
X138050360Y-57276514D01*
X138050360Y-57276514D02*
X138121789Y-57181276D01*
X138121789Y-57181276D02*
X138264646Y-57086038D01*
X138264646Y-57086038D02*
X138478932Y-57038419D01*
X138478932Y-57038419D02*
X138621789Y-57038419D01*
X138621789Y-57038419D02*
X138836075Y-57086038D01*
X138836075Y-57086038D02*
X138907503Y-57133657D01*
X140193218Y-58038419D02*
X140193218Y-57514609D01*
X140193218Y-57514609D02*
X140121789Y-57419371D01*
X140121789Y-57419371D02*
X139978932Y-57371752D01*
X139978932Y-57371752D02*
X139693218Y-57371752D01*
X139693218Y-57371752D02*
X139550360Y-57419371D01*
X140193218Y-57990800D02*
X140050360Y-58038419D01*
X140050360Y-58038419D02*
X139693218Y-58038419D01*
X139693218Y-58038419D02*
X139550360Y-57990800D01*
X139550360Y-57990800D02*
X139478932Y-57895561D01*
X139478932Y-57895561D02*
X139478932Y-57800323D01*
X139478932Y-57800323D02*
X139550360Y-57705085D01*
X139550360Y-57705085D02*
X139693218Y-57657466D01*
X139693218Y-57657466D02*
X140050360Y-57657466D01*
X140050360Y-57657466D02*
X140193218Y-57609847D01*
X140907503Y-58038419D02*
X140907503Y-57371752D01*
X140907503Y-57562228D02*
X140978932Y-57466990D01*
X140978932Y-57466990D02*
X141050361Y-57419371D01*
X141050361Y-57419371D02*
X141193218Y-57371752D01*
X141193218Y-57371752D02*
X141336075Y-57371752D01*
X141836074Y-58038419D02*
X141836074Y-57371752D01*
X141836074Y-57562228D02*
X141907503Y-57466990D01*
X141907503Y-57466990D02*
X141978932Y-57419371D01*
X141978932Y-57419371D02*
X142121789Y-57371752D01*
X142121789Y-57371752D02*
X142264646Y-57371752D01*
X142764645Y-58038419D02*
X142764645Y-57371752D01*
X142764645Y-57038419D02*
X142693217Y-57086038D01*
X142693217Y-57086038D02*
X142764645Y-57133657D01*
X142764645Y-57133657D02*
X142836074Y-57086038D01*
X142836074Y-57086038D02*
X142764645Y-57038419D01*
X142764645Y-57038419D02*
X142764645Y-57133657D01*
X144050360Y-57990800D02*
X143907503Y-58038419D01*
X143907503Y-58038419D02*
X143621789Y-58038419D01*
X143621789Y-58038419D02*
X143478931Y-57990800D01*
X143478931Y-57990800D02*
X143407503Y-57895561D01*
X143407503Y-57895561D02*
X143407503Y-57514609D01*
X143407503Y-57514609D02*
X143478931Y-57419371D01*
X143478931Y-57419371D02*
X143621789Y-57371752D01*
X143621789Y-57371752D02*
X143907503Y-57371752D01*
X143907503Y-57371752D02*
X144050360Y-57419371D01*
X144050360Y-57419371D02*
X144121789Y-57514609D01*
X144121789Y-57514609D02*
X144121789Y-57609847D01*
X144121789Y-57609847D02*
X143407503Y-57705085D01*
X144764645Y-58038419D02*
X144764645Y-57371752D01*
X144764645Y-57562228D02*
X144836074Y-57466990D01*
X144836074Y-57466990D02*
X144907503Y-57419371D01*
X144907503Y-57419371D02*
X145050360Y-57371752D01*
X145050360Y-57371752D02*
X145193217Y-57371752D01*
X147693216Y-57943180D02*
X147621788Y-57990800D01*
X147621788Y-57990800D02*
X147407502Y-58038419D01*
X147407502Y-58038419D02*
X147264645Y-58038419D01*
X147264645Y-58038419D02*
X147050359Y-57990800D01*
X147050359Y-57990800D02*
X146907502Y-57895561D01*
X146907502Y-57895561D02*
X146836073Y-57800323D01*
X146836073Y-57800323D02*
X146764645Y-57609847D01*
X146764645Y-57609847D02*
X146764645Y-57466990D01*
X146764645Y-57466990D02*
X146836073Y-57276514D01*
X146836073Y-57276514D02*
X146907502Y-57181276D01*
X146907502Y-57181276D02*
X147050359Y-57086038D01*
X147050359Y-57086038D02*
X147264645Y-57038419D01*
X147264645Y-57038419D02*
X147407502Y-57038419D01*
X147407502Y-57038419D02*
X147621788Y-57086038D01*
X147621788Y-57086038D02*
X147693216Y-57133657D01*
X148336073Y-58038419D02*
X148336073Y-57038419D01*
X148336073Y-57038419D02*
X148836073Y-57752704D01*
X148836073Y-57752704D02*
X149336073Y-57038419D01*
X149336073Y-57038419D02*
X149336073Y-58038419D01*
X150907502Y-57943180D02*
X150836074Y-57990800D01*
X150836074Y-57990800D02*
X150621788Y-58038419D01*
X150621788Y-58038419D02*
X150478931Y-58038419D01*
X150478931Y-58038419D02*
X150264645Y-57990800D01*
X150264645Y-57990800D02*
X150121788Y-57895561D01*
X150121788Y-57895561D02*
X150050359Y-57800323D01*
X150050359Y-57800323D02*
X149978931Y-57609847D01*
X149978931Y-57609847D02*
X149978931Y-57466990D01*
X149978931Y-57466990D02*
X150050359Y-57276514D01*
X150050359Y-57276514D02*
X150121788Y-57181276D01*
X150121788Y-57181276D02*
X150264645Y-57086038D01*
X150264645Y-57086038D02*
X150478931Y-57038419D01*
X150478931Y-57038419D02*
X150621788Y-57038419D01*
X150621788Y-57038419D02*
X150836074Y-57086038D01*
X150836074Y-57086038D02*
X150907502Y-57133657D01*
X151550359Y-57657466D02*
X152693217Y-57657466D01*
X153907502Y-57514609D02*
X153407502Y-57514609D01*
X153407502Y-58038419D02*
X153407502Y-57038419D01*
X153407502Y-57038419D02*
X154121788Y-57038419D01*
X154550359Y-57038419D02*
X155478931Y-57038419D01*
X155478931Y-57038419D02*
X154978931Y-57419371D01*
X154978931Y-57419371D02*
X155193216Y-57419371D01*
X155193216Y-57419371D02*
X155336074Y-57466990D01*
X155336074Y-57466990D02*
X155407502Y-57514609D01*
X155407502Y-57514609D02*
X155478931Y-57609847D01*
X155478931Y-57609847D02*
X155478931Y-57847942D01*
X155478931Y-57847942D02*
X155407502Y-57943180D01*
X155407502Y-57943180D02*
X155336074Y-57990800D01*
X155336074Y-57990800D02*
X155193216Y-58038419D01*
X155193216Y-58038419D02*
X154764645Y-58038419D01*
X154764645Y-58038419D02*
X154621788Y-57990800D01*
X154621788Y-57990800D02*
X154550359Y-57943180D01*
D11*
X87448635Y-76478917D02*
X87448635Y-75764632D01*
X87920350Y-76621774D02*
X86269350Y-76121774D01*
X86269350Y-76121774D02*
X87920350Y-75621774D01*
X87055540Y-75121775D02*
X87055540Y-74621775D01*
X87920350Y-74407489D02*
X87920350Y-75121775D01*
X87920350Y-75121775D02*
X86269350Y-75121775D01*
X86269350Y-75121775D02*
X86269350Y-74407489D01*
X87920350Y-73764632D02*
X86269350Y-73764632D01*
X87055540Y-73764632D02*
X87055540Y-72907489D01*
X87920350Y-72907489D02*
X86269350Y-72907489D01*
X86269350Y-72336060D02*
X87920350Y-71978917D01*
X87920350Y-71978917D02*
X86741064Y-71693203D01*
X86741064Y-71693203D02*
X87920350Y-71407488D01*
X87920350Y-71407488D02*
X86269350Y-71050346D01*
X86269350Y-69764631D02*
X86269350Y-70478917D01*
X86269350Y-70478917D02*
X87055540Y-70550345D01*
X87055540Y-70550345D02*
X86976921Y-70478917D01*
X86976921Y-70478917D02*
X86898302Y-70336060D01*
X86898302Y-70336060D02*
X86898302Y-69978917D01*
X86898302Y-69978917D02*
X86976921Y-69836060D01*
X86976921Y-69836060D02*
X87055540Y-69764631D01*
X87055540Y-69764631D02*
X87212778Y-69693202D01*
X87212778Y-69693202D02*
X87605873Y-69693202D01*
X87605873Y-69693202D02*
X87763111Y-69764631D01*
X87763111Y-69764631D02*
X87841731Y-69836060D01*
X87841731Y-69836060D02*
X87920350Y-69978917D01*
X87920350Y-69978917D02*
X87920350Y-70336060D01*
X87920350Y-70336060D02*
X87841731Y-70478917D01*
X87841731Y-70478917D02*
X87763111Y-70550345D01*
X86269350Y-68336060D02*
X86269350Y-69050346D01*
X86269350Y-69050346D02*
X87055540Y-69121774D01*
X87055540Y-69121774D02*
X86976921Y-69050346D01*
X86976921Y-69050346D02*
X86898302Y-68907489D01*
X86898302Y-68907489D02*
X86898302Y-68550346D01*
X86898302Y-68550346D02*
X86976921Y-68407489D01*
X86976921Y-68407489D02*
X87055540Y-68336060D01*
X87055540Y-68336060D02*
X87212778Y-68264631D01*
X87212778Y-68264631D02*
X87605873Y-68264631D01*
X87605873Y-68264631D02*
X87763111Y-68336060D01*
X87763111Y-68336060D02*
X87841731Y-68407489D01*
X87841731Y-68407489D02*
X87920350Y-68550346D01*
X87920350Y-68550346D02*
X87920350Y-68907489D01*
X87920350Y-68907489D02*
X87841731Y-69050346D01*
X87841731Y-69050346D02*
X87763111Y-69121774D01*
X86269350Y-67336060D02*
X86269350Y-67193203D01*
X86269350Y-67193203D02*
X86347969Y-67050346D01*
X86347969Y-67050346D02*
X86426588Y-66978918D01*
X86426588Y-66978918D02*
X86583826Y-66907489D01*
X86583826Y-66907489D02*
X86898302Y-66836060D01*
X86898302Y-66836060D02*
X87291397Y-66836060D01*
X87291397Y-66836060D02*
X87605873Y-66907489D01*
X87605873Y-66907489D02*
X87763111Y-66978918D01*
X87763111Y-66978918D02*
X87841731Y-67050346D01*
X87841731Y-67050346D02*
X87920350Y-67193203D01*
X87920350Y-67193203D02*
X87920350Y-67336060D01*
X87920350Y-67336060D02*
X87841731Y-67478918D01*
X87841731Y-67478918D02*
X87763111Y-67550346D01*
X87763111Y-67550346D02*
X87605873Y-67621775D01*
X87605873Y-67621775D02*
X87291397Y-67693203D01*
X87291397Y-67693203D02*
X86898302Y-67693203D01*
X86898302Y-67693203D02*
X86583826Y-67621775D01*
X86583826Y-67621775D02*
X86426588Y-67550346D01*
X86426588Y-67550346D02*
X86347969Y-67478918D01*
X86347969Y-67478918D02*
X86269350Y-67336060D01*
X86269350Y-65907489D02*
X86269350Y-65764632D01*
X86269350Y-65764632D02*
X86347969Y-65621775D01*
X86347969Y-65621775D02*
X86426588Y-65550347D01*
X86426588Y-65550347D02*
X86583826Y-65478918D01*
X86583826Y-65478918D02*
X86898302Y-65407489D01*
X86898302Y-65407489D02*
X87291397Y-65407489D01*
X87291397Y-65407489D02*
X87605873Y-65478918D01*
X87605873Y-65478918D02*
X87763111Y-65550347D01*
X87763111Y-65550347D02*
X87841731Y-65621775D01*
X87841731Y-65621775D02*
X87920350Y-65764632D01*
X87920350Y-65764632D02*
X87920350Y-65907489D01*
X87920350Y-65907489D02*
X87841731Y-66050347D01*
X87841731Y-66050347D02*
X87763111Y-66121775D01*
X87763111Y-66121775D02*
X87605873Y-66193204D01*
X87605873Y-66193204D02*
X87291397Y-66264632D01*
X87291397Y-66264632D02*
X86898302Y-66264632D01*
X86898302Y-66264632D02*
X86583826Y-66193204D01*
X86583826Y-66193204D02*
X86426588Y-66121775D01*
X86426588Y-66121775D02*
X86347969Y-66050347D01*
X86347969Y-66050347D02*
X86269350Y-65907489D01*
X88077588Y-65121776D02*
X88077588Y-63978918D01*
X87920350Y-62764633D02*
X87134159Y-63264633D01*
X87920350Y-63621776D02*
X86269350Y-63621776D01*
X86269350Y-63621776D02*
X86269350Y-63050347D01*
X86269350Y-63050347D02*
X86347969Y-62907490D01*
X86347969Y-62907490D02*
X86426588Y-62836061D01*
X86426588Y-62836061D02*
X86583826Y-62764633D01*
X86583826Y-62764633D02*
X86819683Y-62764633D01*
X86819683Y-62764633D02*
X86976921Y-62836061D01*
X86976921Y-62836061D02*
X87055540Y-62907490D01*
X87055540Y-62907490D02*
X87134159Y-63050347D01*
X87134159Y-63050347D02*
X87134159Y-63621776D01*
X86269350Y-62264633D02*
X86269350Y-61336061D01*
X86269350Y-61336061D02*
X86898302Y-61836061D01*
X86898302Y-61836061D02*
X86898302Y-61621776D01*
X86898302Y-61621776D02*
X86976921Y-61478919D01*
X86976921Y-61478919D02*
X87055540Y-61407490D01*
X87055540Y-61407490D02*
X87212778Y-61336061D01*
X87212778Y-61336061D02*
X87605873Y-61336061D01*
X87605873Y-61336061D02*
X87763111Y-61407490D01*
X87763111Y-61407490D02*
X87841731Y-61478919D01*
X87841731Y-61478919D02*
X87920350Y-61621776D01*
X87920350Y-61621776D02*
X87920350Y-62050347D01*
X87920350Y-62050347D02*
X87841731Y-62193204D01*
X87841731Y-62193204D02*
X87763111Y-62264633D01*
D12*
X116760666Y-82004819D02*
X116760666Y-82719104D01*
X116760666Y-82719104D02*
X116713047Y-82861961D01*
X116713047Y-82861961D02*
X116617809Y-82957200D01*
X116617809Y-82957200D02*
X116474952Y-83004819D01*
X116474952Y-83004819D02*
X116379714Y-83004819D01*
X117141619Y-82004819D02*
X117808285Y-82004819D01*
X117808285Y-82004819D02*
X117379714Y-83004819D01*
X155662333Y-82369819D02*
X155329000Y-81893628D01*
X155090905Y-82369819D02*
X155090905Y-81369819D01*
X155090905Y-81369819D02*
X155471857Y-81369819D01*
X155471857Y-81369819D02*
X155567095Y-81417438D01*
X155567095Y-81417438D02*
X155614714Y-81465057D01*
X155614714Y-81465057D02*
X155662333Y-81560295D01*
X155662333Y-81560295D02*
X155662333Y-81703152D01*
X155662333Y-81703152D02*
X155614714Y-81798390D01*
X155614714Y-81798390D02*
X155567095Y-81846009D01*
X155567095Y-81846009D02*
X155471857Y-81893628D01*
X155471857Y-81893628D02*
X155090905Y-81893628D01*
X156614714Y-82369819D02*
X156043286Y-82369819D01*
X156329000Y-82369819D02*
X156329000Y-81369819D01*
X156329000Y-81369819D02*
X156233762Y-81512676D01*
X156233762Y-81512676D02*
X156138524Y-81607914D01*
X156138524Y-81607914D02*
X156043286Y-81655533D01*
X105751333Y-47190819D02*
X105418000Y-46714628D01*
X105179905Y-47190819D02*
X105179905Y-46190819D01*
X105179905Y-46190819D02*
X105560857Y-46190819D01*
X105560857Y-46190819D02*
X105656095Y-46238438D01*
X105656095Y-46238438D02*
X105703714Y-46286057D01*
X105703714Y-46286057D02*
X105751333Y-46381295D01*
X105751333Y-46381295D02*
X105751333Y-46524152D01*
X105751333Y-46524152D02*
X105703714Y-46619390D01*
X105703714Y-46619390D02*
X105656095Y-46667009D01*
X105656095Y-46667009D02*
X105560857Y-46714628D01*
X105560857Y-46714628D02*
X105179905Y-46714628D01*
X106608476Y-46524152D02*
X106608476Y-47190819D01*
X106370381Y-46143200D02*
X106132286Y-46857485D01*
X106132286Y-46857485D02*
X106751333Y-46857485D01*
X123618666Y-44539819D02*
X123618666Y-45254104D01*
X123618666Y-45254104D02*
X123571047Y-45396961D01*
X123571047Y-45396961D02*
X123475809Y-45492200D01*
X123475809Y-45492200D02*
X123332952Y-45539819D01*
X123332952Y-45539819D02*
X123237714Y-45539819D01*
X124618666Y-45539819D02*
X124047238Y-45539819D01*
X124332952Y-45539819D02*
X124332952Y-44539819D01*
X124332952Y-44539819D02*
X124237714Y-44682676D01*
X124237714Y-44682676D02*
X124142476Y-44777914D01*
X124142476Y-44777914D02*
X124047238Y-44825533D01*
X152741333Y-76305580D02*
X152693714Y-76353200D01*
X152693714Y-76353200D02*
X152550857Y-76400819D01*
X152550857Y-76400819D02*
X152455619Y-76400819D01*
X152455619Y-76400819D02*
X152312762Y-76353200D01*
X152312762Y-76353200D02*
X152217524Y-76257961D01*
X152217524Y-76257961D02*
X152169905Y-76162723D01*
X152169905Y-76162723D02*
X152122286Y-75972247D01*
X152122286Y-75972247D02*
X152122286Y-75829390D01*
X152122286Y-75829390D02*
X152169905Y-75638914D01*
X152169905Y-75638914D02*
X152217524Y-75543676D01*
X152217524Y-75543676D02*
X152312762Y-75448438D01*
X152312762Y-75448438D02*
X152455619Y-75400819D01*
X152455619Y-75400819D02*
X152550857Y-75400819D01*
X152550857Y-75400819D02*
X152693714Y-75448438D01*
X152693714Y-75448438D02*
X152741333Y-75496057D01*
X153074667Y-75400819D02*
X153741333Y-75400819D01*
X153741333Y-75400819D02*
X153312762Y-76400819D01*
X165824819Y-70611904D02*
X166634342Y-70611904D01*
X166634342Y-70611904D02*
X166729580Y-70564285D01*
X166729580Y-70564285D02*
X166777200Y-70516666D01*
X166777200Y-70516666D02*
X166824819Y-70421428D01*
X166824819Y-70421428D02*
X166824819Y-70230952D01*
X166824819Y-70230952D02*
X166777200Y-70135714D01*
X166777200Y-70135714D02*
X166729580Y-70088095D01*
X166729580Y-70088095D02*
X166634342Y-70040476D01*
X166634342Y-70040476D02*
X165824819Y-70040476D01*
X166824819Y-69040476D02*
X166824819Y-69611904D01*
X166824819Y-69326190D02*
X165824819Y-69326190D01*
X165824819Y-69326190D02*
X165967676Y-69421428D01*
X165967676Y-69421428D02*
X166062914Y-69516666D01*
X166062914Y-69516666D02*
X166110533Y-69611904D01*
X101638266Y-44539819D02*
X101638266Y-45254104D01*
X101638266Y-45254104D02*
X101590647Y-45396961D01*
X101590647Y-45396961D02*
X101495409Y-45492200D01*
X101495409Y-45492200D02*
X101352552Y-45539819D01*
X101352552Y-45539819D02*
X101257314Y-45539819D01*
X102590647Y-44539819D02*
X102114457Y-44539819D01*
X102114457Y-44539819D02*
X102066838Y-45016009D01*
X102066838Y-45016009D02*
X102114457Y-44968390D01*
X102114457Y-44968390D02*
X102209695Y-44920771D01*
X102209695Y-44920771D02*
X102447790Y-44920771D01*
X102447790Y-44920771D02*
X102543028Y-44968390D01*
X102543028Y-44968390D02*
X102590647Y-45016009D01*
X102590647Y-45016009D02*
X102638266Y-45111247D01*
X102638266Y-45111247D02*
X102638266Y-45349342D01*
X102638266Y-45349342D02*
X102590647Y-45444580D01*
X102590647Y-45444580D02*
X102543028Y-45492200D01*
X102543028Y-45492200D02*
X102447790Y-45539819D01*
X102447790Y-45539819D02*
X102209695Y-45539819D01*
X102209695Y-45539819D02*
X102114457Y-45492200D01*
X102114457Y-45492200D02*
X102066838Y-45444580D01*
X159408905Y-82242819D02*
X159408905Y-81242819D01*
X159408905Y-81242819D02*
X159647000Y-81242819D01*
X159647000Y-81242819D02*
X159789857Y-81290438D01*
X159789857Y-81290438D02*
X159885095Y-81385676D01*
X159885095Y-81385676D02*
X159932714Y-81480914D01*
X159932714Y-81480914D02*
X159980333Y-81671390D01*
X159980333Y-81671390D02*
X159980333Y-81814247D01*
X159980333Y-81814247D02*
X159932714Y-82004723D01*
X159932714Y-82004723D02*
X159885095Y-82099961D01*
X159885095Y-82099961D02*
X159789857Y-82195200D01*
X159789857Y-82195200D02*
X159647000Y-82242819D01*
X159647000Y-82242819D02*
X159408905Y-82242819D01*
X160932714Y-82242819D02*
X160361286Y-82242819D01*
X160647000Y-82242819D02*
X160647000Y-81242819D01*
X160647000Y-81242819D02*
X160551762Y-81385676D01*
X160551762Y-81385676D02*
X160456524Y-81480914D01*
X160456524Y-81480914D02*
X160361286Y-81528533D01*
X153590666Y-44539819D02*
X153590666Y-45254104D01*
X153590666Y-45254104D02*
X153543047Y-45396961D01*
X153543047Y-45396961D02*
X153447809Y-45492200D01*
X153447809Y-45492200D02*
X153304952Y-45539819D01*
X153304952Y-45539819D02*
X153209714Y-45539819D01*
X154495428Y-44873152D02*
X154495428Y-45539819D01*
X154257333Y-44492200D02*
X154019238Y-45206485D01*
X154019238Y-45206485D02*
X154638285Y-45206485D01*
X125817333Y-47063819D02*
X125484000Y-46587628D01*
X125245905Y-47063819D02*
X125245905Y-46063819D01*
X125245905Y-46063819D02*
X125626857Y-46063819D01*
X125626857Y-46063819D02*
X125722095Y-46111438D01*
X125722095Y-46111438D02*
X125769714Y-46159057D01*
X125769714Y-46159057D02*
X125817333Y-46254295D01*
X125817333Y-46254295D02*
X125817333Y-46397152D01*
X125817333Y-46397152D02*
X125769714Y-46492390D01*
X125769714Y-46492390D02*
X125722095Y-46540009D01*
X125722095Y-46540009D02*
X125626857Y-46587628D01*
X125626857Y-46587628D02*
X125245905Y-46587628D01*
X126198286Y-46159057D02*
X126245905Y-46111438D01*
X126245905Y-46111438D02*
X126341143Y-46063819D01*
X126341143Y-46063819D02*
X126579238Y-46063819D01*
X126579238Y-46063819D02*
X126674476Y-46111438D01*
X126674476Y-46111438D02*
X126722095Y-46159057D01*
X126722095Y-46159057D02*
X126769714Y-46254295D01*
X126769714Y-46254295D02*
X126769714Y-46349533D01*
X126769714Y-46349533D02*
X126722095Y-46492390D01*
X126722095Y-46492390D02*
X126150667Y-47063819D01*
X126150667Y-47063819D02*
X126769714Y-47063819D01*
X142033666Y-82864319D02*
X142033666Y-83578604D01*
X142033666Y-83578604D02*
X141986047Y-83721461D01*
X141986047Y-83721461D02*
X141890809Y-83816700D01*
X141890809Y-83816700D02*
X141747952Y-83864319D01*
X141747952Y-83864319D02*
X141652714Y-83864319D01*
X142652714Y-83292890D02*
X142557476Y-83245271D01*
X142557476Y-83245271D02*
X142509857Y-83197652D01*
X142509857Y-83197652D02*
X142462238Y-83102414D01*
X142462238Y-83102414D02*
X142462238Y-83054795D01*
X142462238Y-83054795D02*
X142509857Y-82959557D01*
X142509857Y-82959557D02*
X142557476Y-82911938D01*
X142557476Y-82911938D02*
X142652714Y-82864319D01*
X142652714Y-82864319D02*
X142843190Y-82864319D01*
X142843190Y-82864319D02*
X142938428Y-82911938D01*
X142938428Y-82911938D02*
X142986047Y-82959557D01*
X142986047Y-82959557D02*
X143033666Y-83054795D01*
X143033666Y-83054795D02*
X143033666Y-83102414D01*
X143033666Y-83102414D02*
X142986047Y-83197652D01*
X142986047Y-83197652D02*
X142938428Y-83245271D01*
X142938428Y-83245271D02*
X142843190Y-83292890D01*
X142843190Y-83292890D02*
X142652714Y-83292890D01*
X142652714Y-83292890D02*
X142557476Y-83340509D01*
X142557476Y-83340509D02*
X142509857Y-83388128D01*
X142509857Y-83388128D02*
X142462238Y-83483366D01*
X142462238Y-83483366D02*
X142462238Y-83673842D01*
X142462238Y-83673842D02*
X142509857Y-83769080D01*
X142509857Y-83769080D02*
X142557476Y-83816700D01*
X142557476Y-83816700D02*
X142652714Y-83864319D01*
X142652714Y-83864319D02*
X142843190Y-83864319D01*
X142843190Y-83864319D02*
X142938428Y-83816700D01*
X142938428Y-83816700D02*
X142986047Y-83769080D01*
X142986047Y-83769080D02*
X143033666Y-83673842D01*
X143033666Y-83673842D02*
X143033666Y-83483366D01*
X143033666Y-83483366D02*
X142986047Y-83388128D01*
X142986047Y-83388128D02*
X142938428Y-83340509D01*
X142938428Y-83340509D02*
X142843190Y-83292890D01*
D13*
X160328283Y-58779037D02*
X161561997Y-58779037D01*
X161561997Y-58779037D02*
X161707140Y-58706466D01*
X161707140Y-58706466D02*
X161779712Y-58633895D01*
X161779712Y-58633895D02*
X161852283Y-58488752D01*
X161852283Y-58488752D02*
X161852283Y-58198466D01*
X161852283Y-58198466D02*
X161779712Y-58053323D01*
X161779712Y-58053323D02*
X161707140Y-57980752D01*
X161707140Y-57980752D02*
X161561997Y-57908180D01*
X161561997Y-57908180D02*
X160328283Y-57908180D01*
X160473426Y-57255038D02*
X160400854Y-57182466D01*
X160400854Y-57182466D02*
X160328283Y-57037324D01*
X160328283Y-57037324D02*
X160328283Y-56674466D01*
X160328283Y-56674466D02*
X160400854Y-56529324D01*
X160400854Y-56529324D02*
X160473426Y-56456752D01*
X160473426Y-56456752D02*
X160618569Y-56384181D01*
X160618569Y-56384181D02*
X160763712Y-56384181D01*
X160763712Y-56384181D02*
X160981426Y-56456752D01*
X160981426Y-56456752D02*
X161852283Y-57327609D01*
X161852283Y-57327609D02*
X161852283Y-56384181D01*
D12*
X133270666Y-44539819D02*
X133270666Y-45254104D01*
X133270666Y-45254104D02*
X133223047Y-45396961D01*
X133223047Y-45396961D02*
X133127809Y-45492200D01*
X133127809Y-45492200D02*
X132984952Y-45539819D01*
X132984952Y-45539819D02*
X132889714Y-45539819D01*
X133699238Y-44635057D02*
X133746857Y-44587438D01*
X133746857Y-44587438D02*
X133842095Y-44539819D01*
X133842095Y-44539819D02*
X134080190Y-44539819D01*
X134080190Y-44539819D02*
X134175428Y-44587438D01*
X134175428Y-44587438D02*
X134223047Y-44635057D01*
X134223047Y-44635057D02*
X134270666Y-44730295D01*
X134270666Y-44730295D02*
X134270666Y-44825533D01*
X134270666Y-44825533D02*
X134223047Y-44968390D01*
X134223047Y-44968390D02*
X133651619Y-45539819D01*
X133651619Y-45539819D02*
X134270666Y-45539819D01*
X113839666Y-44539819D02*
X113839666Y-45254104D01*
X113839666Y-45254104D02*
X113792047Y-45396961D01*
X113792047Y-45396961D02*
X113696809Y-45492200D01*
X113696809Y-45492200D02*
X113553952Y-45539819D01*
X113553952Y-45539819D02*
X113458714Y-45539819D01*
X114744428Y-44539819D02*
X114553952Y-44539819D01*
X114553952Y-44539819D02*
X114458714Y-44587438D01*
X114458714Y-44587438D02*
X114411095Y-44635057D01*
X114411095Y-44635057D02*
X114315857Y-44777914D01*
X114315857Y-44777914D02*
X114268238Y-44968390D01*
X114268238Y-44968390D02*
X114268238Y-45349342D01*
X114268238Y-45349342D02*
X114315857Y-45444580D01*
X114315857Y-45444580D02*
X114363476Y-45492200D01*
X114363476Y-45492200D02*
X114458714Y-45539819D01*
X114458714Y-45539819D02*
X114649190Y-45539819D01*
X114649190Y-45539819D02*
X114744428Y-45492200D01*
X114744428Y-45492200D02*
X114792047Y-45444580D01*
X114792047Y-45444580D02*
X114839666Y-45349342D01*
X114839666Y-45349342D02*
X114839666Y-45111247D01*
X114839666Y-45111247D02*
X114792047Y-45016009D01*
X114792047Y-45016009D02*
X114744428Y-44968390D01*
X114744428Y-44968390D02*
X114649190Y-44920771D01*
X114649190Y-44920771D02*
X114458714Y-44920771D01*
X114458714Y-44920771D02*
X114363476Y-44968390D01*
X114363476Y-44968390D02*
X114315857Y-45016009D01*
X114315857Y-45016009D02*
X114268238Y-45111247D01*
X143430666Y-44539819D02*
X143430666Y-45254104D01*
X143430666Y-45254104D02*
X143383047Y-45396961D01*
X143383047Y-45396961D02*
X143287809Y-45492200D01*
X143287809Y-45492200D02*
X143144952Y-45539819D01*
X143144952Y-45539819D02*
X143049714Y-45539819D01*
X143811619Y-44539819D02*
X144430666Y-44539819D01*
X144430666Y-44539819D02*
X144097333Y-44920771D01*
X144097333Y-44920771D02*
X144240190Y-44920771D01*
X144240190Y-44920771D02*
X144335428Y-44968390D01*
X144335428Y-44968390D02*
X144383047Y-45016009D01*
X144383047Y-45016009D02*
X144430666Y-45111247D01*
X144430666Y-45111247D02*
X144430666Y-45349342D01*
X144430666Y-45349342D02*
X144383047Y-45444580D01*
X144383047Y-45444580D02*
X144335428Y-45492200D01*
X144335428Y-45492200D02*
X144240190Y-45539819D01*
X144240190Y-45539819D02*
X143954476Y-45539819D01*
X143954476Y-45539819D02*
X143859238Y-45492200D01*
X143859238Y-45492200D02*
X143811619Y-45444580D01*
X158710333Y-61954580D02*
X158662714Y-62002200D01*
X158662714Y-62002200D02*
X158519857Y-62049819D01*
X158519857Y-62049819D02*
X158424619Y-62049819D01*
X158424619Y-62049819D02*
X158281762Y-62002200D01*
X158281762Y-62002200D02*
X158186524Y-61906961D01*
X158186524Y-61906961D02*
X158138905Y-61811723D01*
X158138905Y-61811723D02*
X158091286Y-61621247D01*
X158091286Y-61621247D02*
X158091286Y-61478390D01*
X158091286Y-61478390D02*
X158138905Y-61287914D01*
X158138905Y-61287914D02*
X158186524Y-61192676D01*
X158186524Y-61192676D02*
X158281762Y-61097438D01*
X158281762Y-61097438D02*
X158424619Y-61049819D01*
X158424619Y-61049819D02*
X158519857Y-61049819D01*
X158519857Y-61049819D02*
X158662714Y-61097438D01*
X158662714Y-61097438D02*
X158710333Y-61145057D01*
X159281762Y-61478390D02*
X159186524Y-61430771D01*
X159186524Y-61430771D02*
X159138905Y-61383152D01*
X159138905Y-61383152D02*
X159091286Y-61287914D01*
X159091286Y-61287914D02*
X159091286Y-61240295D01*
X159091286Y-61240295D02*
X159138905Y-61145057D01*
X159138905Y-61145057D02*
X159186524Y-61097438D01*
X159186524Y-61097438D02*
X159281762Y-61049819D01*
X159281762Y-61049819D02*
X159472238Y-61049819D01*
X159472238Y-61049819D02*
X159567476Y-61097438D01*
X159567476Y-61097438D02*
X159615095Y-61145057D01*
X159615095Y-61145057D02*
X159662714Y-61240295D01*
X159662714Y-61240295D02*
X159662714Y-61287914D01*
X159662714Y-61287914D02*
X159615095Y-61383152D01*
X159615095Y-61383152D02*
X159567476Y-61430771D01*
X159567476Y-61430771D02*
X159472238Y-61478390D01*
X159472238Y-61478390D02*
X159281762Y-61478390D01*
X159281762Y-61478390D02*
X159186524Y-61526009D01*
X159186524Y-61526009D02*
X159138905Y-61573628D01*
X159138905Y-61573628D02*
X159091286Y-61668866D01*
X159091286Y-61668866D02*
X159091286Y-61859342D01*
X159091286Y-61859342D02*
X159138905Y-61954580D01*
X159138905Y-61954580D02*
X159186524Y-62002200D01*
X159186524Y-62002200D02*
X159281762Y-62049819D01*
X159281762Y-62049819D02*
X159472238Y-62049819D01*
X159472238Y-62049819D02*
X159567476Y-62002200D01*
X159567476Y-62002200D02*
X159615095Y-61954580D01*
X159615095Y-61954580D02*
X159662714Y-61859342D01*
X159662714Y-61859342D02*
X159662714Y-61668866D01*
X159662714Y-61668866D02*
X159615095Y-61573628D01*
X159615095Y-61573628D02*
X159567476Y-61526009D01*
X159567476Y-61526009D02*
X159472238Y-61478390D01*
X145502333Y-47825819D02*
X145169000Y-47349628D01*
X144930905Y-47825819D02*
X144930905Y-46825819D01*
X144930905Y-46825819D02*
X145311857Y-46825819D01*
X145311857Y-46825819D02*
X145407095Y-46873438D01*
X145407095Y-46873438D02*
X145454714Y-46921057D01*
X145454714Y-46921057D02*
X145502333Y-47016295D01*
X145502333Y-47016295D02*
X145502333Y-47159152D01*
X145502333Y-47159152D02*
X145454714Y-47254390D01*
X145454714Y-47254390D02*
X145407095Y-47302009D01*
X145407095Y-47302009D02*
X145311857Y-47349628D01*
X145311857Y-47349628D02*
X144930905Y-47349628D01*
X145835667Y-46825819D02*
X146454714Y-46825819D01*
X146454714Y-46825819D02*
X146121381Y-47206771D01*
X146121381Y-47206771D02*
X146264238Y-47206771D01*
X146264238Y-47206771D02*
X146359476Y-47254390D01*
X146359476Y-47254390D02*
X146407095Y-47302009D01*
X146407095Y-47302009D02*
X146454714Y-47397247D01*
X146454714Y-47397247D02*
X146454714Y-47635342D01*
X146454714Y-47635342D02*
X146407095Y-47730580D01*
X146407095Y-47730580D02*
X146359476Y-47778200D01*
X146359476Y-47778200D02*
X146264238Y-47825819D01*
X146264238Y-47825819D02*
X145978524Y-47825819D01*
X145978524Y-47825819D02*
X145883286Y-47778200D01*
X145883286Y-47778200D02*
X145835667Y-47730580D01*
D14*
%TO.C,J7*%
X116178000Y-74168000D02*
G75*
G02*
X115978000Y-74168000I-100000J0D01*
G01*
X115978000Y-74168000D02*
G75*
G02*
X116178000Y-74168000I100000J0D01*
G01*
X99567000Y-78232000D02*
X115317000Y-78232000D01*
X99567000Y-86742000D02*
X99567000Y-78232000D01*
X99567000Y-86742000D02*
X115317000Y-86742000D01*
X115317000Y-78232000D02*
X115317000Y-86742000D01*
D15*
%TO.C,R1*%
X154855936Y-83212000D02*
X155310064Y-83212000D01*
X154855936Y-84682000D02*
X155310064Y-84682000D01*
%TO.C,R4*%
X109447064Y-47471000D02*
X108992936Y-47471000D01*
X109447064Y-46001000D02*
X108992936Y-46001000D01*
D16*
%TO.C,J1*%
X131445000Y-42957500D02*
X119253000Y-42957500D01*
X131445000Y-30765500D02*
X131445000Y-42957500D01*
X119253000Y-42957500D02*
X119253000Y-30765500D01*
X119253000Y-30765500D02*
X131445000Y-30765500D01*
D14*
X122655000Y-43663500D02*
G75*
G02*
X122455000Y-43663500I-100000J0D01*
G01*
X122455000Y-43663500D02*
G75*
G02*
X122655000Y-43663500I100000J0D01*
G01*
D15*
%TO.C,C7*%
X156471252Y-76554000D02*
X155948748Y-76554000D01*
X156471252Y-75084000D02*
X155948748Y-75084000D01*
D14*
%TO.C,U1*%
X159170000Y-70281000D02*
X160920000Y-70281000D01*
X161445000Y-70156000D02*
X164945000Y-70156000D01*
X161445000Y-76656000D02*
X161445000Y-70156000D01*
X164945000Y-70156000D02*
X164945000Y-76656000D01*
X164945000Y-76656000D02*
X161445000Y-76656000D01*
D16*
%TO.C,J5*%
X111099600Y-42991500D02*
X98907600Y-42991500D01*
X111099600Y-30799500D02*
X111099600Y-42991500D01*
X98907600Y-42991500D02*
X98907600Y-30799500D01*
X98907600Y-30799500D02*
X111099600Y-30799500D01*
D14*
X102309600Y-43697500D02*
G75*
G02*
X102109600Y-43697500I-100000J0D01*
G01*
X102109600Y-43697500D02*
G75*
G02*
X102309600Y-43697500I100000J0D01*
G01*
%TO.C,D1*%
X162151000Y-83947000D02*
G75*
G02*
X161951000Y-83947000I-100000J0D01*
G01*
X161951000Y-83947000D02*
G75*
G02*
X162151000Y-83947000I100000J0D01*
G01*
D16*
%TO.C,J4*%
X161401000Y-42957500D02*
X149209000Y-42957500D01*
X161401000Y-30765500D02*
X161401000Y-42957500D01*
X149209000Y-42957500D02*
X149209000Y-30765500D01*
X149209000Y-30765500D02*
X161401000Y-30765500D01*
D14*
X152611000Y-43663500D02*
G75*
G02*
X152411000Y-43663500I-100000J0D01*
G01*
X152411000Y-43663500D02*
G75*
G02*
X152611000Y-43663500I100000J0D01*
G01*
D15*
%TO.C,R2*%
X129402064Y-47344000D02*
X128947936Y-47344000D01*
X129402064Y-45874000D02*
X128947936Y-45874000D01*
D14*
%TO.C,J8*%
X139540500Y-78232000D02*
X139540500Y-86742000D01*
X123790500Y-86742000D02*
X139540500Y-86742000D01*
X123790500Y-86742000D02*
X123790500Y-78232000D01*
X123790500Y-78232000D02*
X139540500Y-78232000D01*
X140401500Y-74168000D02*
G75*
G02*
X140201500Y-74168000I-100000J0D01*
G01*
X140201500Y-74168000D02*
G75*
G02*
X140401500Y-74168000I100000J0D01*
G01*
D13*
%TO.C,U2*%
X92847000Y-68640000D02*
X92847000Y-50740000D01*
X163947000Y-68640000D02*
X92847000Y-68640000D01*
X163947000Y-68640000D02*
X163947000Y-50740000D01*
X163947000Y-50740000D02*
X92847000Y-50740000D01*
D16*
%TO.C,J2*%
X141113000Y-42957500D02*
X128921000Y-42957500D01*
X141113000Y-30765500D02*
X141113000Y-42957500D01*
X128921000Y-42957500D02*
X128921000Y-30765500D01*
X128921000Y-30765500D02*
X141113000Y-30765500D01*
D14*
X132323000Y-43663500D02*
G75*
G02*
X132123000Y-43663500I-100000J0D01*
G01*
X132123000Y-43663500D02*
G75*
G02*
X132323000Y-43663500I100000J0D01*
G01*
D16*
%TO.C,J6*%
X121285000Y-42991500D02*
X109093000Y-42991500D01*
X121285000Y-30799500D02*
X121285000Y-42991500D01*
X109093000Y-42991500D02*
X109093000Y-30799500D01*
X109093000Y-30799500D02*
X121285000Y-30799500D01*
D14*
X112495000Y-43697500D02*
G75*
G02*
X112295000Y-43697500I-100000J0D01*
G01*
X112295000Y-43697500D02*
G75*
G02*
X112495000Y-43697500I100000J0D01*
G01*
D16*
%TO.C,J3*%
X151225000Y-42957500D02*
X139033000Y-42957500D01*
X151225000Y-30765500D02*
X151225000Y-42957500D01*
X139033000Y-42957500D02*
X139033000Y-30765500D01*
X139033000Y-30765500D02*
X151225000Y-30765500D01*
D14*
X142435000Y-43663500D02*
G75*
G02*
X142235000Y-43663500I-100000J0D01*
G01*
X142235000Y-43663500D02*
G75*
G02*
X142435000Y-43663500I100000J0D01*
G01*
D15*
%TO.C,C8*%
X159138252Y-64235000D02*
X158615748Y-64235000D01*
X159138252Y-62765000D02*
X158615748Y-62765000D01*
%TO.C,R3*%
X149071064Y-48233000D02*
X148616936Y-48233000D01*
X149071064Y-46763000D02*
X148616936Y-46763000D01*
%TD*%
%LPC*%
D17*
%TO.C,J7*%
X101092000Y-76708000D03*
X103632000Y-76708000D03*
X106172000Y-76708000D03*
X108712000Y-76708000D03*
X111252000Y-76708000D03*
X113792000Y-76708000D03*
X101092000Y-74168000D03*
X103632000Y-74168000D03*
X106172000Y-74168000D03*
X108712000Y-74168000D03*
X111252000Y-74168000D03*
D18*
X113792000Y-74168000D03*
%TD*%
D19*
%TO.C,R1*%
X154083000Y-83947000D03*
X156083000Y-83947000D03*
%TD*%
D20*
%TO.C,R4*%
X110220000Y-46736000D03*
X108220000Y-46736000D03*
%TD*%
D21*
%TO.C,J1*%
X122555000Y-40163500D03*
D22*
X127635000Y-40163500D03*
X130175000Y-40163500D03*
X130175000Y-32543500D03*
X122555000Y-32543500D03*
%TD*%
D23*
%TO.C,C7*%
X157247500Y-75819000D03*
X155172500Y-75819000D03*
%TD*%
D24*
%TO.C,U1*%
X160045000Y-71106000D03*
X160045000Y-73406000D03*
X160045000Y-75706000D03*
D25*
X166345000Y-73406000D03*
%TD*%
D21*
%TO.C,J5*%
X102209600Y-40197500D03*
D22*
X107289600Y-40197500D03*
X109829600Y-40197500D03*
X109829600Y-32577500D03*
X102209600Y-32577500D03*
%TD*%
D26*
%TO.C,D1*%
X160451000Y-83947000D03*
X158351000Y-83947000D03*
%TD*%
D21*
%TO.C,J4*%
X152511000Y-40163500D03*
D22*
X155051000Y-40163500D03*
X157591000Y-40163500D03*
X160131000Y-40163500D03*
X160131000Y-32543500D03*
X152511000Y-32543500D03*
%TD*%
D20*
%TO.C,R2*%
X130175000Y-46609000D03*
X128175000Y-46609000D03*
%TD*%
D18*
%TO.C,J8*%
X138015500Y-74168000D03*
D17*
X135475500Y-74168000D03*
X132935500Y-74168000D03*
X130395500Y-74168000D03*
X127855500Y-74168000D03*
X125315500Y-74168000D03*
X138015500Y-76708000D03*
X135475500Y-76708000D03*
X132935500Y-76708000D03*
X130395500Y-76708000D03*
X127855500Y-76708000D03*
X125315500Y-76708000D03*
%TD*%
D27*
%TO.C,U2*%
X101600000Y-67340000D03*
X104140000Y-67340000D03*
X106680000Y-67340000D03*
X109220000Y-67340000D03*
X111760000Y-67340000D03*
X114300000Y-67340000D03*
X116840000Y-67340000D03*
X119380000Y-67340000D03*
X121920000Y-67340000D03*
X139700000Y-67340000D03*
X142240000Y-67340000D03*
X144780000Y-67340000D03*
X147320000Y-67340000D03*
X149860000Y-67340000D03*
X152400000Y-67340000D03*
X154940000Y-67340000D03*
X157480000Y-67340000D03*
X160020000Y-67340000D03*
X160020000Y-52100000D03*
X157480000Y-52100000D03*
X154940000Y-52100000D03*
X152400000Y-52100000D03*
X149860000Y-52100000D03*
X147320000Y-52100000D03*
X144780000Y-52100000D03*
X142240000Y-52100000D03*
X139700000Y-52100000D03*
X121920000Y-52100000D03*
X119380000Y-52100000D03*
X116840000Y-52100000D03*
X114300000Y-52100000D03*
X111760000Y-52100000D03*
X109220000Y-52100000D03*
X106680000Y-52100000D03*
X104140000Y-52100000D03*
X101600000Y-52100000D03*
%TD*%
D21*
%TO.C,J2*%
X132223000Y-40163500D03*
D22*
X134763000Y-40163500D03*
X137303000Y-40163500D03*
X139843000Y-40163500D03*
X139843000Y-32543500D03*
X132223000Y-32543500D03*
%TD*%
D21*
%TO.C,J6*%
X112395000Y-40197500D03*
D22*
X114935000Y-40197500D03*
X117475000Y-40197500D03*
X120015000Y-40197500D03*
X120015000Y-32577500D03*
X112395000Y-32577500D03*
%TD*%
D21*
%TO.C,J3*%
X142335000Y-40163500D03*
D22*
X147415000Y-40163500D03*
X149955000Y-40163500D03*
X149955000Y-32543500D03*
X142335000Y-32543500D03*
%TD*%
D23*
%TO.C,C8*%
X159914500Y-63500000D03*
X157839500Y-63500000D03*
%TD*%
D20*
%TO.C,R3*%
X149844000Y-47498000D03*
X147844000Y-47498000D03*
%TD*%
D28*
%TO.C,H2*%
X167640000Y-36927000D03*
%TD*%
%TO.C,H3*%
X89662002Y-36546000D03*
%TD*%
%TO.C,H1*%
X89662002Y-80996000D03*
%TD*%
%TO.C,H4*%
X167640000Y-82042000D03*
%TD*%
D29*
X167894000Y-50546000D03*
X167894000Y-48006000D03*
X167894000Y-45466000D03*
X89712800Y-45669200D03*
X89712800Y-42494200D03*
X89712800Y-48336200D03*
%LPD*%
M02*
