%TF.GenerationSoftware,KiCad,Pcbnew,9.0.0-rc2-32673a0ead~182~ubuntu24.04.1*%
%TF.CreationDate,2025-01-29T18:27:37-05:00*%
%TF.ProjectId,cmod_s7,636d6f64-5f73-4372-9e6b-696361645f70,rev?*%
%TF.SameCoordinates,Original*%
%TF.FileFunction,Legend,Bot*%
%TF.FilePolarity,Positive*%
%FSLAX46Y46*%
G04 Gerber Fmt 4.6, Leading zero omitted, Abs format (unit mm)*
G04 Created by KiCad (PCBNEW 9.0.0-rc2-32673a0ead~182~ubuntu24.04.1) date 2025-01-29 18:27:37*
%MOMM*%
%LPD*%
G01*
G04 APERTURE LIST*
G04 Aperture macros list*
%AMRoundRect*
0 Rectangle with rounded corners*
0 $1 Rounding radius*
0 $2 $3 $4 $5 $6 $7 $8 $9 X,Y pos of 4 corners*
0 Add a 4 corners polygon primitive as box body*
4,1,4,$2,$3,$4,$5,$6,$7,$8,$9,$2,$3,0*
0 Add four circle primitives for the rounded corners*
1,1,$1+$1,$2,$3*
1,1,$1+$1,$4,$5*
1,1,$1+$1,$6,$7*
1,1,$1+$1,$8,$9*
0 Add four rect primitives between the rounded corners*
20,1,$1+$1,$2,$3,$4,$5,0*
20,1,$1+$1,$4,$5,$6,$7,0*
20,1,$1+$1,$6,$7,$8,$9,0*
20,1,$1+$1,$8,$9,$2,$3,0*%
G04 Aperture macros list end*
%ADD10C,0.150000*%
%ADD11C,0.152400*%
%ADD12C,0.177800*%
%ADD13C,0.120000*%
%ADD14C,1.390000*%
%ADD15R,1.390000X1.390000*%
%ADD16R,1.524000X1.524000*%
%ADD17C,1.524000*%
%ADD18C,2.286000*%
%ADD19RoundRect,0.250000X0.475000X-0.337500X0.475000X0.337500X-0.475000X0.337500X-0.475000X-0.337500X0*%
%ADD20R,1.470000X1.200000*%
%ADD21RoundRect,0.250000X-0.475000X0.337500X-0.475000X-0.337500X0.475000X-0.337500X0.475000X0.337500X0*%
%ADD22C,6.000000*%
%ADD23C,1.168400*%
G04 APERTURE END LIST*
D10*
X112992580Y-42918142D02*
X113040200Y-42870523D01*
X113040200Y-42870523D02*
X113087819Y-42727666D01*
X113087819Y-42727666D02*
X113087819Y-42632428D01*
X113087819Y-42632428D02*
X113040200Y-42489571D01*
X113040200Y-42489571D02*
X112944961Y-42394333D01*
X112944961Y-42394333D02*
X112849723Y-42346714D01*
X112849723Y-42346714D02*
X112659247Y-42299095D01*
X112659247Y-42299095D02*
X112516390Y-42299095D01*
X112516390Y-42299095D02*
X112325914Y-42346714D01*
X112325914Y-42346714D02*
X112230676Y-42394333D01*
X112230676Y-42394333D02*
X112135438Y-42489571D01*
X112135438Y-42489571D02*
X112087819Y-42632428D01*
X112087819Y-42632428D02*
X112087819Y-42727666D01*
X112087819Y-42727666D02*
X112135438Y-42870523D01*
X112135438Y-42870523D02*
X112183057Y-42918142D01*
X112183057Y-43299095D02*
X112135438Y-43346714D01*
X112135438Y-43346714D02*
X112087819Y-43441952D01*
X112087819Y-43441952D02*
X112087819Y-43680047D01*
X112087819Y-43680047D02*
X112135438Y-43775285D01*
X112135438Y-43775285D02*
X112183057Y-43822904D01*
X112183057Y-43822904D02*
X112278295Y-43870523D01*
X112278295Y-43870523D02*
X112373533Y-43870523D01*
X112373533Y-43870523D02*
X112516390Y-43822904D01*
X112516390Y-43822904D02*
X113087819Y-43251476D01*
X113087819Y-43251476D02*
X113087819Y-43870523D01*
X112087819Y-44489571D02*
X112087819Y-44584809D01*
X112087819Y-44584809D02*
X112135438Y-44680047D01*
X112135438Y-44680047D02*
X112183057Y-44727666D01*
X112183057Y-44727666D02*
X112278295Y-44775285D01*
X112278295Y-44775285D02*
X112468771Y-44822904D01*
X112468771Y-44822904D02*
X112706866Y-44822904D01*
X112706866Y-44822904D02*
X112897342Y-44775285D01*
X112897342Y-44775285D02*
X112992580Y-44727666D01*
X112992580Y-44727666D02*
X113040200Y-44680047D01*
X113040200Y-44680047D02*
X113087819Y-44584809D01*
X113087819Y-44584809D02*
X113087819Y-44489571D01*
X113087819Y-44489571D02*
X113040200Y-44394333D01*
X113040200Y-44394333D02*
X112992580Y-44346714D01*
X112992580Y-44346714D02*
X112897342Y-44299095D01*
X112897342Y-44299095D02*
X112706866Y-44251476D01*
X112706866Y-44251476D02*
X112468771Y-44251476D01*
X112468771Y-44251476D02*
X112278295Y-44299095D01*
X112278295Y-44299095D02*
X112183057Y-44346714D01*
X112183057Y-44346714D02*
X112135438Y-44394333D01*
X112135438Y-44394333D02*
X112087819Y-44489571D01*
D11*
X157930345Y-43971070D02*
X157930345Y-43499356D01*
X157930345Y-43499356D02*
X156939745Y-43499356D01*
X157269945Y-44725813D02*
X157930345Y-44725813D01*
X156892574Y-44489955D02*
X157600145Y-44254098D01*
X157600145Y-44254098D02*
X157600145Y-44867327D01*
D10*
X115532580Y-42918142D02*
X115580200Y-42870523D01*
X115580200Y-42870523D02*
X115627819Y-42727666D01*
X115627819Y-42727666D02*
X115627819Y-42632428D01*
X115627819Y-42632428D02*
X115580200Y-42489571D01*
X115580200Y-42489571D02*
X115484961Y-42394333D01*
X115484961Y-42394333D02*
X115389723Y-42346714D01*
X115389723Y-42346714D02*
X115199247Y-42299095D01*
X115199247Y-42299095D02*
X115056390Y-42299095D01*
X115056390Y-42299095D02*
X114865914Y-42346714D01*
X114865914Y-42346714D02*
X114770676Y-42394333D01*
X114770676Y-42394333D02*
X114675438Y-42489571D01*
X114675438Y-42489571D02*
X114627819Y-42632428D01*
X114627819Y-42632428D02*
X114627819Y-42727666D01*
X114627819Y-42727666D02*
X114675438Y-42870523D01*
X114675438Y-42870523D02*
X114723057Y-42918142D01*
X115627819Y-43870523D02*
X115627819Y-43299095D01*
X115627819Y-43584809D02*
X114627819Y-43584809D01*
X114627819Y-43584809D02*
X114770676Y-43489571D01*
X114770676Y-43489571D02*
X114865914Y-43394333D01*
X114865914Y-43394333D02*
X114913533Y-43299095D01*
X115056390Y-44441952D02*
X115008771Y-44346714D01*
X115008771Y-44346714D02*
X114961152Y-44299095D01*
X114961152Y-44299095D02*
X114865914Y-44251476D01*
X114865914Y-44251476D02*
X114818295Y-44251476D01*
X114818295Y-44251476D02*
X114723057Y-44299095D01*
X114723057Y-44299095D02*
X114675438Y-44346714D01*
X114675438Y-44346714D02*
X114627819Y-44441952D01*
X114627819Y-44441952D02*
X114627819Y-44632428D01*
X114627819Y-44632428D02*
X114675438Y-44727666D01*
X114675438Y-44727666D02*
X114723057Y-44775285D01*
X114723057Y-44775285D02*
X114818295Y-44822904D01*
X114818295Y-44822904D02*
X114865914Y-44822904D01*
X114865914Y-44822904D02*
X114961152Y-44775285D01*
X114961152Y-44775285D02*
X115008771Y-44727666D01*
X115008771Y-44727666D02*
X115056390Y-44632428D01*
X115056390Y-44632428D02*
X115056390Y-44441952D01*
X115056390Y-44441952D02*
X115104009Y-44346714D01*
X115104009Y-44346714D02*
X115151628Y-44299095D01*
X115151628Y-44299095D02*
X115246866Y-44251476D01*
X115246866Y-44251476D02*
X115437342Y-44251476D01*
X115437342Y-44251476D02*
X115532580Y-44299095D01*
X115532580Y-44299095D02*
X115580200Y-44346714D01*
X115580200Y-44346714D02*
X115627819Y-44441952D01*
X115627819Y-44441952D02*
X115627819Y-44632428D01*
X115627819Y-44632428D02*
X115580200Y-44727666D01*
X115580200Y-44727666D02*
X115532580Y-44775285D01*
X115532580Y-44775285D02*
X115437342Y-44822904D01*
X115437342Y-44822904D02*
X115246866Y-44822904D01*
X115246866Y-44822904D02*
X115151628Y-44775285D01*
X115151628Y-44775285D02*
X115104009Y-44727666D01*
X115104009Y-44727666D02*
X115056390Y-44632428D01*
X142726580Y-42918142D02*
X142774200Y-42870523D01*
X142774200Y-42870523D02*
X142821819Y-42727666D01*
X142821819Y-42727666D02*
X142821819Y-42632428D01*
X142821819Y-42632428D02*
X142774200Y-42489571D01*
X142774200Y-42489571D02*
X142678961Y-42394333D01*
X142678961Y-42394333D02*
X142583723Y-42346714D01*
X142583723Y-42346714D02*
X142393247Y-42299095D01*
X142393247Y-42299095D02*
X142250390Y-42299095D01*
X142250390Y-42299095D02*
X142059914Y-42346714D01*
X142059914Y-42346714D02*
X141964676Y-42394333D01*
X141964676Y-42394333D02*
X141869438Y-42489571D01*
X141869438Y-42489571D02*
X141821819Y-42632428D01*
X141821819Y-42632428D02*
X141821819Y-42727666D01*
X141821819Y-42727666D02*
X141869438Y-42870523D01*
X141869438Y-42870523D02*
X141917057Y-42918142D01*
X142821819Y-43870523D02*
X142821819Y-43299095D01*
X142821819Y-43584809D02*
X141821819Y-43584809D01*
X141821819Y-43584809D02*
X141964676Y-43489571D01*
X141964676Y-43489571D02*
X142059914Y-43394333D01*
X142059914Y-43394333D02*
X142107533Y-43299095D01*
X141917057Y-44251476D02*
X141869438Y-44299095D01*
X141869438Y-44299095D02*
X141821819Y-44394333D01*
X141821819Y-44394333D02*
X141821819Y-44632428D01*
X141821819Y-44632428D02*
X141869438Y-44727666D01*
X141869438Y-44727666D02*
X141917057Y-44775285D01*
X141917057Y-44775285D02*
X142012295Y-44822904D01*
X142012295Y-44822904D02*
X142107533Y-44822904D01*
X142107533Y-44822904D02*
X142250390Y-44775285D01*
X142250390Y-44775285D02*
X142821819Y-44203857D01*
X142821819Y-44203857D02*
X142821819Y-44822904D01*
X140313580Y-43870524D02*
X140361200Y-43822905D01*
X140361200Y-43822905D02*
X140408819Y-43680048D01*
X140408819Y-43680048D02*
X140408819Y-43584810D01*
X140408819Y-43584810D02*
X140361200Y-43441953D01*
X140361200Y-43441953D02*
X140265961Y-43346715D01*
X140265961Y-43346715D02*
X140170723Y-43299096D01*
X140170723Y-43299096D02*
X139980247Y-43251477D01*
X139980247Y-43251477D02*
X139837390Y-43251477D01*
X139837390Y-43251477D02*
X139646914Y-43299096D01*
X139646914Y-43299096D02*
X139551676Y-43346715D01*
X139551676Y-43346715D02*
X139456438Y-43441953D01*
X139456438Y-43441953D02*
X139408819Y-43584810D01*
X139408819Y-43584810D02*
X139408819Y-43680048D01*
X139408819Y-43680048D02*
X139456438Y-43822905D01*
X139456438Y-43822905D02*
X139504057Y-43870524D01*
X139504057Y-44251477D02*
X139456438Y-44299096D01*
X139456438Y-44299096D02*
X139408819Y-44394334D01*
X139408819Y-44394334D02*
X139408819Y-44632429D01*
X139408819Y-44632429D02*
X139456438Y-44727667D01*
X139456438Y-44727667D02*
X139504057Y-44775286D01*
X139504057Y-44775286D02*
X139599295Y-44822905D01*
X139599295Y-44822905D02*
X139694533Y-44822905D01*
X139694533Y-44822905D02*
X139837390Y-44775286D01*
X139837390Y-44775286D02*
X140408819Y-44203858D01*
X140408819Y-44203858D02*
X140408819Y-44822905D01*
X125200580Y-43870524D02*
X125248200Y-43822905D01*
X125248200Y-43822905D02*
X125295819Y-43680048D01*
X125295819Y-43680048D02*
X125295819Y-43584810D01*
X125295819Y-43584810D02*
X125248200Y-43441953D01*
X125248200Y-43441953D02*
X125152961Y-43346715D01*
X125152961Y-43346715D02*
X125057723Y-43299096D01*
X125057723Y-43299096D02*
X124867247Y-43251477D01*
X124867247Y-43251477D02*
X124724390Y-43251477D01*
X124724390Y-43251477D02*
X124533914Y-43299096D01*
X124533914Y-43299096D02*
X124438676Y-43346715D01*
X124438676Y-43346715D02*
X124343438Y-43441953D01*
X124343438Y-43441953D02*
X124295819Y-43584810D01*
X124295819Y-43584810D02*
X124295819Y-43680048D01*
X124295819Y-43680048D02*
X124343438Y-43822905D01*
X124343438Y-43822905D02*
X124391057Y-43870524D01*
X124295819Y-44203858D02*
X124295819Y-44822905D01*
X124295819Y-44822905D02*
X124676771Y-44489572D01*
X124676771Y-44489572D02*
X124676771Y-44632429D01*
X124676771Y-44632429D02*
X124724390Y-44727667D01*
X124724390Y-44727667D02*
X124772009Y-44775286D01*
X124772009Y-44775286D02*
X124867247Y-44822905D01*
X124867247Y-44822905D02*
X125105342Y-44822905D01*
X125105342Y-44822905D02*
X125200580Y-44775286D01*
X125200580Y-44775286D02*
X125248200Y-44727667D01*
X125248200Y-44727667D02*
X125295819Y-44632429D01*
X125295819Y-44632429D02*
X125295819Y-44346715D01*
X125295819Y-44346715D02*
X125248200Y-44251477D01*
X125248200Y-44251477D02*
X125200580Y-44203858D01*
X105626580Y-42918142D02*
X105674200Y-42870523D01*
X105674200Y-42870523D02*
X105721819Y-42727666D01*
X105721819Y-42727666D02*
X105721819Y-42632428D01*
X105721819Y-42632428D02*
X105674200Y-42489571D01*
X105674200Y-42489571D02*
X105578961Y-42394333D01*
X105578961Y-42394333D02*
X105483723Y-42346714D01*
X105483723Y-42346714D02*
X105293247Y-42299095D01*
X105293247Y-42299095D02*
X105150390Y-42299095D01*
X105150390Y-42299095D02*
X104959914Y-42346714D01*
X104959914Y-42346714D02*
X104864676Y-42394333D01*
X104864676Y-42394333D02*
X104769438Y-42489571D01*
X104769438Y-42489571D02*
X104721819Y-42632428D01*
X104721819Y-42632428D02*
X104721819Y-42727666D01*
X104721819Y-42727666D02*
X104769438Y-42870523D01*
X104769438Y-42870523D02*
X104817057Y-42918142D01*
X105721819Y-43870523D02*
X105721819Y-43299095D01*
X105721819Y-43584809D02*
X104721819Y-43584809D01*
X104721819Y-43584809D02*
X104864676Y-43489571D01*
X104864676Y-43489571D02*
X104959914Y-43394333D01*
X104959914Y-43394333D02*
X105007533Y-43299095D01*
X105721819Y-44346714D02*
X105721819Y-44537190D01*
X105721819Y-44537190D02*
X105674200Y-44632428D01*
X105674200Y-44632428D02*
X105626580Y-44680047D01*
X105626580Y-44680047D02*
X105483723Y-44775285D01*
X105483723Y-44775285D02*
X105293247Y-44822904D01*
X105293247Y-44822904D02*
X104912295Y-44822904D01*
X104912295Y-44822904D02*
X104817057Y-44775285D01*
X104817057Y-44775285D02*
X104769438Y-44727666D01*
X104769438Y-44727666D02*
X104721819Y-44632428D01*
X104721819Y-44632428D02*
X104721819Y-44441952D01*
X104721819Y-44441952D02*
X104769438Y-44346714D01*
X104769438Y-44346714D02*
X104817057Y-44299095D01*
X104817057Y-44299095D02*
X104912295Y-44251476D01*
X104912295Y-44251476D02*
X105150390Y-44251476D01*
X105150390Y-44251476D02*
X105245628Y-44299095D01*
X105245628Y-44299095D02*
X105293247Y-44346714D01*
X105293247Y-44346714D02*
X105340866Y-44441952D01*
X105340866Y-44441952D02*
X105340866Y-44632428D01*
X105340866Y-44632428D02*
X105293247Y-44727666D01*
X105293247Y-44727666D02*
X105245628Y-44775285D01*
X105245628Y-44775285D02*
X105150390Y-44822904D01*
D11*
X137991345Y-43971070D02*
X137991345Y-43499356D01*
X137991345Y-43499356D02*
X137000745Y-43499356D01*
X137095088Y-44254098D02*
X137047916Y-44301270D01*
X137047916Y-44301270D02*
X137000745Y-44395613D01*
X137000745Y-44395613D02*
X137000745Y-44631470D01*
X137000745Y-44631470D02*
X137047916Y-44725813D01*
X137047916Y-44725813D02*
X137095088Y-44772984D01*
X137095088Y-44772984D02*
X137189431Y-44820155D01*
X137189431Y-44820155D02*
X137283774Y-44820155D01*
X137283774Y-44820155D02*
X137425288Y-44772984D01*
X137425288Y-44772984D02*
X137991345Y-44206927D01*
X137991345Y-44206927D02*
X137991345Y-44820155D01*
D12*
X148023024Y-43932970D02*
X148023024Y-43461256D01*
X148023024Y-43461256D02*
X147032424Y-43461256D01*
X147032424Y-44168827D02*
X147032424Y-44782055D01*
X147032424Y-44782055D02*
X147409795Y-44451855D01*
X147409795Y-44451855D02*
X147409795Y-44593370D01*
X147409795Y-44593370D02*
X147456967Y-44687713D01*
X147456967Y-44687713D02*
X147504138Y-44734884D01*
X147504138Y-44734884D02*
X147598481Y-44782055D01*
X147598481Y-44782055D02*
X147834338Y-44782055D01*
X147834338Y-44782055D02*
X147928681Y-44734884D01*
X147928681Y-44734884D02*
X147975853Y-44687713D01*
X147975853Y-44687713D02*
X148023024Y-44593370D01*
X148023024Y-44593370D02*
X148023024Y-44310341D01*
X148023024Y-44310341D02*
X147975853Y-44215998D01*
X147975853Y-44215998D02*
X147928681Y-44168827D01*
D10*
X155553580Y-42918142D02*
X155601200Y-42870523D01*
X155601200Y-42870523D02*
X155648819Y-42727666D01*
X155648819Y-42727666D02*
X155648819Y-42632428D01*
X155648819Y-42632428D02*
X155601200Y-42489571D01*
X155601200Y-42489571D02*
X155505961Y-42394333D01*
X155505961Y-42394333D02*
X155410723Y-42346714D01*
X155410723Y-42346714D02*
X155220247Y-42299095D01*
X155220247Y-42299095D02*
X155077390Y-42299095D01*
X155077390Y-42299095D02*
X154886914Y-42346714D01*
X154886914Y-42346714D02*
X154791676Y-42394333D01*
X154791676Y-42394333D02*
X154696438Y-42489571D01*
X154696438Y-42489571D02*
X154648819Y-42632428D01*
X154648819Y-42632428D02*
X154648819Y-42727666D01*
X154648819Y-42727666D02*
X154696438Y-42870523D01*
X154696438Y-42870523D02*
X154744057Y-42918142D01*
X155648819Y-43870523D02*
X155648819Y-43299095D01*
X155648819Y-43584809D02*
X154648819Y-43584809D01*
X154648819Y-43584809D02*
X154791676Y-43489571D01*
X154791676Y-43489571D02*
X154886914Y-43394333D01*
X154886914Y-43394333D02*
X154934533Y-43299095D01*
X154648819Y-44203857D02*
X154648819Y-44822904D01*
X154648819Y-44822904D02*
X155029771Y-44489571D01*
X155029771Y-44489571D02*
X155029771Y-44632428D01*
X155029771Y-44632428D02*
X155077390Y-44727666D01*
X155077390Y-44727666D02*
X155125009Y-44775285D01*
X155125009Y-44775285D02*
X155220247Y-44822904D01*
X155220247Y-44822904D02*
X155458342Y-44822904D01*
X155458342Y-44822904D02*
X155553580Y-44775285D01*
X155553580Y-44775285D02*
X155601200Y-44727666D01*
X155601200Y-44727666D02*
X155648819Y-44632428D01*
X155648819Y-44632428D02*
X155648819Y-44346714D01*
X155648819Y-44346714D02*
X155601200Y-44251476D01*
X155601200Y-44251476D02*
X155553580Y-44203857D01*
X122660580Y-43870524D02*
X122708200Y-43822905D01*
X122708200Y-43822905D02*
X122755819Y-43680048D01*
X122755819Y-43680048D02*
X122755819Y-43584810D01*
X122755819Y-43584810D02*
X122708200Y-43441953D01*
X122708200Y-43441953D02*
X122612961Y-43346715D01*
X122612961Y-43346715D02*
X122517723Y-43299096D01*
X122517723Y-43299096D02*
X122327247Y-43251477D01*
X122327247Y-43251477D02*
X122184390Y-43251477D01*
X122184390Y-43251477D02*
X121993914Y-43299096D01*
X121993914Y-43299096D02*
X121898676Y-43346715D01*
X121898676Y-43346715D02*
X121803438Y-43441953D01*
X121803438Y-43441953D02*
X121755819Y-43584810D01*
X121755819Y-43584810D02*
X121755819Y-43680048D01*
X121755819Y-43680048D02*
X121803438Y-43822905D01*
X121803438Y-43822905D02*
X121851057Y-43870524D01*
X121755819Y-44775286D02*
X121755819Y-44299096D01*
X121755819Y-44299096D02*
X122232009Y-44251477D01*
X122232009Y-44251477D02*
X122184390Y-44299096D01*
X122184390Y-44299096D02*
X122136771Y-44394334D01*
X122136771Y-44394334D02*
X122136771Y-44632429D01*
X122136771Y-44632429D02*
X122184390Y-44727667D01*
X122184390Y-44727667D02*
X122232009Y-44775286D01*
X122232009Y-44775286D02*
X122327247Y-44822905D01*
X122327247Y-44822905D02*
X122565342Y-44822905D01*
X122565342Y-44822905D02*
X122660580Y-44775286D01*
X122660580Y-44775286D02*
X122708200Y-44727667D01*
X122708200Y-44727667D02*
X122755819Y-44632429D01*
X122755819Y-44632429D02*
X122755819Y-44394334D01*
X122755819Y-44394334D02*
X122708200Y-44299096D01*
X122708200Y-44299096D02*
X122660580Y-44251477D01*
X153140580Y-42918142D02*
X153188200Y-42870523D01*
X153188200Y-42870523D02*
X153235819Y-42727666D01*
X153235819Y-42727666D02*
X153235819Y-42632428D01*
X153235819Y-42632428D02*
X153188200Y-42489571D01*
X153188200Y-42489571D02*
X153092961Y-42394333D01*
X153092961Y-42394333D02*
X152997723Y-42346714D01*
X152997723Y-42346714D02*
X152807247Y-42299095D01*
X152807247Y-42299095D02*
X152664390Y-42299095D01*
X152664390Y-42299095D02*
X152473914Y-42346714D01*
X152473914Y-42346714D02*
X152378676Y-42394333D01*
X152378676Y-42394333D02*
X152283438Y-42489571D01*
X152283438Y-42489571D02*
X152235819Y-42632428D01*
X152235819Y-42632428D02*
X152235819Y-42727666D01*
X152235819Y-42727666D02*
X152283438Y-42870523D01*
X152283438Y-42870523D02*
X152331057Y-42918142D01*
X153235819Y-43870523D02*
X153235819Y-43299095D01*
X153235819Y-43584809D02*
X152235819Y-43584809D01*
X152235819Y-43584809D02*
X152378676Y-43489571D01*
X152378676Y-43489571D02*
X152473914Y-43394333D01*
X152473914Y-43394333D02*
X152521533Y-43299095D01*
X152235819Y-44775285D02*
X152235819Y-44299095D01*
X152235819Y-44299095D02*
X152712009Y-44251476D01*
X152712009Y-44251476D02*
X152664390Y-44299095D01*
X152664390Y-44299095D02*
X152616771Y-44394333D01*
X152616771Y-44394333D02*
X152616771Y-44632428D01*
X152616771Y-44632428D02*
X152664390Y-44727666D01*
X152664390Y-44727666D02*
X152712009Y-44775285D01*
X152712009Y-44775285D02*
X152807247Y-44822904D01*
X152807247Y-44822904D02*
X153045342Y-44822904D01*
X153045342Y-44822904D02*
X153140580Y-44775285D01*
X153140580Y-44775285D02*
X153188200Y-44727666D01*
X153188200Y-44727666D02*
X153235819Y-44632428D01*
X153235819Y-44632428D02*
X153235819Y-44394333D01*
X153235819Y-44394333D02*
X153188200Y-44299095D01*
X153188200Y-44299095D02*
X153140580Y-44251476D01*
X133201580Y-43870524D02*
X133249200Y-43822905D01*
X133249200Y-43822905D02*
X133296819Y-43680048D01*
X133296819Y-43680048D02*
X133296819Y-43584810D01*
X133296819Y-43584810D02*
X133249200Y-43441953D01*
X133249200Y-43441953D02*
X133153961Y-43346715D01*
X133153961Y-43346715D02*
X133058723Y-43299096D01*
X133058723Y-43299096D02*
X132868247Y-43251477D01*
X132868247Y-43251477D02*
X132725390Y-43251477D01*
X132725390Y-43251477D02*
X132534914Y-43299096D01*
X132534914Y-43299096D02*
X132439676Y-43346715D01*
X132439676Y-43346715D02*
X132344438Y-43441953D01*
X132344438Y-43441953D02*
X132296819Y-43584810D01*
X132296819Y-43584810D02*
X132296819Y-43680048D01*
X132296819Y-43680048D02*
X132344438Y-43822905D01*
X132344438Y-43822905D02*
X132392057Y-43870524D01*
X132296819Y-44727667D02*
X132296819Y-44537191D01*
X132296819Y-44537191D02*
X132344438Y-44441953D01*
X132344438Y-44441953D02*
X132392057Y-44394334D01*
X132392057Y-44394334D02*
X132534914Y-44299096D01*
X132534914Y-44299096D02*
X132725390Y-44251477D01*
X132725390Y-44251477D02*
X133106342Y-44251477D01*
X133106342Y-44251477D02*
X133201580Y-44299096D01*
X133201580Y-44299096D02*
X133249200Y-44346715D01*
X133249200Y-44346715D02*
X133296819Y-44441953D01*
X133296819Y-44441953D02*
X133296819Y-44632429D01*
X133296819Y-44632429D02*
X133249200Y-44727667D01*
X133249200Y-44727667D02*
X133201580Y-44775286D01*
X133201580Y-44775286D02*
X133106342Y-44822905D01*
X133106342Y-44822905D02*
X132868247Y-44822905D01*
X132868247Y-44822905D02*
X132773009Y-44775286D01*
X132773009Y-44775286D02*
X132725390Y-44727667D01*
X132725390Y-44727667D02*
X132677771Y-44632429D01*
X132677771Y-44632429D02*
X132677771Y-44441953D01*
X132677771Y-44441953D02*
X132725390Y-44346715D01*
X132725390Y-44346715D02*
X132773009Y-44299096D01*
X132773009Y-44299096D02*
X132868247Y-44251477D01*
X130280580Y-43870524D02*
X130328200Y-43822905D01*
X130328200Y-43822905D02*
X130375819Y-43680048D01*
X130375819Y-43680048D02*
X130375819Y-43584810D01*
X130375819Y-43584810D02*
X130328200Y-43441953D01*
X130328200Y-43441953D02*
X130232961Y-43346715D01*
X130232961Y-43346715D02*
X130137723Y-43299096D01*
X130137723Y-43299096D02*
X129947247Y-43251477D01*
X129947247Y-43251477D02*
X129804390Y-43251477D01*
X129804390Y-43251477D02*
X129613914Y-43299096D01*
X129613914Y-43299096D02*
X129518676Y-43346715D01*
X129518676Y-43346715D02*
X129423438Y-43441953D01*
X129423438Y-43441953D02*
X129375819Y-43584810D01*
X129375819Y-43584810D02*
X129375819Y-43680048D01*
X129375819Y-43680048D02*
X129423438Y-43822905D01*
X129423438Y-43822905D02*
X129471057Y-43870524D01*
X130375819Y-44822905D02*
X130375819Y-44251477D01*
X130375819Y-44537191D02*
X129375819Y-44537191D01*
X129375819Y-44537191D02*
X129518676Y-44441953D01*
X129518676Y-44441953D02*
X129613914Y-44346715D01*
X129613914Y-44346715D02*
X129661533Y-44251477D01*
D12*
X118162024Y-43932970D02*
X118162024Y-43461256D01*
X118162024Y-43461256D02*
X117171424Y-43461256D01*
X117171424Y-44734884D02*
X117171424Y-44263170D01*
X117171424Y-44263170D02*
X117643138Y-44215998D01*
X117643138Y-44215998D02*
X117595967Y-44263170D01*
X117595967Y-44263170D02*
X117548795Y-44357513D01*
X117548795Y-44357513D02*
X117548795Y-44593370D01*
X117548795Y-44593370D02*
X117595967Y-44687713D01*
X117595967Y-44687713D02*
X117643138Y-44734884D01*
X117643138Y-44734884D02*
X117737481Y-44782055D01*
X117737481Y-44782055D02*
X117973338Y-44782055D01*
X117973338Y-44782055D02*
X118067681Y-44734884D01*
X118067681Y-44734884D02*
X118114853Y-44687713D01*
X118114853Y-44687713D02*
X118162024Y-44593370D01*
X118162024Y-44593370D02*
X118162024Y-44357513D01*
X118162024Y-44357513D02*
X118114853Y-44263170D01*
X118114853Y-44263170D02*
X118067681Y-44215998D01*
D10*
X120485580Y-42918142D02*
X120533200Y-42870523D01*
X120533200Y-42870523D02*
X120580819Y-42727666D01*
X120580819Y-42727666D02*
X120580819Y-42632428D01*
X120580819Y-42632428D02*
X120533200Y-42489571D01*
X120533200Y-42489571D02*
X120437961Y-42394333D01*
X120437961Y-42394333D02*
X120342723Y-42346714D01*
X120342723Y-42346714D02*
X120152247Y-42299095D01*
X120152247Y-42299095D02*
X120009390Y-42299095D01*
X120009390Y-42299095D02*
X119818914Y-42346714D01*
X119818914Y-42346714D02*
X119723676Y-42394333D01*
X119723676Y-42394333D02*
X119628438Y-42489571D01*
X119628438Y-42489571D02*
X119580819Y-42632428D01*
X119580819Y-42632428D02*
X119580819Y-42727666D01*
X119580819Y-42727666D02*
X119628438Y-42870523D01*
X119628438Y-42870523D02*
X119676057Y-42918142D01*
X120580819Y-43870523D02*
X120580819Y-43299095D01*
X120580819Y-43584809D02*
X119580819Y-43584809D01*
X119580819Y-43584809D02*
X119723676Y-43489571D01*
X119723676Y-43489571D02*
X119818914Y-43394333D01*
X119818914Y-43394333D02*
X119866533Y-43299095D01*
X119580819Y-44727666D02*
X119580819Y-44537190D01*
X119580819Y-44537190D02*
X119628438Y-44441952D01*
X119628438Y-44441952D02*
X119676057Y-44394333D01*
X119676057Y-44394333D02*
X119818914Y-44299095D01*
X119818914Y-44299095D02*
X120009390Y-44251476D01*
X120009390Y-44251476D02*
X120390342Y-44251476D01*
X120390342Y-44251476D02*
X120485580Y-44299095D01*
X120485580Y-44299095D02*
X120533200Y-44346714D01*
X120533200Y-44346714D02*
X120580819Y-44441952D01*
X120580819Y-44441952D02*
X120580819Y-44632428D01*
X120580819Y-44632428D02*
X120533200Y-44727666D01*
X120533200Y-44727666D02*
X120485580Y-44775285D01*
X120485580Y-44775285D02*
X120390342Y-44822904D01*
X120390342Y-44822904D02*
X120152247Y-44822904D01*
X120152247Y-44822904D02*
X120057009Y-44775285D01*
X120057009Y-44775285D02*
X120009390Y-44727666D01*
X120009390Y-44727666D02*
X119961771Y-44632428D01*
X119961771Y-44632428D02*
X119961771Y-44441952D01*
X119961771Y-44441952D02*
X120009390Y-44346714D01*
X120009390Y-44346714D02*
X120057009Y-44299095D01*
X120057009Y-44299095D02*
X120152247Y-44251476D01*
X150473580Y-42918142D02*
X150521200Y-42870523D01*
X150521200Y-42870523D02*
X150568819Y-42727666D01*
X150568819Y-42727666D02*
X150568819Y-42632428D01*
X150568819Y-42632428D02*
X150521200Y-42489571D01*
X150521200Y-42489571D02*
X150425961Y-42394333D01*
X150425961Y-42394333D02*
X150330723Y-42346714D01*
X150330723Y-42346714D02*
X150140247Y-42299095D01*
X150140247Y-42299095D02*
X149997390Y-42299095D01*
X149997390Y-42299095D02*
X149806914Y-42346714D01*
X149806914Y-42346714D02*
X149711676Y-42394333D01*
X149711676Y-42394333D02*
X149616438Y-42489571D01*
X149616438Y-42489571D02*
X149568819Y-42632428D01*
X149568819Y-42632428D02*
X149568819Y-42727666D01*
X149568819Y-42727666D02*
X149616438Y-42870523D01*
X149616438Y-42870523D02*
X149664057Y-42918142D01*
X150568819Y-43870523D02*
X150568819Y-43299095D01*
X150568819Y-43584809D02*
X149568819Y-43584809D01*
X149568819Y-43584809D02*
X149711676Y-43489571D01*
X149711676Y-43489571D02*
X149806914Y-43394333D01*
X149806914Y-43394333D02*
X149854533Y-43299095D01*
X149568819Y-44489571D02*
X149568819Y-44584809D01*
X149568819Y-44584809D02*
X149616438Y-44680047D01*
X149616438Y-44680047D02*
X149664057Y-44727666D01*
X149664057Y-44727666D02*
X149759295Y-44775285D01*
X149759295Y-44775285D02*
X149949771Y-44822904D01*
X149949771Y-44822904D02*
X150187866Y-44822904D01*
X150187866Y-44822904D02*
X150378342Y-44775285D01*
X150378342Y-44775285D02*
X150473580Y-44727666D01*
X150473580Y-44727666D02*
X150521200Y-44680047D01*
X150521200Y-44680047D02*
X150568819Y-44584809D01*
X150568819Y-44584809D02*
X150568819Y-44489571D01*
X150568819Y-44489571D02*
X150521200Y-44394333D01*
X150521200Y-44394333D02*
X150473580Y-44346714D01*
X150473580Y-44346714D02*
X150378342Y-44299095D01*
X150378342Y-44299095D02*
X150187866Y-44251476D01*
X150187866Y-44251476D02*
X149949771Y-44251476D01*
X149949771Y-44251476D02*
X149759295Y-44299095D01*
X149759295Y-44299095D02*
X149664057Y-44346714D01*
X149664057Y-44346714D02*
X149616438Y-44394333D01*
X149616438Y-44394333D02*
X149568819Y-44489571D01*
X160252580Y-42918142D02*
X160300200Y-42870523D01*
X160300200Y-42870523D02*
X160347819Y-42727666D01*
X160347819Y-42727666D02*
X160347819Y-42632428D01*
X160347819Y-42632428D02*
X160300200Y-42489571D01*
X160300200Y-42489571D02*
X160204961Y-42394333D01*
X160204961Y-42394333D02*
X160109723Y-42346714D01*
X160109723Y-42346714D02*
X159919247Y-42299095D01*
X159919247Y-42299095D02*
X159776390Y-42299095D01*
X159776390Y-42299095D02*
X159585914Y-42346714D01*
X159585914Y-42346714D02*
X159490676Y-42394333D01*
X159490676Y-42394333D02*
X159395438Y-42489571D01*
X159395438Y-42489571D02*
X159347819Y-42632428D01*
X159347819Y-42632428D02*
X159347819Y-42727666D01*
X159347819Y-42727666D02*
X159395438Y-42870523D01*
X159395438Y-42870523D02*
X159443057Y-42918142D01*
X160347819Y-43870523D02*
X160347819Y-43299095D01*
X160347819Y-43584809D02*
X159347819Y-43584809D01*
X159347819Y-43584809D02*
X159490676Y-43489571D01*
X159490676Y-43489571D02*
X159585914Y-43394333D01*
X159585914Y-43394333D02*
X159633533Y-43299095D01*
X160347819Y-44822904D02*
X160347819Y-44251476D01*
X160347819Y-44537190D02*
X159347819Y-44537190D01*
X159347819Y-44537190D02*
X159490676Y-44441952D01*
X159490676Y-44441952D02*
X159585914Y-44346714D01*
X159585914Y-44346714D02*
X159633533Y-44251476D01*
X135487580Y-43870524D02*
X135535200Y-43822905D01*
X135535200Y-43822905D02*
X135582819Y-43680048D01*
X135582819Y-43680048D02*
X135582819Y-43584810D01*
X135582819Y-43584810D02*
X135535200Y-43441953D01*
X135535200Y-43441953D02*
X135439961Y-43346715D01*
X135439961Y-43346715D02*
X135344723Y-43299096D01*
X135344723Y-43299096D02*
X135154247Y-43251477D01*
X135154247Y-43251477D02*
X135011390Y-43251477D01*
X135011390Y-43251477D02*
X134820914Y-43299096D01*
X134820914Y-43299096D02*
X134725676Y-43346715D01*
X134725676Y-43346715D02*
X134630438Y-43441953D01*
X134630438Y-43441953D02*
X134582819Y-43584810D01*
X134582819Y-43584810D02*
X134582819Y-43680048D01*
X134582819Y-43680048D02*
X134630438Y-43822905D01*
X134630438Y-43822905D02*
X134678057Y-43870524D01*
X134916152Y-44727667D02*
X135582819Y-44727667D01*
X134535200Y-44489572D02*
X135249485Y-44251477D01*
X135249485Y-44251477D02*
X135249485Y-44870524D01*
X103340580Y-42918142D02*
X103388200Y-42870523D01*
X103388200Y-42870523D02*
X103435819Y-42727666D01*
X103435819Y-42727666D02*
X103435819Y-42632428D01*
X103435819Y-42632428D02*
X103388200Y-42489571D01*
X103388200Y-42489571D02*
X103292961Y-42394333D01*
X103292961Y-42394333D02*
X103197723Y-42346714D01*
X103197723Y-42346714D02*
X103007247Y-42299095D01*
X103007247Y-42299095D02*
X102864390Y-42299095D01*
X102864390Y-42299095D02*
X102673914Y-42346714D01*
X102673914Y-42346714D02*
X102578676Y-42394333D01*
X102578676Y-42394333D02*
X102483438Y-42489571D01*
X102483438Y-42489571D02*
X102435819Y-42632428D01*
X102435819Y-42632428D02*
X102435819Y-42727666D01*
X102435819Y-42727666D02*
X102483438Y-42870523D01*
X102483438Y-42870523D02*
X102531057Y-42918142D01*
X102531057Y-43299095D02*
X102483438Y-43346714D01*
X102483438Y-43346714D02*
X102435819Y-43441952D01*
X102435819Y-43441952D02*
X102435819Y-43680047D01*
X102435819Y-43680047D02*
X102483438Y-43775285D01*
X102483438Y-43775285D02*
X102531057Y-43822904D01*
X102531057Y-43822904D02*
X102626295Y-43870523D01*
X102626295Y-43870523D02*
X102721533Y-43870523D01*
X102721533Y-43870523D02*
X102864390Y-43822904D01*
X102864390Y-43822904D02*
X103435819Y-43251476D01*
X103435819Y-43251476D02*
X103435819Y-43870523D01*
X103435819Y-44822904D02*
X103435819Y-44251476D01*
X103435819Y-44537190D02*
X102435819Y-44537190D01*
X102435819Y-44537190D02*
X102578676Y-44441952D01*
X102578676Y-44441952D02*
X102673914Y-44346714D01*
X102673914Y-44346714D02*
X102721533Y-44251476D01*
X145139580Y-42918142D02*
X145187200Y-42870523D01*
X145187200Y-42870523D02*
X145234819Y-42727666D01*
X145234819Y-42727666D02*
X145234819Y-42632428D01*
X145234819Y-42632428D02*
X145187200Y-42489571D01*
X145187200Y-42489571D02*
X145091961Y-42394333D01*
X145091961Y-42394333D02*
X144996723Y-42346714D01*
X144996723Y-42346714D02*
X144806247Y-42299095D01*
X144806247Y-42299095D02*
X144663390Y-42299095D01*
X144663390Y-42299095D02*
X144472914Y-42346714D01*
X144472914Y-42346714D02*
X144377676Y-42394333D01*
X144377676Y-42394333D02*
X144282438Y-42489571D01*
X144282438Y-42489571D02*
X144234819Y-42632428D01*
X144234819Y-42632428D02*
X144234819Y-42727666D01*
X144234819Y-42727666D02*
X144282438Y-42870523D01*
X144282438Y-42870523D02*
X144330057Y-42918142D01*
X145234819Y-43870523D02*
X145234819Y-43299095D01*
X145234819Y-43584809D02*
X144234819Y-43584809D01*
X144234819Y-43584809D02*
X144377676Y-43489571D01*
X144377676Y-43489571D02*
X144472914Y-43394333D01*
X144472914Y-43394333D02*
X144520533Y-43299095D01*
X144568152Y-44727666D02*
X145234819Y-44727666D01*
X144187200Y-44489571D02*
X144901485Y-44251476D01*
X144901485Y-44251476D02*
X144901485Y-44870523D01*
X110452580Y-42918142D02*
X110500200Y-42870523D01*
X110500200Y-42870523D02*
X110547819Y-42727666D01*
X110547819Y-42727666D02*
X110547819Y-42632428D01*
X110547819Y-42632428D02*
X110500200Y-42489571D01*
X110500200Y-42489571D02*
X110404961Y-42394333D01*
X110404961Y-42394333D02*
X110309723Y-42346714D01*
X110309723Y-42346714D02*
X110119247Y-42299095D01*
X110119247Y-42299095D02*
X109976390Y-42299095D01*
X109976390Y-42299095D02*
X109785914Y-42346714D01*
X109785914Y-42346714D02*
X109690676Y-42394333D01*
X109690676Y-42394333D02*
X109595438Y-42489571D01*
X109595438Y-42489571D02*
X109547819Y-42632428D01*
X109547819Y-42632428D02*
X109547819Y-42727666D01*
X109547819Y-42727666D02*
X109595438Y-42870523D01*
X109595438Y-42870523D02*
X109643057Y-42918142D01*
X110547819Y-43870523D02*
X110547819Y-43299095D01*
X110547819Y-43584809D02*
X109547819Y-43584809D01*
X109547819Y-43584809D02*
X109690676Y-43489571D01*
X109690676Y-43489571D02*
X109785914Y-43394333D01*
X109785914Y-43394333D02*
X109833533Y-43299095D01*
X109547819Y-44203857D02*
X109547819Y-44870523D01*
X109547819Y-44870523D02*
X110547819Y-44441952D01*
D11*
X108130345Y-43971070D02*
X108130345Y-43499356D01*
X108130345Y-43499356D02*
X107139745Y-43499356D01*
X107139745Y-44725813D02*
X107139745Y-44537127D01*
X107139745Y-44537127D02*
X107186916Y-44442784D01*
X107186916Y-44442784D02*
X107234088Y-44395613D01*
X107234088Y-44395613D02*
X107375602Y-44301270D01*
X107375602Y-44301270D02*
X107564288Y-44254098D01*
X107564288Y-44254098D02*
X107941659Y-44254098D01*
X107941659Y-44254098D02*
X108036002Y-44301270D01*
X108036002Y-44301270D02*
X108083174Y-44348441D01*
X108083174Y-44348441D02*
X108130345Y-44442784D01*
X108130345Y-44442784D02*
X108130345Y-44631470D01*
X108130345Y-44631470D02*
X108083174Y-44725813D01*
X108083174Y-44725813D02*
X108036002Y-44772984D01*
X108036002Y-44772984D02*
X107941659Y-44820155D01*
X107941659Y-44820155D02*
X107705802Y-44820155D01*
X107705802Y-44820155D02*
X107611459Y-44772984D01*
X107611459Y-44772984D02*
X107564288Y-44725813D01*
X107564288Y-44725813D02*
X107517116Y-44631470D01*
X107517116Y-44631470D02*
X107517116Y-44442784D01*
X107517116Y-44442784D02*
X107564288Y-44348441D01*
X107564288Y-44348441D02*
X107611459Y-44301270D01*
X107611459Y-44301270D02*
X107705802Y-44254098D01*
D12*
X127957024Y-43932970D02*
X127957024Y-43461256D01*
X127957024Y-43461256D02*
X126966424Y-43461256D01*
X127957024Y-44782055D02*
X127957024Y-44215998D01*
X127957024Y-44499027D02*
X126966424Y-44499027D01*
X126966424Y-44499027D02*
X127107938Y-44404684D01*
X127107938Y-44404684D02*
X127202281Y-44310341D01*
X127202281Y-44310341D02*
X127249453Y-44215998D01*
D13*
%TO.C,C20*%
X113622000Y-36521752D02*
X113622000Y-35999248D01*
X112152000Y-36521752D02*
X112152000Y-35999248D01*
%TO.C,C18*%
X116035000Y-36521752D02*
X116035000Y-35999248D01*
X114565000Y-36521752D02*
X114565000Y-35999248D01*
%TO.C,C12*%
X143229000Y-36583252D02*
X143229000Y-36060748D01*
X141759000Y-36583252D02*
X141759000Y-36060748D01*
%TO.C,C2*%
X139346000Y-36060748D02*
X139346000Y-36583252D01*
X140816000Y-36060748D02*
X140816000Y-36583252D01*
%TO.C,C3*%
X125703000Y-36710252D02*
X125703000Y-36187748D01*
X124233000Y-36710252D02*
X124233000Y-36187748D01*
%TO.C,C19*%
X106129000Y-36521752D02*
X106129000Y-35999248D01*
X104659000Y-36521752D02*
X104659000Y-35999248D01*
%TO.C,C13*%
X156056000Y-36583252D02*
X156056000Y-36060748D01*
X154586000Y-36583252D02*
X154586000Y-36060748D01*
%TO.C,C5*%
X123290000Y-36710252D02*
X123290000Y-36187748D01*
X121820000Y-36710252D02*
X121820000Y-36187748D01*
%TO.C,C15*%
X153643000Y-36583252D02*
X153643000Y-36060748D01*
X152173000Y-36583252D02*
X152173000Y-36060748D01*
%TO.C,C6*%
X133704000Y-36583252D02*
X133704000Y-36060748D01*
X132234000Y-36583252D02*
X132234000Y-36060748D01*
%TO.C,C1*%
X129186000Y-36060748D02*
X129186000Y-36583252D01*
X130656000Y-36060748D02*
X130656000Y-36583252D01*
%TO.C,C16*%
X119391000Y-36126248D02*
X119391000Y-36648752D01*
X120861000Y-36126248D02*
X120861000Y-36648752D01*
%TO.C,C10*%
X149379000Y-36060748D02*
X149379000Y-36583252D01*
X150849000Y-36060748D02*
X150849000Y-36583252D01*
%TO.C,C11*%
X159285000Y-36314748D02*
X159285000Y-36837252D01*
X160755000Y-36314748D02*
X160755000Y-36837252D01*
%TO.C,C4*%
X135990000Y-36583252D02*
X135990000Y-36060748D01*
X134520000Y-36583252D02*
X134520000Y-36060748D01*
%TO.C,C21*%
X103843000Y-36521752D02*
X103843000Y-35999248D01*
X102373000Y-36521752D02*
X102373000Y-35999248D01*
%TO.C,C14*%
X145769000Y-36583252D02*
X145769000Y-36060748D01*
X144299000Y-36583252D02*
X144299000Y-36060748D01*
%TO.C,C17*%
X109485000Y-36126248D02*
X109485000Y-36648752D01*
X110955000Y-36126248D02*
X110955000Y-36648752D01*
%TD*%
%LPC*%
D14*
%TO.C,J7*%
X101092000Y-76708000D03*
X103632000Y-76708000D03*
X106172000Y-76708000D03*
X108712000Y-76708000D03*
X111252000Y-76708000D03*
X113792000Y-76708000D03*
X101092000Y-74168000D03*
X103632000Y-74168000D03*
X106172000Y-74168000D03*
X108712000Y-74168000D03*
X111252000Y-74168000D03*
D15*
X113792000Y-74168000D03*
%TD*%
D16*
%TO.C,J1*%
X122555000Y-40163500D03*
D17*
X127635000Y-40163500D03*
X130175000Y-40163500D03*
X130175000Y-32543500D03*
X122555000Y-32543500D03*
%TD*%
D16*
%TO.C,J5*%
X102209600Y-40197500D03*
D17*
X107289600Y-40197500D03*
X109829600Y-40197500D03*
X109829600Y-32577500D03*
X102209600Y-32577500D03*
%TD*%
D16*
%TO.C,J4*%
X152511000Y-40163500D03*
D17*
X155051000Y-40163500D03*
X157591000Y-40163500D03*
X160131000Y-40163500D03*
X160131000Y-32543500D03*
X152511000Y-32543500D03*
%TD*%
D15*
%TO.C,J8*%
X138015500Y-74168000D03*
D14*
X135475500Y-74168000D03*
X132935500Y-74168000D03*
X130395500Y-74168000D03*
X127855500Y-74168000D03*
X125315500Y-74168000D03*
X138015500Y-76708000D03*
X135475500Y-76708000D03*
X132935500Y-76708000D03*
X130395500Y-76708000D03*
X127855500Y-76708000D03*
X125315500Y-76708000D03*
%TD*%
D18*
%TO.C,U2*%
X101600000Y-67340000D03*
X104140000Y-67340000D03*
X106680000Y-67340000D03*
X109220000Y-67340000D03*
X111760000Y-67340000D03*
X114300000Y-67340000D03*
X116840000Y-67340000D03*
X119380000Y-67340000D03*
X121920000Y-67340000D03*
X139700000Y-67340000D03*
X142240000Y-67340000D03*
X144780000Y-67340000D03*
X147320000Y-67340000D03*
X149860000Y-67340000D03*
X152400000Y-67340000D03*
X154940000Y-67340000D03*
X157480000Y-67340000D03*
X160020000Y-67340000D03*
X160020000Y-52100000D03*
X157480000Y-52100000D03*
X154940000Y-52100000D03*
X152400000Y-52100000D03*
X149860000Y-52100000D03*
X147320000Y-52100000D03*
X144780000Y-52100000D03*
X142240000Y-52100000D03*
X139700000Y-52100000D03*
X121920000Y-52100000D03*
X119380000Y-52100000D03*
X116840000Y-52100000D03*
X114300000Y-52100000D03*
X111760000Y-52100000D03*
X109220000Y-52100000D03*
X106680000Y-52100000D03*
X104140000Y-52100000D03*
X101600000Y-52100000D03*
%TD*%
D16*
%TO.C,J2*%
X132223000Y-40163500D03*
D17*
X134763000Y-40163500D03*
X137303000Y-40163500D03*
X139843000Y-40163500D03*
X139843000Y-32543500D03*
X132223000Y-32543500D03*
%TD*%
D16*
%TO.C,J6*%
X112395000Y-40197500D03*
D17*
X114935000Y-40197500D03*
X117475000Y-40197500D03*
X120015000Y-40197500D03*
X120015000Y-32577500D03*
X112395000Y-32577500D03*
%TD*%
D16*
%TO.C,J3*%
X142335000Y-40163500D03*
D17*
X147415000Y-40163500D03*
X149955000Y-40163500D03*
X149955000Y-32543500D03*
X142335000Y-32543500D03*
%TD*%
D19*
%TO.C,C20*%
X112887000Y-37298000D03*
X112887000Y-35223000D03*
%TD*%
D20*
%TO.C,L4*%
X157607000Y-35589000D03*
X157607000Y-37309000D03*
%TD*%
D19*
%TO.C,C18*%
X115300000Y-37298000D03*
X115300000Y-35223000D03*
%TD*%
%TO.C,C12*%
X142494000Y-37359500D03*
X142494000Y-35284500D03*
%TD*%
D21*
%TO.C,C2*%
X140081000Y-35284500D03*
X140081000Y-37359500D03*
%TD*%
D19*
%TO.C,C3*%
X124968000Y-37486500D03*
X124968000Y-35411500D03*
%TD*%
%TO.C,C19*%
X105394000Y-37298000D03*
X105394000Y-35223000D03*
%TD*%
D20*
%TO.C,L2*%
X137668000Y-35335000D03*
X137668000Y-37055000D03*
%TD*%
%TO.C,L3*%
X147574000Y-35335000D03*
X147574000Y-37055000D03*
%TD*%
D19*
%TO.C,C13*%
X155321000Y-37359500D03*
X155321000Y-35284500D03*
%TD*%
%TO.C,C5*%
X122555000Y-37486500D03*
X122555000Y-35411500D03*
%TD*%
%TO.C,C15*%
X152908000Y-37359500D03*
X152908000Y-35284500D03*
%TD*%
%TO.C,C6*%
X132969000Y-37359500D03*
X132969000Y-35284500D03*
%TD*%
D21*
%TO.C,C1*%
X129921000Y-35284500D03*
X129921000Y-37359500D03*
%TD*%
D20*
%TO.C,L5*%
X117713000Y-35400500D03*
X117713000Y-37120500D03*
%TD*%
D21*
%TO.C,C16*%
X120126000Y-35350000D03*
X120126000Y-37425000D03*
%TD*%
%TO.C,C10*%
X150114000Y-35284500D03*
X150114000Y-37359500D03*
%TD*%
%TO.C,C11*%
X160020000Y-35538500D03*
X160020000Y-37613500D03*
%TD*%
D19*
%TO.C,C4*%
X135255000Y-37359500D03*
X135255000Y-35284500D03*
%TD*%
%TO.C,C21*%
X103108000Y-37298000D03*
X103108000Y-35223000D03*
%TD*%
%TO.C,C14*%
X145034000Y-37359500D03*
X145034000Y-35284500D03*
%TD*%
D21*
%TO.C,C17*%
X110220000Y-35350000D03*
X110220000Y-37425000D03*
%TD*%
D20*
%TO.C,L6*%
X107807000Y-35400500D03*
X107807000Y-37120500D03*
%TD*%
%TO.C,L1*%
X127508000Y-35589000D03*
X127508000Y-37309000D03*
%TD*%
D22*
%TO.C,H2*%
X167640000Y-36927000D03*
%TD*%
%TO.C,H3*%
X89662002Y-36546000D03*
%TD*%
%TO.C,H1*%
X89662002Y-80996000D03*
%TD*%
%TO.C,H4*%
X167640000Y-82042000D03*
%TD*%
D23*
X167894000Y-50546000D03*
X167894000Y-48006000D03*
X167894000Y-45466000D03*
X89712800Y-45669200D03*
X89712800Y-42494200D03*
X89712800Y-48336200D03*
%LPD*%
M02*
