M48
INCH
T1C0.0220
T2C0.0400
T3C0.0409
T4C0.0500
T5C0.1260
%
G90
G05
T1
X3.532Y-1.673
X3.532Y-1.798
X3.532Y-1.903
X4.235Y-1.295
X4.6344Y-1.295
X5.03Y-1.3
X5.42Y-1.295
X5.815Y-1.295
X6.105Y-2.915
X6.19Y-2.895
X6.205Y-1.3
X6.4106Y-3.305
X6.61Y-1.79
X6.61Y-1.89
X6.61Y-1.99
T2
X4.024Y-1.2826
X4.024Y-1.5826
X4.224Y-1.5826
X4.324Y-1.2826
X4.324Y-1.5826
X4.425Y-1.2826
X4.425Y-1.5826
X4.525Y-1.5826
X4.625Y-1.5826
X4.725Y-1.2826
X4.725Y-1.5826
X4.825Y-1.2812
X4.825Y-1.5812
X5.025Y-1.5812
X5.125Y-1.2812
X5.125Y-1.5812
X5.2056Y-1.2812
X5.2056Y-1.5812
X5.3056Y-1.5812
X5.4056Y-1.5812
X5.5056Y-1.2812
X5.5056Y-1.5812
X5.6037Y-1.2812
X5.6037Y-1.5812
X5.8037Y-1.5812
X5.9037Y-1.2812
X5.9037Y-1.5812
X6.0044Y-1.2812
X6.0044Y-1.5812
X6.1044Y-1.5812
X6.2044Y-1.5812
X6.3044Y-1.2812
X6.3044Y-1.5812
T3
X3.98Y-2.92
X3.98Y-3.02
X4.08Y-2.92
X4.08Y-3.02
X4.18Y-2.92
X4.18Y-3.02
X4.28Y-2.92
X4.28Y-3.02
X4.38Y-2.92
X4.38Y-3.02
X4.48Y-2.92
X4.48Y-3.02
X4.9337Y-2.92
X4.9337Y-3.02
X5.0337Y-2.92
X5.0337Y-3.02
X5.1337Y-2.92
X5.1337Y-3.02
X5.2337Y-2.92
X5.2337Y-3.02
X5.3337Y-2.92
X5.3337Y-3.02
X5.4337Y-2.92
X5.4337Y-3.02
T4
X4.0Y-2.0512
X4.0Y-2.6512
X4.1Y-2.0512
X4.1Y-2.6512
X4.2Y-2.0512
X4.2Y-2.6512
X4.3Y-2.0512
X4.3Y-2.6512
X4.4Y-2.0512
X4.4Y-2.6512
X4.5Y-2.0512
X4.5Y-2.6512
X4.6Y-2.0512
X4.6Y-2.6512
X4.7Y-2.0512
X4.7Y-2.6512
X4.8Y-2.0512
X4.8Y-2.6512
X5.5Y-2.0512
X5.5Y-2.6512
X5.6Y-2.0512
X5.6Y-2.6512
X5.7Y-2.0512
X5.7Y-2.6512
X5.8Y-2.0512
X5.8Y-2.6512
X5.9Y-2.0512
X5.9Y-2.6512
X6.0Y-2.0512
X6.0Y-2.6512
X6.1Y-2.0512
X6.1Y-2.6512
X6.2Y-2.0512
X6.2Y-2.6512
X6.3Y-2.0512
X6.3Y-2.6512
T5
X3.53Y-1.4388
X3.53Y-3.1888
X6.6Y-1.4538
X6.6Y-3.23
M30
