%TF.GenerationSoftware,KiCad,Pcbnew,9.0.0-rc2-32673a0ead~182~ubuntu24.04.1*%
%TF.CreationDate,2025-01-29T18:27:37-05:00*%
%TF.ProjectId,cmod_s7,636d6f64-5f73-4372-9e6b-696361645f70,rev?*%
%TF.SameCoordinates,Original*%
%TF.FileFunction,Copper,L1,Top*%
%TF.FilePolarity,Positive*%
%FSLAX46Y46*%
G04 Gerber Fmt 4.6, Leading zero omitted, Abs format (unit mm)*
G04 Created by KiCad (PCBNEW 9.0.0-rc2-32673a0ead~182~ubuntu24.04.1) date 2025-01-29 18:27:37*
%MOMM*%
%LPD*%
G01*
G04 APERTURE LIST*
G04 Aperture macros list*
%AMRoundRect*
0 Rectangle with rounded corners*
0 $1 Rounding radius*
0 $2 $3 $4 $5 $6 $7 $8 $9 X,Y pos of 4 corners*
0 Add a 4 corners polygon primitive as box body*
4,1,4,$2,$3,$4,$5,$6,$7,$8,$9,$2,$3,0*
0 Add four circle primitives for the rounded corners*
1,1,$1+$1,$2,$3*
1,1,$1+$1,$4,$5*
1,1,$1+$1,$6,$7*
1,1,$1+$1,$8,$9*
0 Add four rect primitives between the rounded corners*
20,1,$1+$1,$2,$3,$4,$5,0*
20,1,$1+$1,$4,$5,$6,$7,0*
20,1,$1+$1,$6,$7,$8,$9,0*
20,1,$1+$1,$8,$9,$2,$3,0*%
G04 Aperture macros list end*
%ADD10C,0.300000*%
%TA.AperFunction,NonConductor*%
%ADD11C,0.300000*%
%TD*%
%TA.AperFunction,NonConductor*%
%ADD12C,0.200000*%
%TD*%
%TA.AperFunction,ComponentPad*%
%ADD13C,1.390000*%
%TD*%
%TA.AperFunction,ComponentPad*%
%ADD14R,1.390000X1.390000*%
%TD*%
%TA.AperFunction,SMDPad,CuDef*%
%ADD15RoundRect,0.250000X-0.350000X-0.450000X0.350000X-0.450000X0.350000X0.450000X-0.350000X0.450000X0*%
%TD*%
%TA.AperFunction,SMDPad,CuDef*%
%ADD16RoundRect,0.250000X0.350000X0.450000X-0.350000X0.450000X-0.350000X-0.450000X0.350000X-0.450000X0*%
%TD*%
%TA.AperFunction,ComponentPad*%
%ADD17R,1.524000X1.524000*%
%TD*%
%TA.AperFunction,ComponentPad*%
%ADD18C,1.524000*%
%TD*%
%TA.AperFunction,SMDPad,CuDef*%
%ADD19RoundRect,0.250000X0.337500X0.475000X-0.337500X0.475000X-0.337500X-0.475000X0.337500X-0.475000X0*%
%TD*%
%TA.AperFunction,SMDPad,CuDef*%
%ADD20R,1.750000X0.950000*%
%TD*%
%TA.AperFunction,SMDPad,CuDef*%
%ADD21R,1.750000X3.250000*%
%TD*%
%TA.AperFunction,SMDPad,CuDef*%
%ADD22R,1.200000X1.200000*%
%TD*%
%TA.AperFunction,ComponentPad*%
%ADD23C,2.286000*%
%TD*%
%TA.AperFunction,ComponentPad*%
%ADD24C,6.000000*%
%TD*%
%TA.AperFunction,HeatsinkPad*%
%ADD25C,6.000000*%
%TD*%
%TA.AperFunction,ViaPad*%
%ADD26C,1.168400*%
%TD*%
%TA.AperFunction,Conductor*%
%ADD27C,0.381000*%
%TD*%
%TA.AperFunction,Conductor*%
%ADD28C,0.889000*%
%TD*%
%TA.AperFunction,Conductor*%
%ADD29C,1.270000*%
%TD*%
%TA.AperFunction,Conductor*%
%ADD30C,0.635000*%
%TD*%
G04 APERTURE END LIST*
D10*
D11*
X116935338Y-97730328D02*
X117863910Y-97730328D01*
X117863910Y-97730328D02*
X117363910Y-98301757D01*
X117363910Y-98301757D02*
X117578195Y-98301757D01*
X117578195Y-98301757D02*
X117721053Y-98373185D01*
X117721053Y-98373185D02*
X117792481Y-98444614D01*
X117792481Y-98444614D02*
X117863910Y-98587471D01*
X117863910Y-98587471D02*
X117863910Y-98944614D01*
X117863910Y-98944614D02*
X117792481Y-99087471D01*
X117792481Y-99087471D02*
X117721053Y-99158900D01*
X117721053Y-99158900D02*
X117578195Y-99230328D01*
X117578195Y-99230328D02*
X117149624Y-99230328D01*
X117149624Y-99230328D02*
X117006767Y-99158900D01*
X117006767Y-99158900D02*
X116935338Y-99087471D01*
X119221052Y-97730328D02*
X118506766Y-97730328D01*
X118506766Y-97730328D02*
X118435338Y-98444614D01*
X118435338Y-98444614D02*
X118506766Y-98373185D01*
X118506766Y-98373185D02*
X118649624Y-98301757D01*
X118649624Y-98301757D02*
X119006766Y-98301757D01*
X119006766Y-98301757D02*
X119149624Y-98373185D01*
X119149624Y-98373185D02*
X119221052Y-98444614D01*
X119221052Y-98444614D02*
X119292481Y-98587471D01*
X119292481Y-98587471D02*
X119292481Y-98944614D01*
X119292481Y-98944614D02*
X119221052Y-99087471D01*
X119221052Y-99087471D02*
X119149624Y-99158900D01*
X119149624Y-99158900D02*
X119006766Y-99230328D01*
X119006766Y-99230328D02*
X118649624Y-99230328D01*
X118649624Y-99230328D02*
X118506766Y-99158900D01*
X118506766Y-99158900D02*
X118435338Y-99087471D01*
X120578195Y-97730328D02*
X120292480Y-97730328D01*
X120292480Y-97730328D02*
X120149623Y-97801757D01*
X120149623Y-97801757D02*
X120078195Y-97873185D01*
X120078195Y-97873185D02*
X119935337Y-98087471D01*
X119935337Y-98087471D02*
X119863909Y-98373185D01*
X119863909Y-98373185D02*
X119863909Y-98944614D01*
X119863909Y-98944614D02*
X119935337Y-99087471D01*
X119935337Y-99087471D02*
X120006766Y-99158900D01*
X120006766Y-99158900D02*
X120149623Y-99230328D01*
X120149623Y-99230328D02*
X120435337Y-99230328D01*
X120435337Y-99230328D02*
X120578195Y-99158900D01*
X120578195Y-99158900D02*
X120649623Y-99087471D01*
X120649623Y-99087471D02*
X120721052Y-98944614D01*
X120721052Y-98944614D02*
X120721052Y-98587471D01*
X120721052Y-98587471D02*
X120649623Y-98444614D01*
X120649623Y-98444614D02*
X120578195Y-98373185D01*
X120578195Y-98373185D02*
X120435337Y-98301757D01*
X120435337Y-98301757D02*
X120149623Y-98301757D01*
X120149623Y-98301757D02*
X120006766Y-98373185D01*
X120006766Y-98373185D02*
X119935337Y-98444614D01*
X119935337Y-98444614D02*
X119863909Y-98587471D01*
X121649623Y-97730328D02*
X121792480Y-97730328D01*
X121792480Y-97730328D02*
X121935337Y-97801757D01*
X121935337Y-97801757D02*
X122006766Y-97873185D01*
X122006766Y-97873185D02*
X122078194Y-98016042D01*
X122078194Y-98016042D02*
X122149623Y-98301757D01*
X122149623Y-98301757D02*
X122149623Y-98658900D01*
X122149623Y-98658900D02*
X122078194Y-98944614D01*
X122078194Y-98944614D02*
X122006766Y-99087471D01*
X122006766Y-99087471D02*
X121935337Y-99158900D01*
X121935337Y-99158900D02*
X121792480Y-99230328D01*
X121792480Y-99230328D02*
X121649623Y-99230328D01*
X121649623Y-99230328D02*
X121506766Y-99158900D01*
X121506766Y-99158900D02*
X121435337Y-99087471D01*
X121435337Y-99087471D02*
X121363908Y-98944614D01*
X121363908Y-98944614D02*
X121292480Y-98658900D01*
X121292480Y-98658900D02*
X121292480Y-98301757D01*
X121292480Y-98301757D02*
X121363908Y-98016042D01*
X121363908Y-98016042D02*
X121435337Y-97873185D01*
X121435337Y-97873185D02*
X121506766Y-97801757D01*
X121506766Y-97801757D02*
X121649623Y-97730328D01*
X122792479Y-99087471D02*
X122863908Y-99158900D01*
X122863908Y-99158900D02*
X122792479Y-99230328D01*
X122792479Y-99230328D02*
X122721051Y-99158900D01*
X122721051Y-99158900D02*
X122792479Y-99087471D01*
X122792479Y-99087471D02*
X122792479Y-99230328D01*
X123792480Y-97730328D02*
X123935337Y-97730328D01*
X123935337Y-97730328D02*
X124078194Y-97801757D01*
X124078194Y-97801757D02*
X124149623Y-97873185D01*
X124149623Y-97873185D02*
X124221051Y-98016042D01*
X124221051Y-98016042D02*
X124292480Y-98301757D01*
X124292480Y-98301757D02*
X124292480Y-98658900D01*
X124292480Y-98658900D02*
X124221051Y-98944614D01*
X124221051Y-98944614D02*
X124149623Y-99087471D01*
X124149623Y-99087471D02*
X124078194Y-99158900D01*
X124078194Y-99158900D02*
X123935337Y-99230328D01*
X123935337Y-99230328D02*
X123792480Y-99230328D01*
X123792480Y-99230328D02*
X123649623Y-99158900D01*
X123649623Y-99158900D02*
X123578194Y-99087471D01*
X123578194Y-99087471D02*
X123506765Y-98944614D01*
X123506765Y-98944614D02*
X123435337Y-98658900D01*
X123435337Y-98658900D02*
X123435337Y-98301757D01*
X123435337Y-98301757D02*
X123506765Y-98016042D01*
X123506765Y-98016042D02*
X123578194Y-97873185D01*
X123578194Y-97873185D02*
X123649623Y-97801757D01*
X123649623Y-97801757D02*
X123792480Y-97730328D01*
X125221051Y-97730328D02*
X125363908Y-97730328D01*
X125363908Y-97730328D02*
X125506765Y-97801757D01*
X125506765Y-97801757D02*
X125578194Y-97873185D01*
X125578194Y-97873185D02*
X125649622Y-98016042D01*
X125649622Y-98016042D02*
X125721051Y-98301757D01*
X125721051Y-98301757D02*
X125721051Y-98658900D01*
X125721051Y-98658900D02*
X125649622Y-98944614D01*
X125649622Y-98944614D02*
X125578194Y-99087471D01*
X125578194Y-99087471D02*
X125506765Y-99158900D01*
X125506765Y-99158900D02*
X125363908Y-99230328D01*
X125363908Y-99230328D02*
X125221051Y-99230328D01*
X125221051Y-99230328D02*
X125078194Y-99158900D01*
X125078194Y-99158900D02*
X125006765Y-99087471D01*
X125006765Y-99087471D02*
X124935336Y-98944614D01*
X124935336Y-98944614D02*
X124863908Y-98658900D01*
X124863908Y-98658900D02*
X124863908Y-98301757D01*
X124863908Y-98301757D02*
X124935336Y-98016042D01*
X124935336Y-98016042D02*
X125006765Y-97873185D01*
X125006765Y-97873185D02*
X125078194Y-97801757D01*
X125078194Y-97801757D02*
X125221051Y-97730328D01*
X126649622Y-97730328D02*
X126792479Y-97730328D01*
X126792479Y-97730328D02*
X126935336Y-97801757D01*
X126935336Y-97801757D02*
X127006765Y-97873185D01*
X127006765Y-97873185D02*
X127078193Y-98016042D01*
X127078193Y-98016042D02*
X127149622Y-98301757D01*
X127149622Y-98301757D02*
X127149622Y-98658900D01*
X127149622Y-98658900D02*
X127078193Y-98944614D01*
X127078193Y-98944614D02*
X127006765Y-99087471D01*
X127006765Y-99087471D02*
X126935336Y-99158900D01*
X126935336Y-99158900D02*
X126792479Y-99230328D01*
X126792479Y-99230328D02*
X126649622Y-99230328D01*
X126649622Y-99230328D02*
X126506765Y-99158900D01*
X126506765Y-99158900D02*
X126435336Y-99087471D01*
X126435336Y-99087471D02*
X126363907Y-98944614D01*
X126363907Y-98944614D02*
X126292479Y-98658900D01*
X126292479Y-98658900D02*
X126292479Y-98301757D01*
X126292479Y-98301757D02*
X126363907Y-98016042D01*
X126363907Y-98016042D02*
X126435336Y-97873185D01*
X126435336Y-97873185D02*
X126506765Y-97801757D01*
X126506765Y-97801757D02*
X126649622Y-97730328D01*
X128078193Y-97730328D02*
X128221050Y-97730328D01*
X128221050Y-97730328D02*
X128363907Y-97801757D01*
X128363907Y-97801757D02*
X128435336Y-97873185D01*
X128435336Y-97873185D02*
X128506764Y-98016042D01*
X128506764Y-98016042D02*
X128578193Y-98301757D01*
X128578193Y-98301757D02*
X128578193Y-98658900D01*
X128578193Y-98658900D02*
X128506764Y-98944614D01*
X128506764Y-98944614D02*
X128435336Y-99087471D01*
X128435336Y-99087471D02*
X128363907Y-99158900D01*
X128363907Y-99158900D02*
X128221050Y-99230328D01*
X128221050Y-99230328D02*
X128078193Y-99230328D01*
X128078193Y-99230328D02*
X127935336Y-99158900D01*
X127935336Y-99158900D02*
X127863907Y-99087471D01*
X127863907Y-99087471D02*
X127792478Y-98944614D01*
X127792478Y-98944614D02*
X127721050Y-98658900D01*
X127721050Y-98658900D02*
X127721050Y-98301757D01*
X127721050Y-98301757D02*
X127792478Y-98016042D01*
X127792478Y-98016042D02*
X127863907Y-97873185D01*
X127863907Y-97873185D02*
X127935336Y-97801757D01*
X127935336Y-97801757D02*
X128078193Y-97730328D01*
X130363906Y-99230328D02*
X130363906Y-98230328D01*
X130363906Y-98373185D02*
X130435335Y-98301757D01*
X130435335Y-98301757D02*
X130578192Y-98230328D01*
X130578192Y-98230328D02*
X130792478Y-98230328D01*
X130792478Y-98230328D02*
X130935335Y-98301757D01*
X130935335Y-98301757D02*
X131006764Y-98444614D01*
X131006764Y-98444614D02*
X131006764Y-99230328D01*
X131006764Y-98444614D02*
X131078192Y-98301757D01*
X131078192Y-98301757D02*
X131221049Y-98230328D01*
X131221049Y-98230328D02*
X131435335Y-98230328D01*
X131435335Y-98230328D02*
X131578192Y-98301757D01*
X131578192Y-98301757D02*
X131649621Y-98444614D01*
X131649621Y-98444614D02*
X131649621Y-99230328D01*
X132363906Y-99230328D02*
X132363906Y-98230328D01*
X132363906Y-97730328D02*
X132292478Y-97801757D01*
X132292478Y-97801757D02*
X132363906Y-97873185D01*
X132363906Y-97873185D02*
X132435335Y-97801757D01*
X132435335Y-97801757D02*
X132363906Y-97730328D01*
X132363906Y-97730328D02*
X132363906Y-97873185D01*
X133292478Y-99230328D02*
X133149621Y-99158900D01*
X133149621Y-99158900D02*
X133078192Y-99016042D01*
X133078192Y-99016042D02*
X133078192Y-97730328D01*
X133792478Y-99158900D02*
X133935335Y-99230328D01*
X133935335Y-99230328D02*
X134221049Y-99230328D01*
X134221049Y-99230328D02*
X134363906Y-99158900D01*
X134363906Y-99158900D02*
X134435335Y-99016042D01*
X134435335Y-99016042D02*
X134435335Y-98944614D01*
X134435335Y-98944614D02*
X134363906Y-98801757D01*
X134363906Y-98801757D02*
X134221049Y-98730328D01*
X134221049Y-98730328D02*
X134006764Y-98730328D01*
X134006764Y-98730328D02*
X133863906Y-98658900D01*
X133863906Y-98658900D02*
X133792478Y-98516042D01*
X133792478Y-98516042D02*
X133792478Y-98444614D01*
X133792478Y-98444614D02*
X133863906Y-98301757D01*
X133863906Y-98301757D02*
X134006764Y-98230328D01*
X134006764Y-98230328D02*
X134221049Y-98230328D01*
X134221049Y-98230328D02*
X134363906Y-98301757D01*
D12*
X83693000Y-87876000D02*
X83693000Y-95709420D01*
X174117000Y-95709420D02*
X174117000Y-87876000D01*
X83693000Y-95123000D02*
X174117000Y-95123000D01*
X83693000Y-95123000D02*
X174117000Y-95123000D01*
X83693000Y-95123000D02*
X84819504Y-94536579D01*
X83693000Y-95123000D02*
X84819504Y-95709421D01*
X174117000Y-95123000D02*
X172990496Y-95709421D01*
X174117000Y-95123000D02*
X172990496Y-94536579D01*
X83693000Y-95123000D02*
X174117000Y-95123000D01*
X83693000Y-95123000D02*
X174117000Y-95123000D01*
X83693000Y-95123000D02*
X84819504Y-94536579D01*
X83693000Y-95123000D02*
X84819504Y-95709421D01*
X174117000Y-95123000D02*
X172990496Y-95709421D01*
X174117000Y-95123000D02*
X172990496Y-94536579D01*
D10*
D11*
X73594185Y-66753283D02*
X73522757Y-66681855D01*
X73522757Y-66681855D02*
X73451328Y-66538998D01*
X73451328Y-66538998D02*
X73451328Y-66181855D01*
X73451328Y-66181855D02*
X73522757Y-66038998D01*
X73522757Y-66038998D02*
X73594185Y-65967569D01*
X73594185Y-65967569D02*
X73737042Y-65896140D01*
X73737042Y-65896140D02*
X73879900Y-65896140D01*
X73879900Y-65896140D02*
X74094185Y-65967569D01*
X74094185Y-65967569D02*
X74951328Y-66824712D01*
X74951328Y-66824712D02*
X74951328Y-65896140D01*
X73451328Y-65396141D02*
X73451328Y-64467569D01*
X73451328Y-64467569D02*
X74022757Y-64967569D01*
X74022757Y-64967569D02*
X74022757Y-64753284D01*
X74022757Y-64753284D02*
X74094185Y-64610427D01*
X74094185Y-64610427D02*
X74165614Y-64538998D01*
X74165614Y-64538998D02*
X74308471Y-64467569D01*
X74308471Y-64467569D02*
X74665614Y-64467569D01*
X74665614Y-64467569D02*
X74808471Y-64538998D01*
X74808471Y-64538998D02*
X74879900Y-64610427D01*
X74879900Y-64610427D02*
X74951328Y-64753284D01*
X74951328Y-64753284D02*
X74951328Y-65181855D01*
X74951328Y-65181855D02*
X74879900Y-65324712D01*
X74879900Y-65324712D02*
X74808471Y-65396141D01*
X74951328Y-63038998D02*
X74951328Y-63896141D01*
X74951328Y-63467570D02*
X73451328Y-63467570D01*
X73451328Y-63467570D02*
X73665614Y-63610427D01*
X73665614Y-63610427D02*
X73808471Y-63753284D01*
X73808471Y-63753284D02*
X73879900Y-63896141D01*
X73451328Y-62110427D02*
X73451328Y-61967570D01*
X73451328Y-61967570D02*
X73522757Y-61824713D01*
X73522757Y-61824713D02*
X73594185Y-61753285D01*
X73594185Y-61753285D02*
X73737042Y-61681856D01*
X73737042Y-61681856D02*
X74022757Y-61610427D01*
X74022757Y-61610427D02*
X74379900Y-61610427D01*
X74379900Y-61610427D02*
X74665614Y-61681856D01*
X74665614Y-61681856D02*
X74808471Y-61753285D01*
X74808471Y-61753285D02*
X74879900Y-61824713D01*
X74879900Y-61824713D02*
X74951328Y-61967570D01*
X74951328Y-61967570D02*
X74951328Y-62110427D01*
X74951328Y-62110427D02*
X74879900Y-62253285D01*
X74879900Y-62253285D02*
X74808471Y-62324713D01*
X74808471Y-62324713D02*
X74665614Y-62396142D01*
X74665614Y-62396142D02*
X74379900Y-62467570D01*
X74379900Y-62467570D02*
X74022757Y-62467570D01*
X74022757Y-62467570D02*
X73737042Y-62396142D01*
X73737042Y-62396142D02*
X73594185Y-62324713D01*
X73594185Y-62324713D02*
X73522757Y-62253285D01*
X73522757Y-62253285D02*
X73451328Y-62110427D01*
X74808471Y-60967571D02*
X74879900Y-60896142D01*
X74879900Y-60896142D02*
X74951328Y-60967571D01*
X74951328Y-60967571D02*
X74879900Y-61038999D01*
X74879900Y-61038999D02*
X74808471Y-60967571D01*
X74808471Y-60967571D02*
X74951328Y-60967571D01*
X73451328Y-59967570D02*
X73451328Y-59824713D01*
X73451328Y-59824713D02*
X73522757Y-59681856D01*
X73522757Y-59681856D02*
X73594185Y-59610428D01*
X73594185Y-59610428D02*
X73737042Y-59538999D01*
X73737042Y-59538999D02*
X74022757Y-59467570D01*
X74022757Y-59467570D02*
X74379900Y-59467570D01*
X74379900Y-59467570D02*
X74665614Y-59538999D01*
X74665614Y-59538999D02*
X74808471Y-59610428D01*
X74808471Y-59610428D02*
X74879900Y-59681856D01*
X74879900Y-59681856D02*
X74951328Y-59824713D01*
X74951328Y-59824713D02*
X74951328Y-59967570D01*
X74951328Y-59967570D02*
X74879900Y-60110428D01*
X74879900Y-60110428D02*
X74808471Y-60181856D01*
X74808471Y-60181856D02*
X74665614Y-60253285D01*
X74665614Y-60253285D02*
X74379900Y-60324713D01*
X74379900Y-60324713D02*
X74022757Y-60324713D01*
X74022757Y-60324713D02*
X73737042Y-60253285D01*
X73737042Y-60253285D02*
X73594185Y-60181856D01*
X73594185Y-60181856D02*
X73522757Y-60110428D01*
X73522757Y-60110428D02*
X73451328Y-59967570D01*
X73451328Y-58538999D02*
X73451328Y-58396142D01*
X73451328Y-58396142D02*
X73522757Y-58253285D01*
X73522757Y-58253285D02*
X73594185Y-58181857D01*
X73594185Y-58181857D02*
X73737042Y-58110428D01*
X73737042Y-58110428D02*
X74022757Y-58038999D01*
X74022757Y-58038999D02*
X74379900Y-58038999D01*
X74379900Y-58038999D02*
X74665614Y-58110428D01*
X74665614Y-58110428D02*
X74808471Y-58181857D01*
X74808471Y-58181857D02*
X74879900Y-58253285D01*
X74879900Y-58253285D02*
X74951328Y-58396142D01*
X74951328Y-58396142D02*
X74951328Y-58538999D01*
X74951328Y-58538999D02*
X74879900Y-58681857D01*
X74879900Y-58681857D02*
X74808471Y-58753285D01*
X74808471Y-58753285D02*
X74665614Y-58824714D01*
X74665614Y-58824714D02*
X74379900Y-58896142D01*
X74379900Y-58896142D02*
X74022757Y-58896142D01*
X74022757Y-58896142D02*
X73737042Y-58824714D01*
X73737042Y-58824714D02*
X73594185Y-58753285D01*
X73594185Y-58753285D02*
X73522757Y-58681857D01*
X73522757Y-58681857D02*
X73451328Y-58538999D01*
X73451328Y-57110428D02*
X73451328Y-56967571D01*
X73451328Y-56967571D02*
X73522757Y-56824714D01*
X73522757Y-56824714D02*
X73594185Y-56753286D01*
X73594185Y-56753286D02*
X73737042Y-56681857D01*
X73737042Y-56681857D02*
X74022757Y-56610428D01*
X74022757Y-56610428D02*
X74379900Y-56610428D01*
X74379900Y-56610428D02*
X74665614Y-56681857D01*
X74665614Y-56681857D02*
X74808471Y-56753286D01*
X74808471Y-56753286D02*
X74879900Y-56824714D01*
X74879900Y-56824714D02*
X74951328Y-56967571D01*
X74951328Y-56967571D02*
X74951328Y-57110428D01*
X74951328Y-57110428D02*
X74879900Y-57253286D01*
X74879900Y-57253286D02*
X74808471Y-57324714D01*
X74808471Y-57324714D02*
X74665614Y-57396143D01*
X74665614Y-57396143D02*
X74379900Y-57467571D01*
X74379900Y-57467571D02*
X74022757Y-57467571D01*
X74022757Y-57467571D02*
X73737042Y-57396143D01*
X73737042Y-57396143D02*
X73594185Y-57324714D01*
X73594185Y-57324714D02*
X73522757Y-57253286D01*
X73522757Y-57253286D02*
X73451328Y-57110428D01*
X73451328Y-55681857D02*
X73451328Y-55539000D01*
X73451328Y-55539000D02*
X73522757Y-55396143D01*
X73522757Y-55396143D02*
X73594185Y-55324715D01*
X73594185Y-55324715D02*
X73737042Y-55253286D01*
X73737042Y-55253286D02*
X74022757Y-55181857D01*
X74022757Y-55181857D02*
X74379900Y-55181857D01*
X74379900Y-55181857D02*
X74665614Y-55253286D01*
X74665614Y-55253286D02*
X74808471Y-55324715D01*
X74808471Y-55324715D02*
X74879900Y-55396143D01*
X74879900Y-55396143D02*
X74951328Y-55539000D01*
X74951328Y-55539000D02*
X74951328Y-55681857D01*
X74951328Y-55681857D02*
X74879900Y-55824715D01*
X74879900Y-55824715D02*
X74808471Y-55896143D01*
X74808471Y-55896143D02*
X74665614Y-55967572D01*
X74665614Y-55967572D02*
X74379900Y-56039000D01*
X74379900Y-56039000D02*
X74022757Y-56039000D01*
X74022757Y-56039000D02*
X73737042Y-55967572D01*
X73737042Y-55967572D02*
X73594185Y-55896143D01*
X73594185Y-55896143D02*
X73522757Y-55824715D01*
X73522757Y-55824715D02*
X73451328Y-55681857D01*
X74951328Y-53396144D02*
X73951328Y-53396144D01*
X74094185Y-53396144D02*
X74022757Y-53324715D01*
X74022757Y-53324715D02*
X73951328Y-53181858D01*
X73951328Y-53181858D02*
X73951328Y-52967572D01*
X73951328Y-52967572D02*
X74022757Y-52824715D01*
X74022757Y-52824715D02*
X74165614Y-52753287D01*
X74165614Y-52753287D02*
X74951328Y-52753287D01*
X74165614Y-52753287D02*
X74022757Y-52681858D01*
X74022757Y-52681858D02*
X73951328Y-52539001D01*
X73951328Y-52539001D02*
X73951328Y-52324715D01*
X73951328Y-52324715D02*
X74022757Y-52181858D01*
X74022757Y-52181858D02*
X74165614Y-52110429D01*
X74165614Y-52110429D02*
X74951328Y-52110429D01*
X74951328Y-51396144D02*
X73951328Y-51396144D01*
X73451328Y-51396144D02*
X73522757Y-51467572D01*
X73522757Y-51467572D02*
X73594185Y-51396144D01*
X73594185Y-51396144D02*
X73522757Y-51324715D01*
X73522757Y-51324715D02*
X73451328Y-51396144D01*
X73451328Y-51396144D02*
X73594185Y-51396144D01*
X74951328Y-50467572D02*
X74879900Y-50610429D01*
X74879900Y-50610429D02*
X74737042Y-50681858D01*
X74737042Y-50681858D02*
X73451328Y-50681858D01*
X74879900Y-49967572D02*
X74951328Y-49824715D01*
X74951328Y-49824715D02*
X74951328Y-49539001D01*
X74951328Y-49539001D02*
X74879900Y-49396144D01*
X74879900Y-49396144D02*
X74737042Y-49324715D01*
X74737042Y-49324715D02*
X74665614Y-49324715D01*
X74665614Y-49324715D02*
X74522757Y-49396144D01*
X74522757Y-49396144D02*
X74451328Y-49539001D01*
X74451328Y-49539001D02*
X74451328Y-49753287D01*
X74451328Y-49753287D02*
X74379900Y-49896144D01*
X74379900Y-49896144D02*
X74237042Y-49967572D01*
X74237042Y-49967572D02*
X74165614Y-49967572D01*
X74165614Y-49967572D02*
X74022757Y-49896144D01*
X74022757Y-49896144D02*
X73951328Y-49753287D01*
X73951328Y-49753287D02*
X73951328Y-49539001D01*
X73951328Y-49539001D02*
X74022757Y-49396144D01*
D12*
X83193000Y-87376000D02*
X75486580Y-87376000D01*
X75486580Y-28702000D02*
X83193000Y-28702000D01*
X76073000Y-87376000D02*
X76073000Y-28702000D01*
X76073000Y-87376000D02*
X76073000Y-28702000D01*
X76073000Y-87376000D02*
X75486579Y-86249496D01*
X76073000Y-87376000D02*
X76659421Y-86249496D01*
X76073000Y-28702000D02*
X76659421Y-29828504D01*
X76073000Y-28702000D02*
X75486579Y-29828504D01*
X76073000Y-87376000D02*
X76073000Y-28702000D01*
X76073000Y-87376000D02*
X76073000Y-28702000D01*
X76073000Y-87376000D02*
X75486579Y-86249496D01*
X76073000Y-87376000D02*
X76659421Y-86249496D01*
X76073000Y-28702000D02*
X76659421Y-29828504D01*
X76073000Y-28702000D02*
X75486579Y-29828504D01*
D13*
%TO.P,J7,12,12*%
%TO.N,+3V3*%
X101092000Y-76708000D03*
%TO.P,J7,11,11*%
%TO.N,GND*%
X103632000Y-76708000D03*
%TO.P,J7,10,10*%
%TO.N,/FPGA/PMOD_A_7*%
X106172000Y-76708000D03*
%TO.P,J7,09,09*%
%TO.N,/FPGA/PMOD_A_6*%
X108712000Y-76708000D03*
%TO.P,J7,08,08*%
%TO.N,/FPGA/PMOD_A_5*%
X111252000Y-76708000D03*
%TO.P,J7,07,07*%
%TO.N,/FPGA/PMOD_A_4*%
X113792000Y-76708000D03*
%TO.P,J7,06,06*%
%TO.N,+3V3*%
X101092000Y-74168000D03*
%TO.P,J7,05,05*%
%TO.N,GND*%
X103632000Y-74168000D03*
%TO.P,J7,04,04*%
%TO.N,/FPGA/PMOD_A_3*%
X106172000Y-74168000D03*
%TO.P,J7,03,03*%
%TO.N,/FPGA/PMOD_A_2*%
X108712000Y-74168000D03*
%TO.P,J7,02,02*%
%TO.N,/FPGA/PMOD_A_1*%
X111252000Y-74168000D03*
D14*
%TO.P,J7,01,01*%
%TO.N,/FPGA/PMOD_A_0*%
X113792000Y-74168000D03*
%TD*%
D15*
%TO.P,R1,1*%
%TO.N,+3V3*%
X154083000Y-83947000D03*
%TO.P,R1,2*%
%TO.N,Net-(D1-Pad2)*%
X156083000Y-83947000D03*
%TD*%
D16*
%TO.P,R4,1*%
%TO.N,/FPGA/Fiber_A_TX*%
X110220000Y-46736000D03*
%TO.P,R4,2*%
%TO.N,GND*%
X108220000Y-46736000D03*
%TD*%
D17*
%TO.P,J1,1,VCCT*%
%TO.N,Net-(J1-VCCT)*%
X122555000Y-40163500D03*
D18*
%TO.P,J1,3,VEET*%
%TO.N,GND*%
X127635000Y-40163500D03*
%TO.P,J1,4,Data_in*%
%TO.N,/FPGA/Fiber_B_TX*%
X130175000Y-40163500D03*
%TO.P,J1,5,HP*%
%TO.N,Net-(J1-HP-Pad5)*%
X130175000Y-32543500D03*
%TO.P,J1,8,HP*%
X122555000Y-32543500D03*
%TD*%
D19*
%TO.P,C7,1*%
%TO.N,+3V3*%
X157247500Y-75819000D03*
%TO.P,C7,2*%
%TO.N,GND*%
X155172500Y-75819000D03*
%TD*%
D20*
%TO.P,U1,1,IN*%
%TO.N,+5VP*%
X160045000Y-71106000D03*
%TO.P,U1,2,GND*%
%TO.N,GND*%
X160045000Y-73406000D03*
%TO.P,U1,3,OUT*%
%TO.N,+3V3*%
X160045000Y-75706000D03*
D21*
%TO.P,U1,4,TAB*%
%TO.N,GND*%
X166345000Y-73406000D03*
%TD*%
D17*
%TO.P,J5,1,VCCT*%
%TO.N,Net-(J5-VCCT)*%
X102209600Y-40197500D03*
D18*
%TO.P,J5,3,VEET*%
%TO.N,GND*%
X107289600Y-40197500D03*
%TO.P,J5,4,Data_in*%
%TO.N,/FPGA/Fiber_A_TX*%
X109829600Y-40197500D03*
%TO.P,J5,5,HP*%
%TO.N,Net-(J5-HP-Pad5)*%
X109829600Y-32577500D03*
%TO.P,J5,8,HP*%
X102209600Y-32577500D03*
%TD*%
D22*
%TO.P,D1,1*%
%TO.N,GND*%
X160451000Y-83947000D03*
%TO.P,D1,2*%
%TO.N,Net-(D1-Pad2)*%
X158351000Y-83947000D03*
%TD*%
D17*
%TO.P,J4,1,Data_Out*%
%TO.N,/FPGA/Fiber_C_RX*%
X152511000Y-40163500D03*
D18*
%TO.P,J4,2,VEER*%
%TO.N,GND*%
X155051000Y-40163500D03*
%TO.P,J4,3,VCCR*%
%TO.N,Net-(J4-VCCR)*%
X157591000Y-40163500D03*
%TO.P,J4,4,NC*%
%TO.N,unconnected-(J4-NC-Pad4)*%
X160131000Y-40163500D03*
%TO.P,J4,5,HP*%
%TO.N,Net-(J4-HP-Pad5)*%
X160131000Y-32543500D03*
%TO.P,J4,8,HP*%
X152511000Y-32543500D03*
%TD*%
D16*
%TO.P,R2,1*%
%TO.N,/FPGA/Fiber_B_TX*%
X130175000Y-46609000D03*
%TO.P,R2,2*%
%TO.N,GND*%
X128175000Y-46609000D03*
%TD*%
D14*
%TO.P,J8,01,01*%
%TO.N,/FPGA/PMOD_B_0*%
X138015500Y-74168000D03*
D13*
%TO.P,J8,02,02*%
%TO.N,/FPGA/PMOD_B_1*%
X135475500Y-74168000D03*
%TO.P,J8,03,03*%
%TO.N,/FPGA/PMOD_B_2*%
X132935500Y-74168000D03*
%TO.P,J8,04,04*%
%TO.N,/FPGA/PMOD_B_3*%
X130395500Y-74168000D03*
%TO.P,J8,05,05*%
%TO.N,GND*%
X127855500Y-74168000D03*
%TO.P,J8,06,06*%
%TO.N,+3V3*%
X125315500Y-74168000D03*
%TO.P,J8,07,07*%
%TO.N,/FPGA/PMOD_B_4*%
X138015500Y-76708000D03*
%TO.P,J8,08,08*%
%TO.N,/FPGA/PMOD_B_5*%
X135475500Y-76708000D03*
%TO.P,J8,09,09*%
%TO.N,/FPGA/PMOD_B_6*%
X132935500Y-76708000D03*
%TO.P,J8,10,10*%
%TO.N,/FPGA/PMOD_B_7*%
X130395500Y-76708000D03*
%TO.P,J8,11,11*%
%TO.N,GND*%
X127855500Y-76708000D03*
%TO.P,J8,12,12*%
%TO.N,+3V3*%
X125315500Y-76708000D03*
%TD*%
D23*
%TO.P,U2,1,PIO1*%
%TO.N,unconnected-(U2-PIO1-Pad1)*%
X101600000Y-67340000D03*
%TO.P,U2,2,PIO2*%
%TO.N,/FPGA/PMOD_A_3*%
X104140000Y-67340000D03*
%TO.P,U2,3,PIO3*%
%TO.N,/FPGA/PMOD_A_7*%
X106680000Y-67340000D03*
%TO.P,U2,4,PIO4*%
%TO.N,/FPGA/PMOD_A_2*%
X109220000Y-67340000D03*
%TO.P,U2,5,PIO5*%
%TO.N,/FPGA/PMOD_A_6*%
X111760000Y-67340000D03*
%TO.P,U2,6,PIO6*%
%TO.N,/FPGA/PMOD_A_1*%
X114300000Y-67340000D03*
%TO.P,U2,7,PIO7*%
%TO.N,/FPGA/PMOD_A_5*%
X116840000Y-67340000D03*
%TO.P,U2,8,PIO8*%
%TO.N,/FPGA/PMOD_A_0*%
X119380000Y-67340000D03*
%TO.P,U2,9,PIO9*%
%TO.N,/FPGA/PMOD_A_4*%
X121920000Y-67340000D03*
%TO.P,U2,16,PIO16*%
%TO.N,/FPGA/PMOD_B_3*%
X139700000Y-67340000D03*
%TO.P,U2,17,PIO17*%
%TO.N,/FPGA/PMOD_B_7*%
X142240000Y-67340000D03*
%TO.P,U2,18,PIO18*%
%TO.N,/FPGA/PMOD_B_2*%
X144780000Y-67340000D03*
%TO.P,U2,19,PIO19*%
%TO.N,/FPGA/PMOD_B_6*%
X147320000Y-67340000D03*
%TO.P,U2,20,PIO20*%
%TO.N,/FPGA/PMOD_B_1*%
X149860000Y-67340000D03*
%TO.P,U2,21,PIO21*%
%TO.N,/FPGA/PMOD_B_5*%
X152400000Y-67340000D03*
%TO.P,U2,22,PIO22*%
%TO.N,/FPGA/PMOD_B_0*%
X154940000Y-67340000D03*
%TO.P,U2,23,PIO23*%
%TO.N,/FPGA/PMOD_B_4*%
X157480000Y-67340000D03*
%TO.P,U2,24,VU*%
%TO.N,+5VP*%
X160020000Y-67340000D03*
%TO.P,U2,25,GND*%
%TO.N,GND*%
X160020000Y-52100000D03*
%TO.P,U2,26,PIO26*%
%TO.N,unconnected-(U2-PIO26-Pad26)*%
X157480000Y-52100000D03*
%TO.P,U2,27,PIO27*%
%TO.N,unconnected-(U2-PIO27-Pad27)*%
X154940000Y-52100000D03*
%TO.P,U2,28,PIO28*%
%TO.N,/FPGA/Fiber_C_RX*%
X152400000Y-52100000D03*
%TO.P,U2,29,PIO29*%
%TO.N,/FPGA/Fiber_C_TX*%
X149860000Y-52100000D03*
%TO.P,U2,30,PIO30*%
%TO.N,unconnected-(U2-PIO30-Pad30)*%
X147320000Y-52100000D03*
%TO.P,U2,31,PIO31*%
%TO.N,unconnected-(U2-PIO31-Pad31)*%
X144780000Y-52100000D03*
%TO.P,U2,32,AIN32*%
%TO.N,unconnected-(U2-AIN32-Pad32)*%
X142240000Y-52100000D03*
%TO.P,U2,33,AIN33*%
%TO.N,unconnected-(U2-AIN33-Pad33)*%
X139700000Y-52100000D03*
%TO.P,U2,40,PIO40*%
%TO.N,/FPGA/Fiber_B_RX*%
X121920000Y-52100000D03*
%TO.P,U2,41,PIO41*%
%TO.N,/FPGA/Fiber_B_TX*%
X119380000Y-52100000D03*
%TO.P,U2,42,PIO42*%
%TO.N,unconnected-(U2-PIO42-Pad42)*%
X116840000Y-52100000D03*
%TO.P,U2,43,PIO43*%
%TO.N,/FPGA/Fiber_A_RX*%
X114300000Y-52100000D03*
%TO.P,U2,44,PIO44*%
%TO.N,/FPGA/Fiber_A_TX*%
X111760000Y-52100000D03*
%TO.P,U2,45,PIO45*%
%TO.N,unconnected-(U2-PIO45-Pad45)*%
X109220000Y-52100000D03*
%TO.P,U2,46,PIO46*%
%TO.N,unconnected-(U2-PIO46-Pad46)*%
X106680000Y-52100000D03*
%TO.P,U2,47,PIO47*%
%TO.N,unconnected-(U2-PIO47-Pad47)*%
X104140000Y-52100000D03*
%TO.P,U2,48,PIO48*%
%TO.N,unconnected-(U2-PIO48-Pad48)*%
X101600000Y-52100000D03*
%TD*%
D17*
%TO.P,J2,1,Data_Out*%
%TO.N,/FPGA/Fiber_B_RX*%
X132223000Y-40163500D03*
D18*
%TO.P,J2,2,VEER*%
%TO.N,GND*%
X134763000Y-40163500D03*
%TO.P,J2,3,VCCR*%
%TO.N,Net-(J2-VCCR)*%
X137303000Y-40163500D03*
%TO.P,J2,4,NC*%
%TO.N,unconnected-(J2-NC-Pad4)*%
X139843000Y-40163500D03*
%TO.P,J2,5,HP*%
%TO.N,Net-(J2-HP-Pad5)*%
X139843000Y-32543500D03*
%TO.P,J2,8,HP*%
X132223000Y-32543500D03*
%TD*%
D17*
%TO.P,J6,1,Data_Out*%
%TO.N,/FPGA/Fiber_A_RX*%
X112395000Y-40197500D03*
D18*
%TO.P,J6,2,VEER*%
%TO.N,GND*%
X114935000Y-40197500D03*
%TO.P,J6,3,VCCR*%
%TO.N,Net-(J6-VCCR)*%
X117475000Y-40197500D03*
%TO.P,J6,4,NC*%
%TO.N,unconnected-(J6-NC-Pad4)*%
X120015000Y-40197500D03*
%TO.P,J6,5,HP*%
%TO.N,Net-(J6-HP-Pad5)*%
X120015000Y-32577500D03*
%TO.P,J6,8,HP*%
X112395000Y-32577500D03*
%TD*%
D17*
%TO.P,J3,1,VCCT*%
%TO.N,Net-(J3-VCCT)*%
X142335000Y-40163500D03*
D18*
%TO.P,J3,3,VEET*%
%TO.N,GND*%
X147415000Y-40163500D03*
%TO.P,J3,4,Data_in*%
%TO.N,/FPGA/Fiber_C_TX*%
X149955000Y-40163500D03*
%TO.P,J3,5,HP*%
%TO.N,Net-(J3-HP-Pad5)*%
X149955000Y-32543500D03*
%TO.P,J3,8,HP*%
X142335000Y-32543500D03*
%TD*%
D19*
%TO.P,C8,1*%
%TO.N,+5VP*%
X159914500Y-63500000D03*
%TO.P,C8,2*%
%TO.N,GND*%
X157839500Y-63500000D03*
%TD*%
D16*
%TO.P,R3,1*%
%TO.N,/FPGA/Fiber_C_TX*%
X149844000Y-47498000D03*
%TO.P,R3,2*%
%TO.N,GND*%
X147844000Y-47498000D03*
%TD*%
D24*
%TO.P,H2,1*%
%TO.N,GND*%
X167640000Y-36927000D03*
%TD*%
%TO.P,H3,1*%
%TO.N,GND*%
X89662002Y-36546000D03*
%TD*%
%TO.P,H1,1*%
%TO.N,GND*%
X89662002Y-80996000D03*
%TD*%
D25*
%TO.P,H4,1*%
%TO.N,GND*%
X167640000Y-82042000D03*
%TD*%
D26*
%TO.N,GND*%
X157226000Y-73533000D03*
X155067000Y-74041000D03*
X162830000Y-83947000D03*
%TO.N,+3V3*%
X147701000Y-32893000D03*
X127762000Y-33020000D03*
X107569000Y-32893000D03*
X137668000Y-32893000D03*
X157607000Y-33020000D03*
X117713000Y-32893000D03*
%TO.N,unconnected-(U2-PIO30-Pad30)*%
X167894000Y-50546000D03*
%TO.N,unconnected-(U2-PIO26-Pad26)*%
X167894000Y-48006000D03*
%TO.N,unconnected-(U2-PIO27-Pad27)*%
X167894000Y-45466000D03*
%TO.N,unconnected-(U2-PIO47-Pad47)*%
X89712800Y-45669200D03*
%TO.N,unconnected-(U2-PIO48-Pad48)*%
X89712800Y-42494200D03*
%TO.N,unconnected-(U2-PIO46-Pad46)*%
X89712800Y-48336200D03*
%TD*%
D27*
%TO.N,/FPGA/PMOD_B_5*%
X135475500Y-76864500D02*
X136652000Y-75688000D01*
X136652000Y-75688000D02*
X136652000Y-73279000D01*
X136652000Y-73279000D02*
X137287000Y-72644000D01*
X137287000Y-72644000D02*
X149860000Y-72644000D01*
X149860000Y-72644000D02*
X152400000Y-70104000D01*
X152400000Y-70104000D02*
X152400000Y-67340000D01*
%TO.N,/FPGA/PMOD_B_4*%
X138015500Y-76864500D02*
X138299000Y-76581000D01*
X138299000Y-76581000D02*
X150495000Y-76581000D01*
X150495000Y-76581000D02*
X157480000Y-69596000D01*
X157480000Y-69596000D02*
X157480000Y-67340000D01*
%TO.N,/FPGA/PMOD_B_7*%
X130395500Y-76864500D02*
X131699000Y-75561000D01*
X131699000Y-75561000D02*
X131699000Y-70358000D01*
X132715000Y-69342000D02*
X141859000Y-69342000D01*
X131699000Y-70358000D02*
X132715000Y-69342000D01*
X141859000Y-69342000D02*
X142240000Y-68961000D01*
X142240000Y-68961000D02*
X142240000Y-67340000D01*
%TO.N,unconnected-(U2-PIO27-Pad27)*%
X154940000Y-52100000D02*
X154940000Y-50038000D01*
X154940000Y-50038000D02*
X158496000Y-46482000D01*
X158496000Y-46482000D02*
X167767000Y-46482000D01*
X167767000Y-46482000D02*
X167894000Y-46355000D01*
X167894000Y-46355000D02*
X167894000Y-45974000D01*
%TO.N,/FPGA/PMOD_A_4*%
X113758500Y-77118500D02*
X116840000Y-74037000D01*
X116840000Y-74037000D02*
X116840000Y-72517000D01*
X116840000Y-72517000D02*
X121920000Y-67437000D01*
X121920000Y-67437000D02*
X121920000Y-67340000D01*
%TO.N,/FPGA/PMOD_A_0*%
X113758500Y-74578500D02*
X114169000Y-74168000D01*
X114169000Y-74168000D02*
X114169000Y-72648000D01*
X114169000Y-72648000D02*
X119380000Y-67437000D01*
X119380000Y-67437000D02*
X119380000Y-67340000D01*
%TO.N,/FPGA/PMOD_A_3*%
X106138500Y-74578500D02*
X106172000Y-74545000D01*
X106172000Y-74545000D02*
X106172000Y-73025000D01*
X106172000Y-73025000D02*
X104140000Y-70993000D01*
X104140000Y-70993000D02*
X104140000Y-67340000D01*
%TO.N,/FPGA/PMOD_A_1*%
X111218500Y-74578500D02*
X111218500Y-71280500D01*
X111218500Y-71280500D02*
X114300000Y-68199000D01*
X114300000Y-68199000D02*
X114300000Y-67340000D01*
%TO.N,/FPGA/PMOD_A_6*%
X108678500Y-77118500D02*
X109982000Y-75815000D01*
X109982000Y-75815000D02*
X109982000Y-70866000D01*
X109982000Y-70866000D02*
X111760000Y-69088000D01*
X111760000Y-69088000D02*
X111760000Y-67340000D01*
%TO.N,/FPGA/PMOD_A_2*%
X108678500Y-74578500D02*
X108678500Y-70137500D01*
X109220000Y-69596000D02*
X109220000Y-67340000D01*
X108678500Y-70137500D02*
X109220000Y-69596000D01*
%TO.N,/FPGA/PMOD_A_5*%
X111218500Y-77118500D02*
X112522000Y-75815000D01*
X112522000Y-75815000D02*
X112522000Y-72263000D01*
X112522000Y-72263000D02*
X116840000Y-67945000D01*
X116840000Y-67945000D02*
X116840000Y-67340000D01*
D28*
%TO.N,+5VP*%
X160045000Y-71106000D02*
X160045000Y-67365000D01*
D27*
X160045000Y-67365000D02*
X160020000Y-67340000D01*
X159914500Y-67234500D02*
X160020000Y-67340000D01*
X159914500Y-63500000D02*
X159914500Y-67234500D01*
%TO.N,GND*%
X155172500Y-75819000D02*
X155172500Y-74146500D01*
X160045000Y-73406000D02*
X157353000Y-73406000D01*
X157353000Y-73406000D02*
X157226000Y-73533000D01*
X155172500Y-74146500D02*
X155067000Y-74041000D01*
X160451000Y-83947000D02*
X162830000Y-83947000D01*
%TO.N,/FPGA/Fiber_B_TX*%
X130175000Y-46609000D02*
X130175000Y-40163500D01*
X119380000Y-50292000D02*
X120142000Y-49530000D01*
X128905000Y-49530000D02*
X130175000Y-48260000D01*
X120142000Y-49530000D02*
X128905000Y-49530000D01*
X130175000Y-48260000D02*
X130175000Y-46609000D01*
X119380000Y-52100000D02*
X119380000Y-50292000D01*
%TO.N,/FPGA/Fiber_A_TX*%
X110379000Y-40229500D02*
X110347000Y-40197500D01*
X111760000Y-52100000D02*
X111760000Y-49911000D01*
X110379000Y-47482000D02*
X110379000Y-40229500D01*
X110220000Y-48371000D02*
X110220000Y-46736000D01*
X111760000Y-49911000D02*
X110220000Y-48371000D01*
%TO.N,/FPGA/Fiber_A_RX*%
X112649000Y-42672000D02*
X112649000Y-40197500D01*
X114300000Y-50800000D02*
X111887000Y-48387000D01*
X111887000Y-43434000D02*
X112649000Y-42672000D01*
X114300000Y-52100000D02*
X114300000Y-50800000D01*
X111887000Y-48387000D02*
X111887000Y-43434000D01*
%TO.N,/FPGA/Fiber_B_RX*%
X131572000Y-48641000D02*
X129921000Y-50292000D01*
X131572000Y-42926000D02*
X131572000Y-48641000D01*
X132604000Y-41894000D02*
X131572000Y-42926000D01*
X123728000Y-50292000D02*
X121920000Y-52100000D01*
X132604000Y-40163500D02*
X132604000Y-41894000D01*
X129921000Y-50292000D02*
X123728000Y-50292000D01*
D29*
%TO.N,+3V3*%
X97565500Y-77118500D02*
X101058500Y-77118500D01*
X125315500Y-74324500D02*
X125315500Y-62704500D01*
X127762000Y-35306000D02*
X137668000Y-35306000D01*
D28*
X157607000Y-33020000D02*
X157607000Y-35179000D01*
D29*
X137668000Y-35306000D02*
X147701000Y-35306000D01*
D28*
X157360500Y-75706000D02*
X157247500Y-75819000D01*
D29*
X101058500Y-77118500D02*
X101058500Y-74578500D01*
D27*
X157607000Y-35179000D02*
X157734000Y-35306000D01*
D28*
X157247500Y-78337500D02*
X154051000Y-81534000D01*
D30*
X117713000Y-35195000D02*
X117602000Y-35306000D01*
D29*
X117602000Y-35306000D02*
X127762000Y-35306000D01*
D27*
X154083000Y-81566000D02*
X154051000Y-81534000D01*
D29*
X96647000Y-63246000D02*
X99949000Y-59944000D01*
D28*
X154051000Y-81534000D02*
X127000000Y-81534000D01*
X125315500Y-79849500D02*
X125315500Y-76864500D01*
D29*
X98806000Y-35306000D02*
X117602000Y-35306000D01*
D28*
X127000000Y-81534000D02*
X125315500Y-79849500D01*
D27*
X154083000Y-83947000D02*
X154083000Y-81566000D01*
D29*
X96647000Y-63246000D02*
X96647000Y-76200000D01*
X98806000Y-35306000D02*
X96520000Y-37592000D01*
X125315500Y-62704500D02*
X122555000Y-59944000D01*
D28*
X117713000Y-32893000D02*
X117713000Y-35195000D01*
X147701000Y-33020000D02*
X147701000Y-35306000D01*
X127762000Y-33020000D02*
X127762000Y-35306000D01*
X160045000Y-75706000D02*
X157360500Y-75706000D01*
D29*
X96520000Y-37592000D02*
X96520000Y-56515000D01*
X96520000Y-56515000D02*
X99949000Y-59944000D01*
X147701000Y-35306000D02*
X157734000Y-35306000D01*
X125315500Y-76864500D02*
X125315500Y-74324500D01*
X107569000Y-32893000D02*
X107569000Y-35052000D01*
D28*
X137668000Y-32893000D02*
X137668000Y-35306000D01*
D29*
X107569000Y-35052000D02*
X107233500Y-35387500D01*
D28*
X157247500Y-75819000D02*
X157247500Y-78337500D01*
D29*
X96647000Y-76200000D02*
X97565500Y-77118500D01*
X122555000Y-59944000D02*
X99949000Y-59944000D01*
D27*
%TO.N,/FPGA/Fiber_C_TX*%
X149844000Y-47498000D02*
X149844000Y-40401500D01*
X149844000Y-40401500D02*
X150082000Y-40163500D01*
X149860000Y-47514000D02*
X149844000Y-47498000D01*
X149860000Y-52100000D02*
X149860000Y-47514000D01*
%TO.N,/FPGA/Fiber_C_RX*%
X152400000Y-52100000D02*
X151384000Y-51084000D01*
X151384000Y-51084000D02*
X151384000Y-41290500D01*
X151384000Y-41290500D02*
X152511000Y-40163500D01*
%TO.N,/FPGA/PMOD_B_3*%
X130395500Y-74324500D02*
X130395500Y-68105500D01*
X130395500Y-68105500D02*
X131161000Y-67340000D01*
X131161000Y-67340000D02*
X139700000Y-67340000D01*
%TO.N,/FPGA/PMOD_B_1*%
X136144000Y-71882000D02*
X148082000Y-71882000D01*
X135475500Y-74324500D02*
X135475500Y-72550500D01*
X149860000Y-70104000D02*
X149860000Y-67340000D01*
X135475500Y-72550500D02*
X136144000Y-71882000D01*
X148082000Y-71882000D02*
X149860000Y-70104000D01*
%TO.N,unconnected-(U2-PIO30-Pad30)*%
X163449000Y-53340000D02*
X163449000Y-51308000D01*
X162052000Y-54737000D02*
X163449000Y-53340000D01*
X163449000Y-51308000D02*
X164211000Y-50546000D01*
X164211000Y-50546000D02*
X167894000Y-50546000D01*
X148082000Y-54737000D02*
X162052000Y-54737000D01*
X147320000Y-52100000D02*
X147320000Y-53975000D01*
X147320000Y-53975000D02*
X148082000Y-54737000D01*
%TO.N,unconnected-(U2-PIO26-Pad26)*%
X157480000Y-52100000D02*
X157480000Y-48895000D01*
X158369000Y-48006000D02*
X167894000Y-48006000D01*
X157480000Y-48895000D02*
X158369000Y-48006000D01*
%TO.N,/FPGA/PMOD_B_0*%
X138206200Y-74133800D02*
X150910200Y-74133800D01*
X150910200Y-74133800D02*
X154940000Y-70104000D01*
X138015500Y-74324500D02*
X138206200Y-74133800D01*
X154940000Y-70104000D02*
X154940000Y-67340000D01*
%TO.N,/FPGA/PMOD_B_6*%
X134239000Y-71628000D02*
X134874000Y-70993000D01*
X132935500Y-76864500D02*
X134239000Y-75561000D01*
X134239000Y-75561000D02*
X134239000Y-71628000D01*
X147320000Y-70231000D02*
X147320000Y-67340000D01*
X134874000Y-70993000D02*
X146558000Y-70993000D01*
X146558000Y-70993000D02*
X147320000Y-70231000D01*
%TO.N,/FPGA/PMOD_B_2*%
X132935500Y-74324500D02*
X132935500Y-70899500D01*
X144272000Y-70231000D02*
X144780000Y-69723000D01*
X144780000Y-69723000D02*
X144780000Y-67340000D01*
X132935500Y-70899500D02*
X133604000Y-70231000D01*
X133604000Y-70231000D02*
X144272000Y-70231000D01*
%TO.N,/FPGA/PMOD_A_7*%
X107442000Y-71628000D02*
X106680000Y-70866000D01*
X106680000Y-70866000D02*
X106680000Y-67340000D01*
X107442000Y-75815000D02*
X107442000Y-71628000D01*
X106138500Y-77118500D02*
X107442000Y-75815000D01*
%TO.N,Net-(D1-Pad2)*%
X155575000Y-83947000D02*
X158351000Y-83947000D01*
%TO.N,unconnected-(U2-PIO46-Pad46)*%
X106680000Y-52100000D02*
X106680000Y-51181000D01*
%TD*%
%TA.AperFunction,Conductor*%
%TO.N,GND*%
G36*
X103147437Y-74368712D02*
G01*
X103215896Y-74487287D01*
X103312713Y-74584104D01*
X103431288Y-74652563D01*
X103486259Y-74667292D01*
X102981248Y-75172302D01*
X102981249Y-75172303D01*
X103005680Y-75190053D01*
X103173281Y-75275451D01*
X103310600Y-75320069D01*
X103368276Y-75359506D01*
X103395474Y-75423865D01*
X103383559Y-75492711D01*
X103336315Y-75544187D01*
X103310600Y-75555931D01*
X103173281Y-75600548D01*
X103005681Y-75685945D01*
X102981249Y-75703696D01*
X102981248Y-75703696D01*
X103486260Y-76208707D01*
X103431288Y-76223437D01*
X103312713Y-76291896D01*
X103215896Y-76388713D01*
X103147437Y-76507288D01*
X103132707Y-76562260D01*
X102627696Y-76057248D01*
X102627696Y-76057249D01*
X102609945Y-76081681D01*
X102524549Y-76249280D01*
X102480193Y-76385792D01*
X102462392Y-76411824D01*
X102446107Y-76438830D01*
X102442821Y-76440445D01*
X102440755Y-76443467D01*
X102411709Y-76455741D01*
X102383406Y-76469657D01*
X102379768Y-76469239D01*
X102376396Y-76470665D01*
X102345320Y-76465286D01*
X102313992Y-76461692D01*
X102311157Y-76459374D01*
X102307550Y-76458750D01*
X102284311Y-76437422D01*
X102259903Y-76417463D01*
X102257714Y-76413011D01*
X102256074Y-76411506D01*
X102244331Y-76385790D01*
X102200069Y-76249562D01*
X102194000Y-76211245D01*
X102194000Y-74664752D01*
X102194369Y-74662421D01*
X102194051Y-74661211D01*
X102200068Y-74626438D01*
X102244332Y-74490206D01*
X102283768Y-74432533D01*
X102348127Y-74405334D01*
X102416973Y-74417248D01*
X102468449Y-74464492D01*
X102480193Y-74490207D01*
X102524549Y-74626719D01*
X102609942Y-74794312D01*
X102627696Y-74818749D01*
X103132707Y-74313738D01*
X103147437Y-74368712D01*
G37*
%TD.AperFunction*%
%TA.AperFunction,Conductor*%
G36*
X127370937Y-74368712D02*
G01*
X127439396Y-74487287D01*
X127536213Y-74584104D01*
X127654788Y-74652563D01*
X127709759Y-74667292D01*
X127204748Y-75172302D01*
X127204749Y-75172303D01*
X127229180Y-75190053D01*
X127396781Y-75275451D01*
X127534100Y-75320069D01*
X127591776Y-75359506D01*
X127618974Y-75423865D01*
X127607059Y-75492711D01*
X127559815Y-75544187D01*
X127534100Y-75555931D01*
X127396781Y-75600548D01*
X127229181Y-75685945D01*
X127204749Y-75703696D01*
X127204748Y-75703696D01*
X127709760Y-76208707D01*
X127654788Y-76223437D01*
X127536213Y-76291896D01*
X127439396Y-76388713D01*
X127370937Y-76507288D01*
X127356207Y-76562260D01*
X126851196Y-76057248D01*
X126851196Y-76057249D01*
X126833445Y-76081681D01*
X126748049Y-76249280D01*
X126703693Y-76385792D01*
X126685889Y-76411827D01*
X126669606Y-76438830D01*
X126666321Y-76440444D01*
X126664255Y-76443467D01*
X126635202Y-76455744D01*
X126606905Y-76469657D01*
X126603268Y-76469239D01*
X126599896Y-76470665D01*
X126568812Y-76465285D01*
X126537491Y-76461691D01*
X126534657Y-76459374D01*
X126531050Y-76458750D01*
X126507809Y-76437420D01*
X126483402Y-76417462D01*
X126481213Y-76413010D01*
X126479574Y-76411506D01*
X126467832Y-76385795D01*
X126457067Y-76352662D01*
X126451000Y-76314349D01*
X126451000Y-74561650D01*
X126451368Y-74559320D01*
X126451051Y-74558111D01*
X126457068Y-74523334D01*
X126457647Y-74521553D01*
X126467831Y-74490207D01*
X126507267Y-74432534D01*
X126571625Y-74405335D01*
X126640471Y-74417248D01*
X126691948Y-74464491D01*
X126703693Y-74490207D01*
X126748049Y-74626719D01*
X126833442Y-74794312D01*
X126851196Y-74818749D01*
X127356207Y-74313738D01*
X127370937Y-74368712D01*
G37*
%TD.AperFunction*%
%TA.AperFunction,Conductor*%
G36*
X104636302Y-74818749D02*
G01*
X104636303Y-74818749D01*
X104654055Y-74794316D01*
X104739451Y-74626718D01*
X104783806Y-74490208D01*
X104823243Y-74432533D01*
X104887602Y-74405334D01*
X104956448Y-74417248D01*
X105007924Y-74464492D01*
X105019668Y-74490208D01*
X105064084Y-74626910D01*
X105064085Y-74626913D01*
X105145757Y-74787202D01*
X105149516Y-74794579D01*
X105260123Y-74946816D01*
X105393184Y-75079877D01*
X105545421Y-75190484D01*
X105627656Y-75232384D01*
X105713086Y-75275914D01*
X105713089Y-75275915D01*
X105848982Y-75320069D01*
X105906657Y-75359506D01*
X105933856Y-75423865D01*
X105921942Y-75492711D01*
X105874698Y-75544187D01*
X105848982Y-75555931D01*
X105713089Y-75600084D01*
X105713086Y-75600085D01*
X105545420Y-75685516D01*
X105484662Y-75729660D01*
X105393184Y-75796123D01*
X105393182Y-75796125D01*
X105393181Y-75796125D01*
X105260125Y-75929181D01*
X105260125Y-75929182D01*
X105260123Y-75929184D01*
X105229165Y-75971794D01*
X105149516Y-76081420D01*
X105064085Y-76249086D01*
X105064084Y-76249089D01*
X105019668Y-76385791D01*
X104980231Y-76443466D01*
X104915872Y-76470665D01*
X104847026Y-76458750D01*
X104795550Y-76411506D01*
X104783806Y-76385791D01*
X104739451Y-76249281D01*
X104654053Y-76081680D01*
X104636303Y-76057249D01*
X104636302Y-76057248D01*
X104131292Y-76562259D01*
X104116563Y-76507288D01*
X104048104Y-76388713D01*
X103951287Y-76291896D01*
X103832712Y-76223437D01*
X103777739Y-76208707D01*
X104282749Y-75703696D01*
X104258312Y-75685942D01*
X104090718Y-75600548D01*
X103953399Y-75555931D01*
X103895724Y-75516494D01*
X103868525Y-75452135D01*
X103880439Y-75383289D01*
X103927684Y-75331813D01*
X103953399Y-75320069D01*
X104090718Y-75275451D01*
X104258316Y-75190055D01*
X104282749Y-75172303D01*
X104282749Y-75172302D01*
X103777740Y-74667292D01*
X103832712Y-74652563D01*
X103951287Y-74584104D01*
X104048104Y-74487287D01*
X104116563Y-74368712D01*
X104131292Y-74313739D01*
X104636302Y-74818749D01*
G37*
%TD.AperFunction*%
%TA.AperFunction,Conductor*%
G36*
X128859802Y-74818749D02*
G01*
X128859803Y-74818749D01*
X128877555Y-74794316D01*
X128962951Y-74626718D01*
X129007306Y-74490208D01*
X129046743Y-74432533D01*
X129111102Y-74405334D01*
X129179948Y-74417248D01*
X129231424Y-74464492D01*
X129243168Y-74490208D01*
X129287584Y-74626910D01*
X129287585Y-74626913D01*
X129369257Y-74787202D01*
X129373016Y-74794579D01*
X129483623Y-74946816D01*
X129616684Y-75079877D01*
X129768921Y-75190484D01*
X129851156Y-75232384D01*
X129936586Y-75275914D01*
X129936589Y-75275915D01*
X130072482Y-75320069D01*
X130130157Y-75359506D01*
X130157356Y-75423865D01*
X130145442Y-75492711D01*
X130098198Y-75544187D01*
X130072482Y-75555931D01*
X129936589Y-75600084D01*
X129936586Y-75600085D01*
X129768920Y-75685516D01*
X129708162Y-75729660D01*
X129616684Y-75796123D01*
X129616682Y-75796125D01*
X129616681Y-75796125D01*
X129483625Y-75929181D01*
X129483625Y-75929182D01*
X129483623Y-75929184D01*
X129452665Y-75971794D01*
X129373016Y-76081420D01*
X129287585Y-76249086D01*
X129287584Y-76249089D01*
X129243168Y-76385791D01*
X129203731Y-76443466D01*
X129139372Y-76470665D01*
X129070526Y-76458750D01*
X129019050Y-76411506D01*
X129007306Y-76385791D01*
X128962951Y-76249281D01*
X128877553Y-76081680D01*
X128859803Y-76057249D01*
X128859802Y-76057248D01*
X128354792Y-76562259D01*
X128340063Y-76507288D01*
X128271604Y-76388713D01*
X128174787Y-76291896D01*
X128056212Y-76223437D01*
X128001239Y-76208707D01*
X128506249Y-75703696D01*
X128481812Y-75685942D01*
X128314218Y-75600548D01*
X128176899Y-75555931D01*
X128119224Y-75516494D01*
X128092025Y-75452135D01*
X128103939Y-75383289D01*
X128151184Y-75331813D01*
X128176899Y-75320069D01*
X128314218Y-75275451D01*
X128481816Y-75190055D01*
X128506249Y-75172303D01*
X128506249Y-75172302D01*
X128001240Y-74667292D01*
X128056212Y-74652563D01*
X128174787Y-74584104D01*
X128271604Y-74487287D01*
X128340063Y-74368712D01*
X128354792Y-74313739D01*
X128859802Y-74818749D01*
G37*
%TD.AperFunction*%
%TA.AperFunction,Conductor*%
G36*
X172413161Y-29356685D02*
G01*
X172458916Y-29409489D01*
X172470122Y-29461287D01*
X172337505Y-86751787D01*
X172317665Y-86818781D01*
X172264755Y-86864413D01*
X172213505Y-86875500D01*
X84963004Y-86875500D01*
X84895965Y-86855815D01*
X84850210Y-86803011D01*
X84839005Y-86752077D01*
X84831236Y-85081812D01*
X84811432Y-80824059D01*
X86162002Y-80824059D01*
X86162002Y-81167940D01*
X86195707Y-81510165D01*
X86195710Y-81510182D01*
X86262793Y-81847437D01*
X86262794Y-81847443D01*
X86362625Y-82176540D01*
X86494221Y-82494241D01*
X86494228Y-82494255D01*
X86656324Y-82797518D01*
X86656335Y-82797536D01*
X86847379Y-83083453D01*
X86847389Y-83083467D01*
X87015787Y-83288659D01*
X87015788Y-83288660D01*
X88367750Y-81936698D01*
X88441590Y-82038330D01*
X88619672Y-82216412D01*
X88721302Y-82290251D01*
X87369340Y-83642212D01*
X87369341Y-83642213D01*
X87574535Y-83810612D01*
X87574548Y-83810622D01*
X87860465Y-84001666D01*
X87860483Y-84001677D01*
X88163746Y-84163773D01*
X88163760Y-84163780D01*
X88481461Y-84295376D01*
X88810558Y-84395207D01*
X88810564Y-84395208D01*
X89147819Y-84462291D01*
X89147836Y-84462294D01*
X89490061Y-84496000D01*
X89833943Y-84496000D01*
X90176167Y-84462294D01*
X90176184Y-84462291D01*
X90513439Y-84395208D01*
X90513445Y-84395207D01*
X90842542Y-84295376D01*
X91160243Y-84163780D01*
X91160257Y-84163773D01*
X91463520Y-84001677D01*
X91463538Y-84001666D01*
X91749455Y-83810622D01*
X91749468Y-83810612D01*
X91954661Y-83642213D01*
X91954661Y-83642212D01*
X90602700Y-82290251D01*
X90704332Y-82216412D01*
X90882414Y-82038330D01*
X90956253Y-81936698D01*
X92308214Y-83288659D01*
X92308215Y-83288659D01*
X92476614Y-83083466D01*
X92476624Y-83083453D01*
X92667668Y-82797536D01*
X92667679Y-82797518D01*
X92829775Y-82494255D01*
X92829782Y-82494241D01*
X92961378Y-82176540D01*
X93061209Y-81847443D01*
X93061210Y-81847437D01*
X93128293Y-81510182D01*
X93128296Y-81510165D01*
X93162002Y-81167940D01*
X93162002Y-80824059D01*
X93128296Y-80481834D01*
X93128293Y-80481817D01*
X93061210Y-80144562D01*
X93061209Y-80144556D01*
X92961378Y-79815459D01*
X92829782Y-79497758D01*
X92829775Y-79497744D01*
X92667679Y-79194481D01*
X92667668Y-79194463D01*
X92476624Y-78908546D01*
X92476614Y-78908533D01*
X92308215Y-78703339D01*
X92308214Y-78703338D01*
X90956252Y-80055300D01*
X90882414Y-79953670D01*
X90704332Y-79775588D01*
X90602699Y-79701747D01*
X91954662Y-78349786D01*
X91954661Y-78349785D01*
X91749469Y-78181387D01*
X91749455Y-78181377D01*
X91463538Y-77990333D01*
X91463520Y-77990322D01*
X91160257Y-77828226D01*
X91160243Y-77828219D01*
X90842542Y-77696623D01*
X90513445Y-77596792D01*
X90513439Y-77596791D01*
X90176184Y-77529708D01*
X90176167Y-77529705D01*
X89833943Y-77496000D01*
X89490061Y-77496000D01*
X89147836Y-77529705D01*
X89147819Y-77529708D01*
X88810564Y-77596791D01*
X88810558Y-77596792D01*
X88481461Y-77696623D01*
X88163760Y-77828219D01*
X88163746Y-77828226D01*
X87860483Y-77990322D01*
X87860465Y-77990333D01*
X87574548Y-78181377D01*
X87574534Y-78181387D01*
X87369340Y-78349786D01*
X88721303Y-79701748D01*
X88619672Y-79775588D01*
X88441590Y-79953670D01*
X88367750Y-80055301D01*
X87015788Y-78703338D01*
X86847389Y-78908532D01*
X86847379Y-78908546D01*
X86656335Y-79194463D01*
X86656324Y-79194481D01*
X86494228Y-79497744D01*
X86494221Y-79497758D01*
X86362625Y-79815459D01*
X86262794Y-80144556D01*
X86262793Y-80144562D01*
X86195710Y-80481817D01*
X86195707Y-80481834D01*
X86162002Y-80824059D01*
X84811432Y-80824059D01*
X84659929Y-48250832D01*
X88628100Y-48250832D01*
X88628100Y-48421568D01*
X88632080Y-48446695D01*
X88654809Y-48590202D01*
X88654809Y-48590205D01*
X88707567Y-48752577D01*
X88707569Y-48752580D01*
X88785081Y-48904707D01*
X88885437Y-49042835D01*
X89006165Y-49163563D01*
X89144293Y-49263919D01*
X89296420Y-49341431D01*
X89296422Y-49341432D01*
X89458795Y-49394190D01*
X89458796Y-49394190D01*
X89458799Y-49394191D01*
X89627432Y-49420900D01*
X89627433Y-49420900D01*
X89798167Y-49420900D01*
X89798168Y-49420900D01*
X89966801Y-49394191D01*
X89966804Y-49394190D01*
X89966805Y-49394190D01*
X90129177Y-49341432D01*
X90129177Y-49341431D01*
X90129180Y-49341431D01*
X90281307Y-49263919D01*
X90419435Y-49163563D01*
X90540163Y-49042835D01*
X90640519Y-48904707D01*
X90718031Y-48752580D01*
X90732172Y-48709059D01*
X90770790Y-48590205D01*
X90770790Y-48590204D01*
X90770791Y-48590201D01*
X90797500Y-48421568D01*
X90797500Y-48250832D01*
X90770791Y-48082199D01*
X90770790Y-48082195D01*
X90770790Y-48082194D01*
X90718032Y-47919822D01*
X90718030Y-47919819D01*
X90699375Y-47883205D01*
X90640519Y-47767693D01*
X90540163Y-47629565D01*
X90419435Y-47508837D01*
X90281307Y-47408481D01*
X90129180Y-47330969D01*
X90129177Y-47330967D01*
X89966804Y-47278209D01*
X89840326Y-47258177D01*
X89798168Y-47251500D01*
X89627432Y-47251500D01*
X89571221Y-47260403D01*
X89458797Y-47278209D01*
X89458794Y-47278209D01*
X89296422Y-47330967D01*
X89296419Y-47330969D01*
X89144292Y-47408481D01*
X89104361Y-47437493D01*
X89006165Y-47508837D01*
X89006163Y-47508839D01*
X89006162Y-47508839D01*
X88885439Y-47629562D01*
X88885439Y-47629563D01*
X88885437Y-47629565D01*
X88858617Y-47666480D01*
X88785081Y-47767692D01*
X88707569Y-47919819D01*
X88707567Y-47919822D01*
X88654809Y-48082194D01*
X88654809Y-48082197D01*
X88651879Y-48100697D01*
X88628100Y-48250832D01*
X84659929Y-48250832D01*
X84647524Y-45583832D01*
X88628100Y-45583832D01*
X88628100Y-45754567D01*
X88654809Y-45923202D01*
X88654809Y-45923205D01*
X88707567Y-46085577D01*
X88707569Y-46085580D01*
X88785081Y-46237707D01*
X88885437Y-46375835D01*
X89006165Y-46496563D01*
X89144293Y-46596919D01*
X89296420Y-46674431D01*
X89296422Y-46674432D01*
X89458795Y-46727190D01*
X89458796Y-46727190D01*
X89458799Y-46727191D01*
X89627432Y-46753900D01*
X89627433Y-46753900D01*
X89798167Y-46753900D01*
X89798168Y-46753900D01*
X89966801Y-46727191D01*
X89966804Y-46727190D01*
X89966805Y-46727190D01*
X90129177Y-46674432D01*
X90129177Y-46674431D01*
X90129180Y-46674431D01*
X90281307Y-46596919D01*
X90419435Y-46496563D01*
X90540163Y-46375835D01*
X90640519Y-46237707D01*
X90718031Y-46085580D01*
X90756599Y-45966880D01*
X90770790Y-45923205D01*
X90770790Y-45923204D01*
X90770791Y-45923201D01*
X90797500Y-45754568D01*
X90797500Y-45583832D01*
X90770791Y-45415199D01*
X90770790Y-45415195D01*
X90770790Y-45415194D01*
X90718032Y-45252822D01*
X90718030Y-45252819D01*
X90697232Y-45211999D01*
X90640519Y-45100693D01*
X90540163Y-44962565D01*
X90419435Y-44841837D01*
X90281307Y-44741481D01*
X90129180Y-44663969D01*
X90129177Y-44663967D01*
X89966804Y-44611209D01*
X89840326Y-44591177D01*
X89798168Y-44584500D01*
X89627432Y-44584500D01*
X89571221Y-44593403D01*
X89458797Y-44611209D01*
X89458794Y-44611209D01*
X89296422Y-44663967D01*
X89296419Y-44663969D01*
X89144292Y-44741481D01*
X89065485Y-44798738D01*
X89006165Y-44841837D01*
X89006163Y-44841839D01*
X89006162Y-44841839D01*
X88885439Y-44962562D01*
X88885439Y-44962563D01*
X88885437Y-44962565D01*
X88842338Y-45021885D01*
X88785081Y-45100692D01*
X88707569Y-45252819D01*
X88707567Y-45252822D01*
X88654809Y-45415194D01*
X88654809Y-45415197D01*
X88628100Y-45583832D01*
X84647524Y-45583832D01*
X84632757Y-42408832D01*
X88628100Y-42408832D01*
X88628100Y-42579568D01*
X88641454Y-42663884D01*
X88654809Y-42748202D01*
X88654809Y-42748205D01*
X88707567Y-42910577D01*
X88707569Y-42910580D01*
X88785081Y-43062707D01*
X88885437Y-43200835D01*
X89006165Y-43321563D01*
X89144293Y-43421919D01*
X89296420Y-43499431D01*
X89296422Y-43499432D01*
X89458795Y-43552190D01*
X89458796Y-43552190D01*
X89458799Y-43552191D01*
X89627432Y-43578900D01*
X89627433Y-43578900D01*
X89798167Y-43578900D01*
X89798168Y-43578900D01*
X89966801Y-43552191D01*
X89966804Y-43552190D01*
X89966805Y-43552190D01*
X90129177Y-43499432D01*
X90129177Y-43499431D01*
X90129180Y-43499431D01*
X90281307Y-43421919D01*
X90419435Y-43321563D01*
X90540163Y-43200835D01*
X90640519Y-43062707D01*
X90718031Y-42910580D01*
X90730059Y-42873561D01*
X90770790Y-42748205D01*
X90770790Y-42748204D01*
X90770791Y-42748201D01*
X90797500Y-42579568D01*
X90797500Y-42408832D01*
X90770791Y-42240199D01*
X90770790Y-42240195D01*
X90770790Y-42240194D01*
X90718032Y-42077822D01*
X90718030Y-42077819D01*
X90717388Y-42076558D01*
X90640519Y-41925693D01*
X90540163Y-41787565D01*
X90419435Y-41666837D01*
X90281307Y-41566481D01*
X90129180Y-41488969D01*
X90129177Y-41488967D01*
X89966804Y-41436209D01*
X89840326Y-41416177D01*
X89798168Y-41409500D01*
X89627432Y-41409500D01*
X89571221Y-41418403D01*
X89458797Y-41436209D01*
X89458794Y-41436209D01*
X89296422Y-41488967D01*
X89296419Y-41488969D01*
X89144292Y-41566481D01*
X89065876Y-41623454D01*
X89006165Y-41666837D01*
X89006163Y-41666839D01*
X89006162Y-41666839D01*
X88885439Y-41787562D01*
X88885439Y-41787563D01*
X88885437Y-41787565D01*
X88842338Y-41846885D01*
X88785081Y-41925692D01*
X88707569Y-42077819D01*
X88707567Y-42077822D01*
X88654809Y-42240194D01*
X88654809Y-42240197D01*
X88639875Y-42334486D01*
X88628100Y-42408832D01*
X84632757Y-42408832D01*
X84604688Y-36374059D01*
X86162002Y-36374059D01*
X86162002Y-36717940D01*
X86195707Y-37060165D01*
X86195710Y-37060182D01*
X86262793Y-37397437D01*
X86262794Y-37397443D01*
X86362625Y-37726540D01*
X86494221Y-38044241D01*
X86494228Y-38044255D01*
X86656324Y-38347518D01*
X86656335Y-38347536D01*
X86847379Y-38633453D01*
X86847389Y-38633467D01*
X87015787Y-38838659D01*
X87015788Y-38838660D01*
X88367750Y-37486698D01*
X88441590Y-37588330D01*
X88619672Y-37766412D01*
X88721302Y-37840251D01*
X87369340Y-39192212D01*
X87369341Y-39192213D01*
X87574535Y-39360612D01*
X87574548Y-39360622D01*
X87860465Y-39551666D01*
X87860483Y-39551677D01*
X88163746Y-39713773D01*
X88163760Y-39713780D01*
X88481461Y-39845376D01*
X88810558Y-39945207D01*
X88810564Y-39945208D01*
X89147819Y-40012291D01*
X89147836Y-40012294D01*
X89490061Y-40046000D01*
X89833943Y-40046000D01*
X90176167Y-40012294D01*
X90176184Y-40012291D01*
X90513439Y-39945208D01*
X90513445Y-39945207D01*
X90842542Y-39845376D01*
X91160243Y-39713780D01*
X91160257Y-39713773D01*
X91463520Y-39551677D01*
X91463538Y-39551666D01*
X91749455Y-39360622D01*
X91749468Y-39360612D01*
X91954661Y-39192213D01*
X91954661Y-39192212D01*
X90602700Y-37840251D01*
X90704332Y-37766412D01*
X90882414Y-37588330D01*
X90956253Y-37486698D01*
X92308214Y-38838659D01*
X92308215Y-38838659D01*
X92476614Y-38633466D01*
X92476624Y-38633453D01*
X92667668Y-38347536D01*
X92667679Y-38347518D01*
X92829775Y-38044255D01*
X92829782Y-38044241D01*
X92961378Y-37726540D01*
X93029301Y-37502629D01*
X95384500Y-37502629D01*
X95384500Y-56604370D01*
X95412458Y-56780893D01*
X95454146Y-56909194D01*
X95467688Y-56950875D01*
X95467691Y-56950881D01*
X95548833Y-57110132D01*
X95653890Y-57254729D01*
X95653891Y-57254730D01*
X98255479Y-59856319D01*
X98288964Y-59917642D01*
X98283980Y-59987334D01*
X98255479Y-60031681D01*
X95907272Y-62379889D01*
X95780891Y-62506269D01*
X95780890Y-62506270D01*
X95675833Y-62650867D01*
X95594243Y-62810997D01*
X95593184Y-62814754D01*
X95539458Y-62980105D01*
X95539458Y-62980106D01*
X95514073Y-63140379D01*
X95514074Y-63140380D01*
X95511500Y-63156633D01*
X95511500Y-76289370D01*
X95536418Y-76446697D01*
X95539459Y-76465897D01*
X95563065Y-76538546D01*
X95567771Y-76553029D01*
X95567771Y-76553030D01*
X95594689Y-76635878D01*
X95594691Y-76635881D01*
X95675833Y-76795132D01*
X95758062Y-76908310D01*
X95765597Y-76918680D01*
X95780889Y-76939728D01*
X96825771Y-77984611D01*
X96970368Y-78089667D01*
X97045608Y-78128003D01*
X97129614Y-78170807D01*
X97129616Y-78170807D01*
X97129619Y-78170809D01*
X97299603Y-78226041D01*
X97397675Y-78241573D01*
X97476130Y-78254000D01*
X97476134Y-78254000D01*
X101147865Y-78254000D01*
X101147866Y-78254000D01*
X101324397Y-78226040D01*
X101324400Y-78226039D01*
X101324401Y-78226039D01*
X101494378Y-78170810D01*
X101494378Y-78170809D01*
X101494381Y-78170809D01*
X101653632Y-78089667D01*
X101798228Y-77984611D01*
X101924611Y-77858228D01*
X102029667Y-77713632D01*
X102110809Y-77554381D01*
X102129893Y-77495647D01*
X102166039Y-77384401D01*
X102166039Y-77384400D01*
X102166040Y-77384397D01*
X102194000Y-77207866D01*
X102194000Y-77204752D01*
X102194369Y-77202421D01*
X102194051Y-77201211D01*
X102200068Y-77166438D01*
X102244332Y-77030206D01*
X102283768Y-76972533D01*
X102348127Y-76945334D01*
X102416973Y-76957248D01*
X102468449Y-77004492D01*
X102480193Y-77030207D01*
X102524549Y-77166719D01*
X102609942Y-77334312D01*
X102627696Y-77358749D01*
X103132707Y-76853738D01*
X103147437Y-76908712D01*
X103215896Y-77027287D01*
X103312713Y-77124104D01*
X103431288Y-77192563D01*
X103486259Y-77207292D01*
X102981248Y-77712302D01*
X102981249Y-77712303D01*
X103005680Y-77730053D01*
X103173281Y-77815451D01*
X103352166Y-77873574D01*
X103537952Y-77903000D01*
X103726048Y-77903000D01*
X103911831Y-77873574D01*
X103911834Y-77873574D01*
X104090718Y-77815451D01*
X104258316Y-77730055D01*
X104282749Y-77712303D01*
X104282749Y-77712302D01*
X103777740Y-77207292D01*
X103832712Y-77192563D01*
X103951287Y-77124104D01*
X104048104Y-77027287D01*
X104116563Y-76908712D01*
X104131292Y-76853739D01*
X104636302Y-77358749D01*
X104636303Y-77358749D01*
X104654055Y-77334316D01*
X104739451Y-77166718D01*
X104783806Y-77030208D01*
X104823243Y-76972533D01*
X104887602Y-76945334D01*
X104956448Y-76957248D01*
X105007924Y-77004492D01*
X105019668Y-77030208D01*
X105064084Y-77166910D01*
X105064085Y-77166913D01*
X105117630Y-77272000D01*
X105149516Y-77334579D01*
X105260123Y-77486816D01*
X105393184Y-77619877D01*
X105545421Y-77730484D01*
X105627656Y-77772384D01*
X105713086Y-77815914D01*
X105713089Y-77815915D01*
X105802570Y-77844988D01*
X105892053Y-77874063D01*
X105978132Y-77887696D01*
X106077907Y-77903500D01*
X106077912Y-77903500D01*
X106266093Y-77903500D01*
X106356193Y-77889228D01*
X106451947Y-77874063D01*
X106630913Y-77815914D01*
X106798579Y-77730484D01*
X106950816Y-77619877D01*
X107083877Y-77486816D01*
X107194484Y-77334579D01*
X107279914Y-77166913D01*
X107323260Y-77033506D01*
X107324069Y-77031017D01*
X107363506Y-76973342D01*
X107427865Y-76946143D01*
X107496711Y-76958057D01*
X107548187Y-77005301D01*
X107559931Y-77031017D01*
X107604084Y-77166910D01*
X107604085Y-77166913D01*
X107657630Y-77272000D01*
X107689516Y-77334579D01*
X107800123Y-77486816D01*
X107933184Y-77619877D01*
X108085421Y-77730484D01*
X108167656Y-77772384D01*
X108253086Y-77815914D01*
X108253089Y-77815915D01*
X108342570Y-77844988D01*
X108432053Y-77874063D01*
X108518132Y-77887696D01*
X108617907Y-77903500D01*
X108617912Y-77903500D01*
X108806093Y-77903500D01*
X108896193Y-77889228D01*
X108991947Y-77874063D01*
X109170913Y-77815914D01*
X109338579Y-77730484D01*
X109490816Y-77619877D01*
X109623877Y-77486816D01*
X109734484Y-77334579D01*
X109819914Y-77166913D01*
X109863260Y-77033506D01*
X109864069Y-77031017D01*
X109903506Y-76973342D01*
X109967865Y-76946143D01*
X110036711Y-76958057D01*
X110088187Y-77005301D01*
X110099931Y-77031017D01*
X110144084Y-77166910D01*
X110144085Y-77166913D01*
X110197630Y-77272000D01*
X110229516Y-77334579D01*
X110340123Y-77486816D01*
X110473184Y-77619877D01*
X110625421Y-77730484D01*
X110707656Y-77772384D01*
X110793086Y-77815914D01*
X110793089Y-77815915D01*
X110882570Y-77844988D01*
X110972053Y-77874063D01*
X111058132Y-77887696D01*
X111157907Y-77903500D01*
X111157912Y-77903500D01*
X111346093Y-77903500D01*
X111436193Y-77889228D01*
X111531947Y-77874063D01*
X111710913Y-77815914D01*
X111878579Y-77730484D01*
X112030816Y-77619877D01*
X112163877Y-77486816D01*
X112274484Y-77334579D01*
X112359914Y-77166913D01*
X112403260Y-77033506D01*
X112404069Y-77031017D01*
X112443506Y-76973342D01*
X112507865Y-76946143D01*
X112576711Y-76958057D01*
X112628187Y-77005301D01*
X112639931Y-77031017D01*
X112684084Y-77166910D01*
X112684085Y-77166913D01*
X112737630Y-77272000D01*
X112769516Y-77334579D01*
X112880123Y-77486816D01*
X113013184Y-77619877D01*
X113165421Y-77730484D01*
X113247656Y-77772384D01*
X113333086Y-77815914D01*
X113333089Y-77815915D01*
X113422570Y-77844988D01*
X113512053Y-77874063D01*
X113598132Y-77887696D01*
X113697907Y-77903500D01*
X113697912Y-77903500D01*
X113886093Y-77903500D01*
X113976193Y-77889228D01*
X114071947Y-77874063D01*
X114250913Y-77815914D01*
X114418579Y-77730484D01*
X114570816Y-77619877D01*
X114703877Y-77486816D01*
X114814484Y-77334579D01*
X114899914Y-77166913D01*
X114958063Y-76987947D01*
X114969034Y-76918675D01*
X114998961Y-76855545D01*
X115003807Y-76850413D01*
X117376735Y-74477487D01*
X117452356Y-74364311D01*
X117504445Y-74238557D01*
X117511745Y-74201857D01*
X117531000Y-74105058D01*
X117531000Y-72854583D01*
X117550685Y-72787544D01*
X117567319Y-72766902D01*
X119437305Y-70896916D01*
X121372763Y-68961457D01*
X121434084Y-68927974D01*
X121498758Y-68931208D01*
X121535146Y-68943032D01*
X121627789Y-68957705D01*
X121790649Y-68983500D01*
X121790654Y-68983500D01*
X122049351Y-68983500D01*
X122191294Y-68961017D01*
X122304854Y-68943032D01*
X122550885Y-68863091D01*
X122781382Y-68745647D01*
X122990668Y-68593592D01*
X123173592Y-68410668D01*
X123325647Y-68201382D01*
X123443091Y-67970885D01*
X123523032Y-67724854D01*
X123541017Y-67611294D01*
X123563500Y-67469351D01*
X123563500Y-67210648D01*
X123523032Y-66955149D01*
X123523032Y-66955146D01*
X123443091Y-66709115D01*
X123325647Y-66478618D01*
X123173592Y-66269332D01*
X122990668Y-66086408D01*
X122781382Y-65934353D01*
X122550885Y-65816909D01*
X122304854Y-65736968D01*
X122304852Y-65736967D01*
X122304850Y-65736967D01*
X122049351Y-65696500D01*
X122049346Y-65696500D01*
X121790654Y-65696500D01*
X121790649Y-65696500D01*
X121535149Y-65736967D01*
X121289112Y-65816910D01*
X121058617Y-65934353D01*
X120849333Y-66086407D01*
X120737681Y-66198059D01*
X120676358Y-66231543D01*
X120606666Y-66226559D01*
X120562319Y-66198059D01*
X120450668Y-66086408D01*
X120241382Y-65934353D01*
X120010885Y-65816909D01*
X119764854Y-65736968D01*
X119764852Y-65736967D01*
X119764850Y-65736967D01*
X119509351Y-65696500D01*
X119509346Y-65696500D01*
X119250654Y-65696500D01*
X119250649Y-65696500D01*
X118995149Y-65736967D01*
X118749112Y-65816910D01*
X118518617Y-65934353D01*
X118309333Y-66086407D01*
X118197681Y-66198059D01*
X118136358Y-66231543D01*
X118066666Y-66226559D01*
X118022319Y-66198059D01*
X117910668Y-66086408D01*
X117701382Y-65934353D01*
X117470885Y-65816909D01*
X117224854Y-65736968D01*
X117224852Y-65736967D01*
X117224850Y-65736967D01*
X116969351Y-65696500D01*
X116969346Y-65696500D01*
X116710654Y-65696500D01*
X116710649Y-65696500D01*
X116455149Y-65736967D01*
X116209112Y-65816910D01*
X115978617Y-65934353D01*
X115769333Y-66086407D01*
X115657681Y-66198059D01*
X115596358Y-66231543D01*
X115526666Y-66226559D01*
X115482319Y-66198059D01*
X115370668Y-66086408D01*
X115161382Y-65934353D01*
X114930885Y-65816909D01*
X114684854Y-65736968D01*
X114684852Y-65736967D01*
X114684850Y-65736967D01*
X114429351Y-65696500D01*
X114429346Y-65696500D01*
X114170654Y-65696500D01*
X114170649Y-65696500D01*
X113915149Y-65736967D01*
X113669112Y-65816910D01*
X113438617Y-65934353D01*
X113229333Y-66086407D01*
X113117681Y-66198059D01*
X113056358Y-66231543D01*
X112986666Y-66226559D01*
X112942319Y-66198059D01*
X112830668Y-66086408D01*
X112621382Y-65934353D01*
X112390885Y-65816909D01*
X112144854Y-65736968D01*
X112144852Y-65736967D01*
X112144850Y-65736967D01*
X111889351Y-65696500D01*
X111889346Y-65696500D01*
X111630654Y-65696500D01*
X111630649Y-65696500D01*
X111375149Y-65736967D01*
X111129112Y-65816910D01*
X110898617Y-65934353D01*
X110689333Y-66086407D01*
X110577681Y-66198059D01*
X110516358Y-66231543D01*
X110446666Y-66226559D01*
X110402319Y-66198059D01*
X110290668Y-66086408D01*
X110081382Y-65934353D01*
X109850885Y-65816909D01*
X109604854Y-65736968D01*
X109604852Y-65736967D01*
X109604850Y-65736967D01*
X109349351Y-65696500D01*
X109349346Y-65696500D01*
X109090654Y-65696500D01*
X109090649Y-65696500D01*
X108835149Y-65736967D01*
X108589112Y-65816910D01*
X108358617Y-65934353D01*
X108149333Y-66086407D01*
X108037681Y-66198059D01*
X107976358Y-66231543D01*
X107906666Y-66226559D01*
X107862319Y-66198059D01*
X107750668Y-66086408D01*
X107541382Y-65934353D01*
X107310885Y-65816909D01*
X107064854Y-65736968D01*
X107064852Y-65736967D01*
X107064850Y-65736967D01*
X106809351Y-65696500D01*
X106809346Y-65696500D01*
X106550654Y-65696500D01*
X106550649Y-65696500D01*
X106295149Y-65736967D01*
X106049112Y-65816910D01*
X105818617Y-65934353D01*
X105609333Y-66086407D01*
X105497681Y-66198059D01*
X105436358Y-66231543D01*
X105366666Y-66226559D01*
X105322319Y-66198059D01*
X105210668Y-66086408D01*
X105001382Y-65934353D01*
X104770885Y-65816909D01*
X104524854Y-65736968D01*
X104524852Y-65736967D01*
X104524850Y-65736967D01*
X104269351Y-65696500D01*
X104269346Y-65696500D01*
X104010654Y-65696500D01*
X104010649Y-65696500D01*
X103755149Y-65736967D01*
X103509112Y-65816910D01*
X103278617Y-65934353D01*
X103069333Y-66086407D01*
X102957681Y-66198059D01*
X102896358Y-66231543D01*
X102826666Y-66226559D01*
X102782319Y-66198059D01*
X102670668Y-66086408D01*
X102461382Y-65934353D01*
X102230885Y-65816909D01*
X101984854Y-65736968D01*
X101984852Y-65736967D01*
X101984850Y-65736967D01*
X101729351Y-65696500D01*
X101729346Y-65696500D01*
X101470654Y-65696500D01*
X101470649Y-65696500D01*
X101215149Y-65736967D01*
X100969112Y-65816910D01*
X100738617Y-65934353D01*
X100529329Y-66086410D01*
X100346410Y-66269329D01*
X100194353Y-66478617D01*
X100076910Y-66709112D01*
X99996967Y-66955149D01*
X99956500Y-67210648D01*
X99956500Y-67469351D01*
X99996967Y-67724850D01*
X99996968Y-67724854D01*
X100076909Y-67970885D01*
X100194353Y-68201382D01*
X100346408Y-68410668D01*
X100529332Y-68593592D01*
X100738618Y-68745647D01*
X100969115Y-68863091D01*
X101215146Y-68943032D01*
X101307789Y-68957705D01*
X101470649Y-68983500D01*
X101470654Y-68983500D01*
X101729351Y-68983500D01*
X101871294Y-68961017D01*
X101984854Y-68943032D01*
X102230885Y-68863091D01*
X102461382Y-68745647D01*
X102670668Y-68593592D01*
X102782319Y-68481941D01*
X102843642Y-68448456D01*
X102913334Y-68453440D01*
X102957681Y-68481941D01*
X103069332Y-68593592D01*
X103278618Y-68745647D01*
X103381295Y-68797962D01*
X103432090Y-68845936D01*
X103449000Y-68908447D01*
X103449000Y-71061058D01*
X103449000Y-71061060D01*
X103448999Y-71061060D01*
X103474153Y-71187508D01*
X103475554Y-71194552D01*
X103475557Y-71194562D01*
X103527642Y-71320309D01*
X103527644Y-71320312D01*
X103603263Y-71433485D01*
X103603269Y-71433492D01*
X105321861Y-73152083D01*
X105355346Y-73213406D01*
X105350362Y-73283098D01*
X105321862Y-73327445D01*
X105260122Y-73389185D01*
X105149516Y-73541420D01*
X105064085Y-73709086D01*
X105064084Y-73709089D01*
X105019668Y-73845791D01*
X104980231Y-73903466D01*
X104915872Y-73930665D01*
X104847026Y-73918750D01*
X104795550Y-73871506D01*
X104783806Y-73845791D01*
X104739451Y-73709281D01*
X104654053Y-73541680D01*
X104636303Y-73517249D01*
X104636302Y-73517248D01*
X104131292Y-74022259D01*
X104116563Y-73967288D01*
X104048104Y-73848713D01*
X103951287Y-73751896D01*
X103832712Y-73683437D01*
X103777739Y-73668707D01*
X104282749Y-73163696D01*
X104258312Y-73145942D01*
X104090718Y-73060548D01*
X103911833Y-73002425D01*
X103726048Y-72973000D01*
X103537952Y-72973000D01*
X103352168Y-73002425D01*
X103352165Y-73002425D01*
X103173281Y-73060548D01*
X103005681Y-73145945D01*
X102981249Y-73163696D01*
X102981248Y-73163696D01*
X103486260Y-73668707D01*
X103431288Y-73683437D01*
X103312713Y-73751896D01*
X103215896Y-73848713D01*
X103147437Y-73967288D01*
X103132707Y-74022260D01*
X102627696Y-73517248D01*
X102627696Y-73517249D01*
X102609945Y-73541681D01*
X102524549Y-73709280D01*
X102480193Y-73845792D01*
X102440755Y-73903467D01*
X102376396Y-73930665D01*
X102307550Y-73918750D01*
X102256074Y-73871506D01*
X102244331Y-73845790D01*
X102199916Y-73709092D01*
X102199914Y-73709086D01*
X102114616Y-73541681D01*
X102114484Y-73541421D01*
X102003877Y-73389184D01*
X101870816Y-73256123D01*
X101718579Y-73145516D01*
X101700093Y-73136097D01*
X101550913Y-73060085D01*
X101550910Y-73060084D01*
X101371948Y-73001937D01*
X101186093Y-72972500D01*
X101186088Y-72972500D01*
X100997912Y-72972500D01*
X100997907Y-72972500D01*
X100812051Y-73001937D01*
X100633089Y-73060084D01*
X100633086Y-73060085D01*
X100465420Y-73145516D01*
X100440398Y-73163696D01*
X100313184Y-73256123D01*
X100313182Y-73256125D01*
X100313181Y-73256125D01*
X100180125Y-73389181D01*
X100180125Y-73389182D01*
X100180123Y-73389184D01*
X100143228Y-73439966D01*
X100069516Y-73541420D01*
X99984085Y-73709086D01*
X99984084Y-73709089D01*
X99925937Y-73888051D01*
X99896500Y-74073906D01*
X99896500Y-74262093D01*
X99924657Y-74439869D01*
X99924658Y-74478662D01*
X99923000Y-74489132D01*
X99923000Y-75859000D01*
X99903315Y-75926039D01*
X99850511Y-75971794D01*
X99799000Y-75983000D01*
X98087202Y-75983000D01*
X98020163Y-75963315D01*
X97999521Y-75946681D01*
X97818819Y-75765979D01*
X97785334Y-75704656D01*
X97782500Y-75678298D01*
X97782500Y-63767701D01*
X97802185Y-63700662D01*
X97818819Y-63680020D01*
X100383021Y-61115819D01*
X100444344Y-61082334D01*
X100470702Y-61079500D01*
X122033299Y-61079500D01*
X122100338Y-61099185D01*
X122120980Y-61115819D01*
X124143681Y-63138520D01*
X124177166Y-63199843D01*
X124180000Y-63226201D01*
X124180000Y-73774349D01*
X124173931Y-73812667D01*
X124149437Y-73888051D01*
X124120000Y-74073906D01*
X124120000Y-74262093D01*
X124149436Y-74447947D01*
X124173931Y-74523332D01*
X124180000Y-74561650D01*
X124180000Y-76314349D01*
X124173931Y-76352667D01*
X124149437Y-76428051D01*
X124120000Y-76613906D01*
X124120000Y-76802093D01*
X124149437Y-76987948D01*
X124207584Y-77166909D01*
X124236934Y-77224513D01*
X124244378Y-77242485D01*
X124263191Y-77300382D01*
X124306001Y-77384401D01*
X124344333Y-77459632D01*
X124346814Y-77463047D01*
X124370297Y-77528851D01*
X124370500Y-77535937D01*
X124370500Y-79942578D01*
X124406814Y-80125138D01*
X124406816Y-80125146D01*
X124478052Y-80297127D01*
X124581467Y-80451898D01*
X124581473Y-80451906D01*
X126397594Y-82268026D01*
X126397598Y-82268029D01*
X126552368Y-82371444D01*
X126552374Y-82371447D01*
X126552375Y-82371448D01*
X126724354Y-82442684D01*
X126905815Y-82478779D01*
X126906921Y-82478999D01*
X126906924Y-82479000D01*
X126906926Y-82479000D01*
X127093075Y-82479000D01*
X153268000Y-82479000D01*
X153276685Y-82481550D01*
X153285647Y-82480262D01*
X153309687Y-82491240D01*
X153335039Y-82498685D01*
X153340966Y-82505525D01*
X153349203Y-82509287D01*
X153363492Y-82531521D01*
X153380794Y-82551489D01*
X153383081Y-82562003D01*
X153386977Y-82568065D01*
X153392000Y-82603000D01*
X153392000Y-82756341D01*
X153372315Y-82823380D01*
X153333098Y-82861879D01*
X153264344Y-82904287D01*
X153140289Y-83028342D01*
X153048187Y-83177663D01*
X153048185Y-83177668D01*
X153027656Y-83239620D01*
X152993001Y-83344203D01*
X152993001Y-83344204D01*
X152993000Y-83344204D01*
X152982500Y-83446983D01*
X152982500Y-84447001D01*
X152982501Y-84447019D01*
X152993000Y-84549796D01*
X152993001Y-84549799D01*
X153046205Y-84710357D01*
X153048186Y-84716334D01*
X153140288Y-84865656D01*
X153264344Y-84989712D01*
X153413666Y-85081814D01*
X153580203Y-85136999D01*
X153682991Y-85147500D01*
X154483008Y-85147499D01*
X154483016Y-85147498D01*
X154483019Y-85147498D01*
X154539302Y-85141748D01*
X154585797Y-85136999D01*
X154752334Y-85081814D01*
X154901656Y-84989712D01*
X154995319Y-84896049D01*
X155056642Y-84862564D01*
X155126334Y-84867548D01*
X155170681Y-84896049D01*
X155264344Y-84989712D01*
X155413666Y-85081814D01*
X155580203Y-85136999D01*
X155682991Y-85147500D01*
X156483008Y-85147499D01*
X156483016Y-85147498D01*
X156483019Y-85147498D01*
X156539302Y-85141748D01*
X156585797Y-85136999D01*
X156752334Y-85081814D01*
X156901656Y-84989712D01*
X157025712Y-84865656D01*
X157085759Y-84768302D01*
X157137704Y-84721580D01*
X157206666Y-84710357D01*
X157270749Y-84738200D01*
X157301865Y-84782139D01*
X157302953Y-84781546D01*
X157307206Y-84789335D01*
X157393452Y-84904544D01*
X157393455Y-84904547D01*
X157508664Y-84990793D01*
X157508671Y-84990797D01*
X157643517Y-85041091D01*
X157643516Y-85041091D01*
X157650444Y-85041835D01*
X157703127Y-85047500D01*
X158998872Y-85047499D01*
X159058483Y-85041091D01*
X159193331Y-84990796D01*
X159308546Y-84904546D01*
X159308548Y-84904542D01*
X159313676Y-84899416D01*
X159374999Y-84865931D01*
X159444691Y-84870915D01*
X159489038Y-84899416D01*
X159493812Y-84904190D01*
X159608906Y-84990350D01*
X159608913Y-84990354D01*
X159743620Y-85040596D01*
X159743627Y-85040598D01*
X159803155Y-85046999D01*
X159803172Y-85047000D01*
X160201000Y-85047000D01*
X160701000Y-85047000D01*
X161098828Y-85047000D01*
X161098844Y-85046999D01*
X161158372Y-85040598D01*
X161158379Y-85040596D01*
X161293086Y-84990354D01*
X161293093Y-84990350D01*
X161408187Y-84904190D01*
X161408190Y-84904187D01*
X161494350Y-84789093D01*
X161494354Y-84789086D01*
X161544596Y-84654379D01*
X161544598Y-84654372D01*
X161550999Y-84594844D01*
X161551000Y-84594827D01*
X161551000Y-84197000D01*
X160701000Y-84197000D01*
X160701000Y-85047000D01*
X160201000Y-85047000D01*
X160201000Y-83697000D01*
X160701000Y-83697000D01*
X161551000Y-83697000D01*
X161551000Y-83299172D01*
X161550999Y-83299155D01*
X161544598Y-83239627D01*
X161544596Y-83239620D01*
X161494354Y-83104913D01*
X161494350Y-83104906D01*
X161408190Y-82989812D01*
X161408187Y-82989809D01*
X161293093Y-82903649D01*
X161293086Y-82903645D01*
X161158379Y-82853403D01*
X161158372Y-82853401D01*
X161098844Y-82847000D01*
X160701000Y-82847000D01*
X160701000Y-83697000D01*
X160201000Y-83697000D01*
X160201000Y-82847000D01*
X159803155Y-82847000D01*
X159743627Y-82853401D01*
X159743620Y-82853403D01*
X159608913Y-82903645D01*
X159608906Y-82903649D01*
X159493812Y-82989809D01*
X159489038Y-82994584D01*
X159427715Y-83028069D01*
X159358023Y-83023085D01*
X159313676Y-82994584D01*
X159308544Y-82989452D01*
X159193335Y-82903206D01*
X159193328Y-82903202D01*
X159058482Y-82852908D01*
X159058483Y-82852908D01*
X158998883Y-82846501D01*
X158998881Y-82846500D01*
X158998873Y-82846500D01*
X158998864Y-82846500D01*
X157703129Y-82846500D01*
X157703123Y-82846501D01*
X157643516Y-82852908D01*
X157508671Y-82903202D01*
X157508664Y-82903206D01*
X157393455Y-82989452D01*
X157393452Y-82989455D01*
X157307206Y-83104664D01*
X157302953Y-83112454D01*
X157301638Y-83111736D01*
X157265597Y-83159872D01*
X157200131Y-83184283D01*
X157131859Y-83169425D01*
X157085758Y-83125695D01*
X157025712Y-83028344D01*
X156901656Y-82904288D01*
X156773999Y-82825549D01*
X156752336Y-82812187D01*
X156752331Y-82812185D01*
X156745526Y-82809930D01*
X156585797Y-82757001D01*
X156585795Y-82757000D01*
X156483010Y-82746500D01*
X155682998Y-82746500D01*
X155682980Y-82746501D01*
X155580203Y-82757000D01*
X155580200Y-82757001D01*
X155413668Y-82812185D01*
X155413663Y-82812187D01*
X155264342Y-82904289D01*
X155170681Y-82997951D01*
X155167788Y-82999530D01*
X155166062Y-83002339D01*
X155137331Y-83016161D01*
X155109358Y-83031436D01*
X155106070Y-83031200D01*
X155103100Y-83032630D01*
X155071462Y-83028725D01*
X155039666Y-83026452D01*
X155036051Y-83024356D01*
X155033757Y-83024073D01*
X155023252Y-83016934D01*
X155003689Y-83005590D01*
X154999336Y-83001968D01*
X154901656Y-82904288D01*
X154825436Y-82857275D01*
X154818689Y-82851661D01*
X154803908Y-82829642D01*
X154786178Y-82809930D01*
X154783876Y-82799803D01*
X154779746Y-82793650D01*
X154779481Y-82780464D01*
X154774000Y-82756341D01*
X154774000Y-82198793D01*
X154793685Y-82131754D01*
X154810319Y-82111112D01*
X155055045Y-81866386D01*
X164513000Y-81866386D01*
X164513000Y-82217613D01*
X164552322Y-82566604D01*
X164552324Y-82566620D01*
X164630476Y-82909028D01*
X164630480Y-82909040D01*
X164746474Y-83240530D01*
X164746480Y-83240544D01*
X164898862Y-83556969D01*
X165085722Y-83854354D01*
X165304702Y-84128948D01*
X165339074Y-84163320D01*
X166418946Y-83083447D01*
X166419588Y-83084330D01*
X166597670Y-83262412D01*
X166598551Y-83263052D01*
X165518679Y-84342924D01*
X165553056Y-84377301D01*
X165827645Y-84596277D01*
X166125030Y-84783137D01*
X166441455Y-84935519D01*
X166441469Y-84935525D01*
X166772959Y-85051519D01*
X166772971Y-85051523D01*
X167115379Y-85129675D01*
X167115395Y-85129677D01*
X167464386Y-85168999D01*
X167464388Y-85169000D01*
X167815612Y-85169000D01*
X167815613Y-85168999D01*
X168164604Y-85129677D01*
X168164620Y-85129675D01*
X168507028Y-85051523D01*
X168507040Y-85051519D01*
X168838530Y-84935525D01*
X168838544Y-84935519D01*
X169154969Y-84783137D01*
X169452354Y-84596277D01*
X169726948Y-84377297D01*
X169761320Y-84342924D01*
X168681448Y-83263052D01*
X168682330Y-83262412D01*
X168860412Y-83084330D01*
X168861052Y-83083448D01*
X169940924Y-84163320D01*
X169940925Y-84163320D01*
X169975297Y-84128948D01*
X170194277Y-83854354D01*
X170381137Y-83556969D01*
X170533519Y-83240544D01*
X170533525Y-83240530D01*
X170649519Y-82909040D01*
X170649523Y-82909028D01*
X170727675Y-82566620D01*
X170727677Y-82566604D01*
X170766999Y-82217613D01*
X170767000Y-82217611D01*
X170767000Y-81866388D01*
X170766999Y-81866386D01*
X170727677Y-81517395D01*
X170727675Y-81517379D01*
X170649523Y-81174971D01*
X170649519Y-81174959D01*
X170533525Y-80843469D01*
X170533519Y-80843455D01*
X170381137Y-80527030D01*
X170194277Y-80229645D01*
X169975297Y-79955051D01*
X169940925Y-79920679D01*
X169940924Y-79920679D01*
X168861052Y-81000551D01*
X168860412Y-80999670D01*
X168682330Y-80821588D01*
X168681447Y-80820946D01*
X169761320Y-79741074D01*
X169726948Y-79706702D01*
X169452354Y-79487722D01*
X169154969Y-79300862D01*
X168838544Y-79148480D01*
X168838530Y-79148474D01*
X168507040Y-79032480D01*
X168507028Y-79032476D01*
X168164620Y-78954324D01*
X168164604Y-78954322D01*
X167815613Y-78915000D01*
X167464386Y-78915000D01*
X167115395Y-78954322D01*
X167115379Y-78954324D01*
X166772971Y-79032476D01*
X166772959Y-79032480D01*
X166441469Y-79148474D01*
X166441455Y-79148480D01*
X166125030Y-79300862D01*
X165827645Y-79487722D01*
X165553047Y-79706706D01*
X165518679Y-79741073D01*
X166598552Y-80820946D01*
X166597670Y-80821588D01*
X166419588Y-80999670D01*
X166418947Y-81000552D01*
X165339074Y-79920679D01*
X165339073Y-79920679D01*
X165304706Y-79955047D01*
X165085722Y-80229645D01*
X164898862Y-80527030D01*
X164746480Y-80843455D01*
X164746474Y-80843469D01*
X164630480Y-81174959D01*
X164630476Y-81174971D01*
X164552324Y-81517379D01*
X164552322Y-81517395D01*
X164513000Y-81866386D01*
X155055045Y-81866386D01*
X155146200Y-81775231D01*
X157319403Y-79602029D01*
X157981526Y-78939905D01*
X157981529Y-78939902D01*
X158084948Y-78785125D01*
X158156184Y-78613146D01*
X158192500Y-78430574D01*
X158192500Y-78244425D01*
X158192500Y-76775000D01*
X158212185Y-76707961D01*
X158264989Y-76662206D01*
X158316500Y-76651000D01*
X158975554Y-76651000D01*
X159018888Y-76658819D01*
X159062508Y-76675088D01*
X159062511Y-76675088D01*
X159062517Y-76675091D01*
X159122127Y-76681500D01*
X160967872Y-76681499D01*
X161027483Y-76675091D01*
X161162331Y-76624796D01*
X161277546Y-76538546D01*
X161363796Y-76423331D01*
X161414091Y-76288483D01*
X161420500Y-76228873D01*
X161420499Y-75183128D01*
X161414091Y-75123517D01*
X161397814Y-75079877D01*
X161397429Y-75078844D01*
X164970000Y-75078844D01*
X164976401Y-75138372D01*
X164976403Y-75138379D01*
X165026645Y-75273086D01*
X165026649Y-75273093D01*
X165112809Y-75388187D01*
X165112812Y-75388190D01*
X165227906Y-75474350D01*
X165227913Y-75474354D01*
X165362620Y-75524596D01*
X165362627Y-75524598D01*
X165422155Y-75530999D01*
X165422172Y-75531000D01*
X166095000Y-75531000D01*
X166595000Y-75531000D01*
X167267828Y-75531000D01*
X167267844Y-75530999D01*
X167327372Y-75524598D01*
X167327379Y-75524596D01*
X167462086Y-75474354D01*
X167462093Y-75474350D01*
X167577187Y-75388190D01*
X167577190Y-75388187D01*
X167663350Y-75273093D01*
X167663354Y-75273086D01*
X167713596Y-75138379D01*
X167713598Y-75138372D01*
X167719999Y-75078844D01*
X167720000Y-75078827D01*
X167720000Y-73656000D01*
X166595000Y-73656000D01*
X166595000Y-75531000D01*
X166095000Y-75531000D01*
X166095000Y-73656000D01*
X164970000Y-73656000D01*
X164970000Y-75078844D01*
X161397429Y-75078844D01*
X161363797Y-74988671D01*
X161363793Y-74988664D01*
X161277547Y-74873455D01*
X161277544Y-74873452D01*
X161162335Y-74787206D01*
X161162328Y-74787202D01*
X161027482Y-74736908D01*
X161027483Y-74736908D01*
X160967883Y-74730501D01*
X160967881Y-74730500D01*
X160967873Y-74730500D01*
X160967864Y-74730500D01*
X159122129Y-74730500D01*
X159122123Y-74730501D01*
X159062518Y-74736908D01*
X159034736Y-74747270D01*
X159018886Y-74753182D01*
X158975554Y-74761000D01*
X158104568Y-74761000D01*
X158039472Y-74742539D01*
X157904340Y-74659189D01*
X157904335Y-74659187D01*
X157904334Y-74659186D01*
X157737797Y-74604001D01*
X157737795Y-74604000D01*
X157635010Y-74593500D01*
X156859998Y-74593500D01*
X156859980Y-74593501D01*
X156757203Y-74604000D01*
X156757200Y-74604001D01*
X156590668Y-74659185D01*
X156590663Y-74659187D01*
X156441342Y-74751289D01*
X156317288Y-74875343D01*
X156317283Y-74875349D01*
X156315241Y-74878661D01*
X156313247Y-74880453D01*
X156312807Y-74881011D01*
X156312711Y-74880935D01*
X156263291Y-74925383D01*
X156194328Y-74936602D01*
X156130247Y-74908755D01*
X156104168Y-74878656D01*
X156102319Y-74875659D01*
X156102316Y-74875655D01*
X155978345Y-74751684D01*
X155829124Y-74659643D01*
X155829119Y-74659641D01*
X155662697Y-74604494D01*
X155662690Y-74604493D01*
X155559986Y-74594000D01*
X155422500Y-74594000D01*
X155422500Y-77043999D01*
X155559972Y-77043999D01*
X155559986Y-77043998D01*
X155662697Y-77033505D01*
X155829119Y-76978358D01*
X155829124Y-76978356D01*
X155978345Y-76886315D01*
X156090819Y-76773842D01*
X156152142Y-76740357D01*
X156221834Y-76745341D01*
X156277767Y-76787213D01*
X156302184Y-76852677D01*
X156302500Y-76861523D01*
X156302500Y-77894706D01*
X156282815Y-77961745D01*
X156266181Y-77982387D01*
X153695887Y-80552681D01*
X153634564Y-80586166D01*
X153608206Y-80589000D01*
X127442793Y-80589000D01*
X127375754Y-80569315D01*
X127355112Y-80552681D01*
X126296819Y-79494387D01*
X126263334Y-79433064D01*
X126260500Y-79406706D01*
X126260500Y-77535937D01*
X126280185Y-77468898D01*
X126284177Y-77463058D01*
X126286667Y-77459632D01*
X126367809Y-77300381D01*
X126386631Y-77242450D01*
X126388735Y-77236499D01*
X126391077Y-77230376D01*
X126423414Y-77166913D01*
X126468817Y-77027173D01*
X126469948Y-77024219D01*
X126489267Y-76998858D01*
X126507267Y-76972533D01*
X126510296Y-76971252D01*
X126512288Y-76968638D01*
X126542251Y-76957748D01*
X126571626Y-76945334D01*
X126574865Y-76945894D01*
X126577955Y-76944772D01*
X126609048Y-76951810D01*
X126640472Y-76957248D01*
X126642894Y-76959471D01*
X126646101Y-76960197D01*
X126668451Y-76982926D01*
X126691949Y-77004491D01*
X126693936Y-77008842D01*
X126695089Y-77010015D01*
X126695608Y-77012504D01*
X126703693Y-77030207D01*
X126748049Y-77166719D01*
X126833442Y-77334312D01*
X126851196Y-77358749D01*
X127356207Y-76853738D01*
X127370937Y-76908712D01*
X127439396Y-77027287D01*
X127536213Y-77124104D01*
X127654788Y-77192563D01*
X127709759Y-77207292D01*
X127204748Y-77712302D01*
X127204749Y-77712303D01*
X127229180Y-77730053D01*
X127396781Y-77815451D01*
X127575666Y-77873574D01*
X127761452Y-77903000D01*
X127949548Y-77903000D01*
X128135331Y-77873574D01*
X128135334Y-77873574D01*
X128314218Y-77815451D01*
X128481816Y-77730055D01*
X128506249Y-77712303D01*
X128506249Y-77712302D01*
X128001240Y-77207292D01*
X128056212Y-77192563D01*
X128174787Y-77124104D01*
X128271604Y-77027287D01*
X128340063Y-76908712D01*
X128354792Y-76853739D01*
X128859802Y-77358749D01*
X128859803Y-77358749D01*
X128877555Y-77334316D01*
X128962951Y-77166718D01*
X129007306Y-77030208D01*
X129046743Y-76972533D01*
X129111102Y-76945334D01*
X129179948Y-76957248D01*
X129231424Y-77004492D01*
X129243168Y-77030208D01*
X129287584Y-77166910D01*
X129287585Y-77166913D01*
X129341130Y-77272000D01*
X129373016Y-77334579D01*
X129483623Y-77486816D01*
X129616684Y-77619877D01*
X129768921Y-77730484D01*
X129851156Y-77772384D01*
X129936586Y-77815914D01*
X129936589Y-77815915D01*
X130026070Y-77844988D01*
X130115553Y-77874063D01*
X130201632Y-77887696D01*
X130301407Y-77903500D01*
X130301412Y-77903500D01*
X130489593Y-77903500D01*
X130579693Y-77889228D01*
X130675447Y-77874063D01*
X130854413Y-77815914D01*
X131022079Y-77730484D01*
X131174316Y-77619877D01*
X131307377Y-77486816D01*
X131417984Y-77334579D01*
X131503414Y-77166913D01*
X131546760Y-77033506D01*
X131547569Y-77031017D01*
X131587006Y-76973342D01*
X131651365Y-76946143D01*
X131720211Y-76958057D01*
X131771687Y-77005301D01*
X131783431Y-77031017D01*
X131827584Y-77166910D01*
X131827585Y-77166913D01*
X131881130Y-77272000D01*
X131913016Y-77334579D01*
X132023623Y-77486816D01*
X132156684Y-77619877D01*
X132308921Y-77730484D01*
X132391156Y-77772384D01*
X132476586Y-77815914D01*
X132476589Y-77815915D01*
X132566070Y-77844988D01*
X132655553Y-77874063D01*
X132741632Y-77887696D01*
X132841407Y-77903500D01*
X132841412Y-77903500D01*
X133029593Y-77903500D01*
X133119693Y-77889228D01*
X133215447Y-77874063D01*
X133394413Y-77815914D01*
X133562079Y-77730484D01*
X133714316Y-77619877D01*
X133847377Y-77486816D01*
X133957984Y-77334579D01*
X134043414Y-77166913D01*
X134086760Y-77033506D01*
X134087569Y-77031017D01*
X134127006Y-76973342D01*
X134191365Y-76946143D01*
X134260211Y-76958057D01*
X134311687Y-77005301D01*
X134323431Y-77031017D01*
X134367584Y-77166910D01*
X134367585Y-77166913D01*
X134421130Y-77272000D01*
X134453016Y-77334579D01*
X134563623Y-77486816D01*
X134696684Y-77619877D01*
X134848921Y-77730484D01*
X134931156Y-77772384D01*
X135016586Y-77815914D01*
X135016589Y-77815915D01*
X135106070Y-77844988D01*
X135195553Y-77874063D01*
X135281632Y-77887696D01*
X135381407Y-77903500D01*
X135381412Y-77903500D01*
X135569593Y-77903500D01*
X135659693Y-77889228D01*
X135755447Y-77874063D01*
X135934413Y-77815914D01*
X136102079Y-77730484D01*
X136254316Y-77619877D01*
X136387377Y-77486816D01*
X136497984Y-77334579D01*
X136583414Y-77166913D01*
X136626760Y-77033506D01*
X136627569Y-77031017D01*
X136667006Y-76973342D01*
X136731365Y-76946143D01*
X136800211Y-76958057D01*
X136851687Y-77005301D01*
X136863431Y-77031017D01*
X136907584Y-77166910D01*
X136907585Y-77166913D01*
X136961130Y-77272000D01*
X136993016Y-77334579D01*
X137103623Y-77486816D01*
X137236684Y-77619877D01*
X137388921Y-77730484D01*
X137471156Y-77772384D01*
X137556586Y-77815914D01*
X137556589Y-77815915D01*
X137646070Y-77844988D01*
X137735553Y-77874063D01*
X137821632Y-77887696D01*
X137921407Y-77903500D01*
X137921412Y-77903500D01*
X138109593Y-77903500D01*
X138199693Y-77889228D01*
X138295447Y-77874063D01*
X138474413Y-77815914D01*
X138642079Y-77730484D01*
X138794316Y-77619877D01*
X138927377Y-77486816D01*
X139037984Y-77334579D01*
X139037985Y-77334576D01*
X139040048Y-77331211D01*
X139091859Y-77284335D01*
X139145776Y-77272000D01*
X150563060Y-77272000D01*
X150652870Y-77254134D01*
X150696557Y-77245445D01*
X150822311Y-77193356D01*
X150825256Y-77191388D01*
X150935487Y-77117735D01*
X151514678Y-76538544D01*
X151709236Y-76343986D01*
X154085001Y-76343986D01*
X154095494Y-76446697D01*
X154150641Y-76613119D01*
X154150643Y-76613124D01*
X154242684Y-76762345D01*
X154366654Y-76886315D01*
X154515875Y-76978356D01*
X154515880Y-76978358D01*
X154682302Y-77033505D01*
X154682309Y-77033506D01*
X154785019Y-77043999D01*
X154922499Y-77043999D01*
X154922500Y-77043998D01*
X154922500Y-76069000D01*
X154085001Y-76069000D01*
X154085001Y-76343986D01*
X151709236Y-76343986D01*
X152123266Y-75929957D01*
X152759210Y-75294013D01*
X154085000Y-75294013D01*
X154085000Y-75569000D01*
X154922500Y-75569000D01*
X154922500Y-74594000D01*
X154785027Y-74594000D01*
X154785012Y-74594001D01*
X154682302Y-74604494D01*
X154515880Y-74659641D01*
X154515875Y-74659643D01*
X154366654Y-74751684D01*
X154242684Y-74875654D01*
X154150643Y-75024875D01*
X154150641Y-75024880D01*
X154095494Y-75191302D01*
X154095493Y-75191309D01*
X154085000Y-75294013D01*
X152759210Y-75294013D01*
X154124379Y-73928844D01*
X158670000Y-73928844D01*
X158676401Y-73988372D01*
X158676403Y-73988379D01*
X158726645Y-74123086D01*
X158726649Y-74123093D01*
X158812809Y-74238187D01*
X158812812Y-74238190D01*
X158927906Y-74324350D01*
X158927913Y-74324354D01*
X159062620Y-74374596D01*
X159062627Y-74374598D01*
X159122155Y-74380999D01*
X159122172Y-74381000D01*
X159795000Y-74381000D01*
X160295000Y-74381000D01*
X160967828Y-74381000D01*
X160967844Y-74380999D01*
X161027372Y-74374598D01*
X161027379Y-74374596D01*
X161162086Y-74324354D01*
X161162093Y-74324350D01*
X161277187Y-74238190D01*
X161277190Y-74238187D01*
X161363350Y-74123093D01*
X161363354Y-74123086D01*
X161413596Y-73988379D01*
X161413598Y-73988372D01*
X161419999Y-73928844D01*
X161420000Y-73928827D01*
X161420000Y-73656000D01*
X160295000Y-73656000D01*
X160295000Y-74381000D01*
X159795000Y-74381000D01*
X159795000Y-73656000D01*
X158670000Y-73656000D01*
X158670000Y-73928844D01*
X154124379Y-73928844D01*
X155170068Y-72883155D01*
X158670000Y-72883155D01*
X158670000Y-73156000D01*
X159795000Y-73156000D01*
X160295000Y-73156000D01*
X161420000Y-73156000D01*
X161420000Y-72883172D01*
X161419999Y-72883155D01*
X161413598Y-72823627D01*
X161413596Y-72823620D01*
X161363354Y-72688913D01*
X161363350Y-72688906D01*
X161277190Y-72573812D01*
X161277187Y-72573809D01*
X161162093Y-72487649D01*
X161162086Y-72487645D01*
X161027379Y-72437403D01*
X161027372Y-72437401D01*
X160967844Y-72431000D01*
X160295000Y-72431000D01*
X160295000Y-73156000D01*
X159795000Y-73156000D01*
X159795000Y-72431000D01*
X159122155Y-72431000D01*
X159062627Y-72437401D01*
X159062620Y-72437403D01*
X158927913Y-72487645D01*
X158927906Y-72487649D01*
X158812812Y-72573809D01*
X158812809Y-72573812D01*
X158726649Y-72688906D01*
X158726645Y-72688913D01*
X158676403Y-72823620D01*
X158676401Y-72823627D01*
X158670000Y-72883155D01*
X155170068Y-72883155D01*
X155261053Y-72792170D01*
X158016732Y-70036489D01*
X158016731Y-70036489D01*
X158016735Y-70036486D01*
X158092356Y-69923311D01*
X158144445Y-69797557D01*
X158163301Y-69702762D01*
X158164991Y-69694267D01*
X158164991Y-69694264D01*
X158171000Y-69664058D01*
X158171000Y-68908447D01*
X158190685Y-68841408D01*
X158238704Y-68797963D01*
X158341382Y-68745647D01*
X158550668Y-68593592D01*
X158662319Y-68481941D01*
X158723642Y-68448456D01*
X158793334Y-68453440D01*
X158837681Y-68481941D01*
X158949335Y-68593595D01*
X159048884Y-68665920D01*
X159091551Y-68721250D01*
X159100000Y-68766239D01*
X159100000Y-70036833D01*
X159080315Y-70103872D01*
X159027511Y-70149627D01*
X159019333Y-70153015D01*
X158927671Y-70187202D01*
X158927664Y-70187206D01*
X158812455Y-70273452D01*
X158812452Y-70273455D01*
X158726206Y-70388664D01*
X158726202Y-70388671D01*
X158675908Y-70523517D01*
X158672168Y-70558311D01*
X158669501Y-70583123D01*
X158669500Y-70583135D01*
X158669500Y-71628870D01*
X158669501Y-71628876D01*
X158675908Y-71688483D01*
X158726202Y-71823328D01*
X158726206Y-71823335D01*
X158812452Y-71938544D01*
X158812455Y-71938547D01*
X158927664Y-72024793D01*
X158927671Y-72024797D01*
X159062517Y-72075091D01*
X159062516Y-72075091D01*
X159069444Y-72075835D01*
X159122127Y-72081500D01*
X160967872Y-72081499D01*
X161027483Y-72075091D01*
X161162331Y-72024796D01*
X161277546Y-71938546D01*
X161363796Y-71823331D01*
X161397429Y-71733155D01*
X164970000Y-71733155D01*
X164970000Y-73156000D01*
X166095000Y-73156000D01*
X166595000Y-73156000D01*
X167720000Y-73156000D01*
X167720000Y-71733172D01*
X167719999Y-71733155D01*
X167713598Y-71673627D01*
X167713596Y-71673620D01*
X167663354Y-71538913D01*
X167663350Y-71538906D01*
X167577190Y-71423812D01*
X167577187Y-71423809D01*
X167462093Y-71337649D01*
X167462086Y-71337645D01*
X167327379Y-71287403D01*
X167327372Y-71287401D01*
X167267844Y-71281000D01*
X166595000Y-71281000D01*
X166595000Y-73156000D01*
X166095000Y-73156000D01*
X166095000Y-71281000D01*
X165422155Y-71281000D01*
X165362627Y-71287401D01*
X165362620Y-71287403D01*
X165227913Y-71337645D01*
X165227906Y-71337649D01*
X165112812Y-71423809D01*
X165112809Y-71423812D01*
X165026649Y-71538906D01*
X165026645Y-71538913D01*
X164976403Y-71673620D01*
X164976401Y-71673627D01*
X164970000Y-71733155D01*
X161397429Y-71733155D01*
X161414091Y-71688483D01*
X161420500Y-71628873D01*
X161420499Y-70583128D01*
X161414091Y-70523517D01*
X161379700Y-70431311D01*
X161363797Y-70388671D01*
X161363793Y-70388664D01*
X161277547Y-70273455D01*
X161277544Y-70273452D01*
X161162335Y-70187206D01*
X161162328Y-70187202D01*
X161070667Y-70153015D01*
X161014733Y-70111144D01*
X160990316Y-70045679D01*
X160990000Y-70036833D01*
X160990000Y-68729912D01*
X161009685Y-68662873D01*
X161041116Y-68629593D01*
X161090664Y-68593595D01*
X161090664Y-68593594D01*
X161090668Y-68593592D01*
X161273592Y-68410668D01*
X161425647Y-68201382D01*
X161543091Y-67970885D01*
X161623032Y-67724854D01*
X161641017Y-67611294D01*
X161663500Y-67469351D01*
X161663500Y-67210648D01*
X161623032Y-66955149D01*
X161623032Y-66955146D01*
X161543091Y-66709115D01*
X161425647Y-66478618D01*
X161273592Y-66269332D01*
X161090668Y-66086408D01*
X160881382Y-65934353D01*
X160798939Y-65892346D01*
X160673205Y-65828281D01*
X160622409Y-65780306D01*
X160605500Y-65717796D01*
X160605500Y-64707946D01*
X160625185Y-64640907D01*
X160664400Y-64602410D01*
X160720656Y-64567712D01*
X160844712Y-64443656D01*
X160936814Y-64294334D01*
X160991999Y-64127797D01*
X161002500Y-64025009D01*
X161002499Y-62974992D01*
X160991999Y-62872203D01*
X160936814Y-62705666D01*
X160844712Y-62556344D01*
X160720656Y-62432288D01*
X160571334Y-62340186D01*
X160404797Y-62285001D01*
X160404795Y-62285000D01*
X160302010Y-62274500D01*
X159526998Y-62274500D01*
X159526980Y-62274501D01*
X159424203Y-62285000D01*
X159424200Y-62285001D01*
X159257668Y-62340185D01*
X159257663Y-62340187D01*
X159108342Y-62432289D01*
X158984288Y-62556343D01*
X158984283Y-62556349D01*
X158982241Y-62559661D01*
X158980247Y-62561453D01*
X158979807Y-62562011D01*
X158979711Y-62561935D01*
X158930291Y-62606383D01*
X158861328Y-62617602D01*
X158797247Y-62589755D01*
X158771168Y-62559656D01*
X158769319Y-62556659D01*
X158769316Y-62556655D01*
X158645345Y-62432684D01*
X158496124Y-62340643D01*
X158496119Y-62340641D01*
X158329697Y-62285494D01*
X158329690Y-62285493D01*
X158226986Y-62275000D01*
X158089500Y-62275000D01*
X158089500Y-64724999D01*
X158226972Y-64724999D01*
X158226986Y-64724998D01*
X158329697Y-64714505D01*
X158496119Y-64659358D01*
X158496124Y-64659356D01*
X158645345Y-64567315D01*
X158769318Y-64443342D01*
X158771165Y-64440348D01*
X158772969Y-64438724D01*
X158773798Y-64437677D01*
X158773976Y-64437818D01*
X158823110Y-64393621D01*
X158892073Y-64382396D01*
X158956156Y-64410236D01*
X158982243Y-64440341D01*
X158984288Y-64443656D01*
X159108344Y-64567712D01*
X159164598Y-64602409D01*
X159211321Y-64654354D01*
X159223500Y-64707946D01*
X159223500Y-65825307D01*
X159203815Y-65892346D01*
X159161849Y-65930315D01*
X159162766Y-65931811D01*
X159158621Y-65934350D01*
X158949333Y-66086407D01*
X158837681Y-66198059D01*
X158776358Y-66231543D01*
X158706666Y-66226559D01*
X158662319Y-66198059D01*
X158550668Y-66086408D01*
X158341382Y-65934353D01*
X158110885Y-65816909D01*
X157864854Y-65736968D01*
X157864852Y-65736967D01*
X157864850Y-65736967D01*
X157609351Y-65696500D01*
X157609346Y-65696500D01*
X157350654Y-65696500D01*
X157350649Y-65696500D01*
X157095149Y-65736967D01*
X156849112Y-65816910D01*
X156618617Y-65934353D01*
X156409333Y-66086407D01*
X156297681Y-66198059D01*
X156236358Y-66231543D01*
X156166666Y-66226559D01*
X156122319Y-66198059D01*
X156010668Y-66086408D01*
X155801382Y-65934353D01*
X155570885Y-65816909D01*
X155324854Y-65736968D01*
X155324852Y-65736967D01*
X155324850Y-65736967D01*
X155069351Y-65696500D01*
X155069346Y-65696500D01*
X154810654Y-65696500D01*
X154810649Y-65696500D01*
X154555149Y-65736967D01*
X154309112Y-65816910D01*
X154078617Y-65934353D01*
X153869333Y-66086407D01*
X153757681Y-66198059D01*
X153696358Y-66231543D01*
X153626666Y-66226559D01*
X153582319Y-66198059D01*
X153470668Y-66086408D01*
X153261382Y-65934353D01*
X153030885Y-65816909D01*
X152784854Y-65736968D01*
X152784852Y-65736967D01*
X152784850Y-65736967D01*
X152529351Y-65696500D01*
X152529346Y-65696500D01*
X152270654Y-65696500D01*
X152270649Y-65696500D01*
X152015149Y-65736967D01*
X151769112Y-65816910D01*
X151538617Y-65934353D01*
X151329333Y-66086407D01*
X151217681Y-66198059D01*
X151156358Y-66231543D01*
X151086666Y-66226559D01*
X151042319Y-66198059D01*
X150930668Y-66086408D01*
X150721382Y-65934353D01*
X150490885Y-65816909D01*
X150244854Y-65736968D01*
X150244852Y-65736967D01*
X150244850Y-65736967D01*
X149989351Y-65696500D01*
X149989346Y-65696500D01*
X149730654Y-65696500D01*
X149730649Y-65696500D01*
X149475149Y-65736967D01*
X149229112Y-65816910D01*
X148998617Y-65934353D01*
X148789333Y-66086407D01*
X148677681Y-66198059D01*
X148616358Y-66231543D01*
X148546666Y-66226559D01*
X148502319Y-66198059D01*
X148390668Y-66086408D01*
X148181382Y-65934353D01*
X147950885Y-65816909D01*
X147704854Y-65736968D01*
X147704852Y-65736967D01*
X147704850Y-65736967D01*
X147449351Y-65696500D01*
X147449346Y-65696500D01*
X147190654Y-65696500D01*
X147190649Y-65696500D01*
X146935149Y-65736967D01*
X146689112Y-65816910D01*
X146458617Y-65934353D01*
X146249333Y-66086407D01*
X146137681Y-66198059D01*
X146076358Y-66231543D01*
X146006666Y-66226559D01*
X145962319Y-66198059D01*
X145850668Y-66086408D01*
X145641382Y-65934353D01*
X145410885Y-65816909D01*
X145164854Y-65736968D01*
X145164852Y-65736967D01*
X145164850Y-65736967D01*
X144909351Y-65696500D01*
X144909346Y-65696500D01*
X144650654Y-65696500D01*
X144650649Y-65696500D01*
X144395149Y-65736967D01*
X144149112Y-65816910D01*
X143918617Y-65934353D01*
X143709333Y-66086407D01*
X143597681Y-66198059D01*
X143536358Y-66231543D01*
X143466666Y-66226559D01*
X143422319Y-66198059D01*
X143310668Y-66086408D01*
X143101382Y-65934353D01*
X142870885Y-65816909D01*
X142624854Y-65736968D01*
X142624852Y-65736967D01*
X142624850Y-65736967D01*
X142369351Y-65696500D01*
X142369346Y-65696500D01*
X142110654Y-65696500D01*
X142110649Y-65696500D01*
X141855149Y-65736967D01*
X141609112Y-65816910D01*
X141378617Y-65934353D01*
X141169333Y-66086407D01*
X141057681Y-66198059D01*
X140996358Y-66231543D01*
X140926666Y-66226559D01*
X140882319Y-66198059D01*
X140770668Y-66086408D01*
X140561382Y-65934353D01*
X140330885Y-65816909D01*
X140084854Y-65736968D01*
X140084852Y-65736967D01*
X140084850Y-65736967D01*
X139829351Y-65696500D01*
X139829346Y-65696500D01*
X139570654Y-65696500D01*
X139570649Y-65696500D01*
X139315149Y-65736967D01*
X139069112Y-65816910D01*
X138838617Y-65934353D01*
X138629329Y-66086410D01*
X138446410Y-66269329D01*
X138294353Y-66478617D01*
X138242036Y-66581295D01*
X138194061Y-66632091D01*
X138131551Y-66649000D01*
X131092938Y-66649000D01*
X130978438Y-66671776D01*
X130978437Y-66671776D01*
X130966998Y-66674051D01*
X130959440Y-66675555D01*
X130959439Y-66675555D01*
X130833694Y-66727640D01*
X130833681Y-66727647D01*
X130720513Y-66803264D01*
X130720509Y-66803267D01*
X129858767Y-67665009D01*
X129858761Y-67665017D01*
X129796291Y-67758510D01*
X129796292Y-67758511D01*
X129783143Y-67778190D01*
X129731055Y-67903942D01*
X129731053Y-67903948D01*
X129704500Y-68037439D01*
X129704500Y-73129139D01*
X129684815Y-73196178D01*
X129653387Y-73229456D01*
X129616684Y-73256122D01*
X129483625Y-73389181D01*
X129483625Y-73389182D01*
X129483623Y-73389184D01*
X129446728Y-73439966D01*
X129373016Y-73541420D01*
X129287585Y-73709086D01*
X129287584Y-73709089D01*
X129243168Y-73845791D01*
X129203731Y-73903466D01*
X129139372Y-73930665D01*
X129070526Y-73918750D01*
X129019050Y-73871506D01*
X129007306Y-73845791D01*
X128962951Y-73709281D01*
X128877553Y-73541680D01*
X128859803Y-73517249D01*
X128859802Y-73517248D01*
X128354792Y-74022259D01*
X128340063Y-73967288D01*
X128271604Y-73848713D01*
X128174787Y-73751896D01*
X128056212Y-73683437D01*
X128001239Y-73668707D01*
X128506249Y-73163696D01*
X128481812Y-73145942D01*
X128314218Y-73060548D01*
X128135333Y-73002425D01*
X127949548Y-72973000D01*
X127761452Y-72973000D01*
X127575668Y-73002425D01*
X127575665Y-73002425D01*
X127396781Y-73060548D01*
X127229181Y-73145945D01*
X127204749Y-73163696D01*
X127204748Y-73163696D01*
X127709760Y-73668707D01*
X127654788Y-73683437D01*
X127536213Y-73751896D01*
X127439396Y-73848713D01*
X127370937Y-73967288D01*
X127356207Y-74022260D01*
X126851196Y-73517248D01*
X126851196Y-73517249D01*
X126833445Y-73541681D01*
X126748049Y-73709280D01*
X126703693Y-73845792D01*
X126685889Y-73871827D01*
X126669606Y-73898830D01*
X126666321Y-73900444D01*
X126664255Y-73903467D01*
X126635202Y-73915744D01*
X126606905Y-73929657D01*
X126603268Y-73929239D01*
X126599896Y-73930665D01*
X126568812Y-73925285D01*
X126537491Y-73921691D01*
X126534657Y-73919374D01*
X126531050Y-73918750D01*
X126507809Y-73897420D01*
X126483402Y-73877462D01*
X126481213Y-73873010D01*
X126479574Y-73871506D01*
X126467832Y-73845795D01*
X126457067Y-73812662D01*
X126451000Y-73774349D01*
X126451000Y-64024986D01*
X156752001Y-64024986D01*
X156762494Y-64127697D01*
X156817641Y-64294119D01*
X156817643Y-64294124D01*
X156909684Y-64443345D01*
X157033654Y-64567315D01*
X157182875Y-64659356D01*
X157182880Y-64659358D01*
X157349302Y-64714505D01*
X157349309Y-64714506D01*
X157452019Y-64724999D01*
X157589499Y-64724999D01*
X157589500Y-64724998D01*
X157589500Y-63750000D01*
X156752001Y-63750000D01*
X156752001Y-64024986D01*
X126451000Y-64024986D01*
X126451000Y-62975013D01*
X156752000Y-62975013D01*
X156752000Y-63250000D01*
X157589500Y-63250000D01*
X157589500Y-62275000D01*
X157452027Y-62275000D01*
X157452012Y-62275001D01*
X157349302Y-62285494D01*
X157182880Y-62340641D01*
X157182875Y-62340643D01*
X157033654Y-62432684D01*
X156909684Y-62556654D01*
X156817643Y-62705875D01*
X156817641Y-62705880D01*
X156762494Y-62872302D01*
X156762493Y-62872309D01*
X156752000Y-62975013D01*
X126451000Y-62975013D01*
X126451000Y-62615129D01*
X126433758Y-62506274D01*
X126433758Y-62506269D01*
X126423041Y-62438603D01*
X126420989Y-62432288D01*
X126367810Y-62268620D01*
X126367808Y-62268617D01*
X126367808Y-62268615D01*
X126301490Y-62138460D01*
X126301490Y-62138459D01*
X126301488Y-62138457D01*
X126286668Y-62109369D01*
X126251648Y-62061169D01*
X126181611Y-61964772D01*
X126055228Y-61838389D01*
X123294728Y-59077889D01*
X123150132Y-58972833D01*
X122990881Y-58891691D01*
X122990875Y-58891688D01*
X122949194Y-58878146D01*
X122882453Y-58856460D01*
X122820897Y-58836459D01*
X122820895Y-58836458D01*
X122820894Y-58836458D01*
X122644370Y-58808500D01*
X122644366Y-58808500D01*
X100470702Y-58808500D01*
X100403663Y-58788815D01*
X100383021Y-58772181D01*
X97691819Y-56080979D01*
X97658334Y-56019656D01*
X97655500Y-55993298D01*
X97655500Y-51970648D01*
X99956500Y-51970648D01*
X99956500Y-52229351D01*
X99996949Y-52484734D01*
X99996968Y-52484854D01*
X100076909Y-52730885D01*
X100194353Y-52961382D01*
X100346408Y-53170668D01*
X100529332Y-53353592D01*
X100738618Y-53505647D01*
X100969115Y-53623091D01*
X101215146Y-53703032D01*
X101310961Y-53718207D01*
X101470649Y-53743500D01*
X101470654Y-53743500D01*
X101729351Y-53743500D01*
X101871294Y-53721017D01*
X101984854Y-53703032D01*
X102230885Y-53623091D01*
X102461382Y-53505647D01*
X102670668Y-53353592D01*
X102782319Y-53241941D01*
X102843642Y-53208456D01*
X102913334Y-53213440D01*
X102957681Y-53241941D01*
X103069332Y-53353592D01*
X103278618Y-53505647D01*
X103509115Y-53623091D01*
X103755146Y-53703032D01*
X103850961Y-53718207D01*
X104010649Y-53743500D01*
X104010654Y-53743500D01*
X104269351Y-53743500D01*
X104411294Y-53721017D01*
X104524854Y-53703032D01*
X104770885Y-53623091D01*
X105001382Y-53505647D01*
X105210668Y-53353592D01*
X105322319Y-53241941D01*
X105383642Y-53208456D01*
X105453334Y-53213440D01*
X105497681Y-53241941D01*
X105609332Y-53353592D01*
X105818618Y-53505647D01*
X106049115Y-53623091D01*
X106295146Y-53703032D01*
X106390961Y-53718207D01*
X106550649Y-53743500D01*
X106550654Y-53743500D01*
X106809351Y-53743500D01*
X106951294Y-53721017D01*
X107064854Y-53703032D01*
X107310885Y-53623091D01*
X107541382Y-53505647D01*
X107750668Y-53353592D01*
X107862319Y-53241941D01*
X107923642Y-53208456D01*
X107993334Y-53213440D01*
X108037681Y-53241941D01*
X108149332Y-53353592D01*
X108358618Y-53505647D01*
X108589115Y-53623091D01*
X108835146Y-53703032D01*
X108930961Y-53718207D01*
X109090649Y-53743500D01*
X109090654Y-53743500D01*
X109349351Y-53743500D01*
X109491294Y-53721017D01*
X109604854Y-53703032D01*
X109850885Y-53623091D01*
X110081382Y-53505647D01*
X110290668Y-53353592D01*
X110402319Y-53241941D01*
X110463642Y-53208456D01*
X110533334Y-53213440D01*
X110577681Y-53241941D01*
X110689332Y-53353592D01*
X110898618Y-53505647D01*
X111129115Y-53623091D01*
X111375146Y-53703032D01*
X111470961Y-53718207D01*
X111630649Y-53743500D01*
X111630654Y-53743500D01*
X111889351Y-53743500D01*
X112031294Y-53721017D01*
X112144854Y-53703032D01*
X112390885Y-53623091D01*
X112621382Y-53505647D01*
X112830668Y-53353592D01*
X112942319Y-53241941D01*
X113003642Y-53208456D01*
X113073334Y-53213440D01*
X113117681Y-53241941D01*
X113229332Y-53353592D01*
X113438618Y-53505647D01*
X113669115Y-53623091D01*
X113915146Y-53703032D01*
X114010961Y-53718207D01*
X114170649Y-53743500D01*
X114170654Y-53743500D01*
X114429351Y-53743500D01*
X114571294Y-53721017D01*
X114684854Y-53703032D01*
X114930885Y-53623091D01*
X115161382Y-53505647D01*
X115370668Y-53353592D01*
X115482319Y-53241941D01*
X115543642Y-53208456D01*
X115613334Y-53213440D01*
X115657681Y-53241941D01*
X115769332Y-53353592D01*
X115978618Y-53505647D01*
X116209115Y-53623091D01*
X116455146Y-53703032D01*
X116550961Y-53718207D01*
X116710649Y-53743500D01*
X116710654Y-53743500D01*
X116969351Y-53743500D01*
X117111294Y-53721017D01*
X117224854Y-53703032D01*
X117470885Y-53623091D01*
X117701382Y-53505647D01*
X117910668Y-53353592D01*
X118022319Y-53241941D01*
X118083642Y-53208456D01*
X118153334Y-53213440D01*
X118197681Y-53241941D01*
X118309332Y-53353592D01*
X118518618Y-53505647D01*
X118749115Y-53623091D01*
X118995146Y-53703032D01*
X119090961Y-53718207D01*
X119250649Y-53743500D01*
X119250654Y-53743500D01*
X119509351Y-53743500D01*
X119651294Y-53721017D01*
X119764854Y-53703032D01*
X120010885Y-53623091D01*
X120241382Y-53505647D01*
X120450668Y-53353592D01*
X120562319Y-53241941D01*
X120623642Y-53208456D01*
X120693334Y-53213440D01*
X120737681Y-53241941D01*
X120849332Y-53353592D01*
X121058618Y-53505647D01*
X121289115Y-53623091D01*
X121535146Y-53703032D01*
X121630961Y-53718207D01*
X121790649Y-53743500D01*
X121790654Y-53743500D01*
X122049351Y-53743500D01*
X122191294Y-53721017D01*
X122304854Y-53703032D01*
X122550885Y-53623091D01*
X122781382Y-53505647D01*
X122990668Y-53353592D01*
X123173592Y-53170668D01*
X123325647Y-52961382D01*
X123443091Y-52730885D01*
X123523032Y-52484854D01*
X123541017Y-52371294D01*
X123563500Y-52229351D01*
X123563500Y-51970648D01*
X138056500Y-51970648D01*
X138056500Y-52229351D01*
X138096949Y-52484734D01*
X138096968Y-52484854D01*
X138176909Y-52730885D01*
X138294353Y-52961382D01*
X138446408Y-53170668D01*
X138629332Y-53353592D01*
X138838618Y-53505647D01*
X139069115Y-53623091D01*
X139315146Y-53703032D01*
X139410961Y-53718207D01*
X139570649Y-53743500D01*
X139570654Y-53743500D01*
X139829351Y-53743500D01*
X139971294Y-53721017D01*
X140084854Y-53703032D01*
X140330885Y-53623091D01*
X140561382Y-53505647D01*
X140770668Y-53353592D01*
X140882319Y-53241941D01*
X140943642Y-53208456D01*
X141013334Y-53213440D01*
X141057681Y-53241941D01*
X141169332Y-53353592D01*
X141378618Y-53505647D01*
X141609115Y-53623091D01*
X141855146Y-53703032D01*
X141950961Y-53718207D01*
X142110649Y-53743500D01*
X142110654Y-53743500D01*
X142369351Y-53743500D01*
X142511294Y-53721017D01*
X142624854Y-53703032D01*
X142870885Y-53623091D01*
X143101382Y-53505647D01*
X143310668Y-53353592D01*
X143422319Y-53241941D01*
X143483642Y-53208456D01*
X143553334Y-53213440D01*
X143597681Y-53241941D01*
X143709332Y-53353592D01*
X143918618Y-53505647D01*
X144149115Y-53623091D01*
X144395146Y-53703032D01*
X144490961Y-53718207D01*
X144650649Y-53743500D01*
X144650654Y-53743500D01*
X144909351Y-53743500D01*
X145051294Y-53721017D01*
X145164854Y-53703032D01*
X145410885Y-53623091D01*
X145641382Y-53505647D01*
X145850668Y-53353592D01*
X145962319Y-53241941D01*
X146023642Y-53208456D01*
X146093334Y-53213440D01*
X146137681Y-53241941D01*
X146249332Y-53353592D01*
X146458618Y-53505647D01*
X146561295Y-53557962D01*
X146612090Y-53605936D01*
X146629000Y-53668447D01*
X146629000Y-54043058D01*
X146645229Y-54124644D01*
X146655555Y-54176557D01*
X146655556Y-54176561D01*
X146707642Y-54302309D01*
X146707644Y-54302312D01*
X146783263Y-54415485D01*
X146783269Y-54415492D01*
X147545266Y-55177487D01*
X147641509Y-55273730D01*
X147641514Y-55273735D01*
X147754682Y-55349352D01*
X147754695Y-55349359D01*
X147880438Y-55401443D01*
X147880443Y-55401445D01*
X147880447Y-55401445D01*
X147880448Y-55401446D01*
X148013939Y-55428000D01*
X148013942Y-55428000D01*
X162120060Y-55428000D01*
X162209870Y-55410134D01*
X162253557Y-55401445D01*
X162379311Y-55349356D01*
X162492487Y-55273735D01*
X163985735Y-53780487D01*
X164061356Y-53667311D01*
X164113445Y-53541557D01*
X164120588Y-53505647D01*
X164136623Y-53425036D01*
X164140000Y-53408060D01*
X164140000Y-51645583D01*
X164159685Y-51578544D01*
X164176319Y-51557902D01*
X164460902Y-51273319D01*
X164522225Y-51239834D01*
X164548583Y-51237000D01*
X166999639Y-51237000D01*
X167066678Y-51256685D01*
X167087320Y-51273318D01*
X167187365Y-51373363D01*
X167325493Y-51473719D01*
X167477620Y-51551231D01*
X167477622Y-51551232D01*
X167639995Y-51603990D01*
X167639996Y-51603990D01*
X167639999Y-51603991D01*
X167808632Y-51630700D01*
X167808633Y-51630700D01*
X167979367Y-51630700D01*
X167979368Y-51630700D01*
X168148001Y-51603991D01*
X168148004Y-51603990D01*
X168148005Y-51603990D01*
X168310377Y-51551232D01*
X168310377Y-51551231D01*
X168310380Y-51551231D01*
X168462507Y-51473719D01*
X168600635Y-51373363D01*
X168721363Y-51252635D01*
X168821719Y-51114507D01*
X168899231Y-50962380D01*
X168918084Y-50904356D01*
X168951990Y-50800005D01*
X168951990Y-50800004D01*
X168951991Y-50800001D01*
X168978700Y-50631368D01*
X168978700Y-50460632D01*
X168951991Y-50291999D01*
X168951990Y-50291995D01*
X168951990Y-50291994D01*
X168899232Y-50129622D01*
X168899230Y-50129619D01*
X168891675Y-50114790D01*
X168821719Y-49977493D01*
X168721363Y-49839365D01*
X168600635Y-49718637D01*
X168462507Y-49618281D01*
X168310380Y-49540769D01*
X168310377Y-49540767D01*
X168148004Y-49488009D01*
X168006416Y-49465584D01*
X167979368Y-49461300D01*
X167808632Y-49461300D01*
X167752421Y-49470203D01*
X167639997Y-49488009D01*
X167639994Y-49488009D01*
X167477622Y-49540767D01*
X167477619Y-49540769D01*
X167325492Y-49618281D01*
X167187366Y-49718636D01*
X167087320Y-49818682D01*
X167025997Y-49852166D01*
X166999639Y-49855000D01*
X164142940Y-49855000D01*
X164009448Y-49881553D01*
X164009438Y-49881556D01*
X163883695Y-49933640D01*
X163883682Y-49933647D01*
X163770514Y-50009264D01*
X163770510Y-50009267D01*
X162912267Y-50867509D01*
X162912261Y-50867517D01*
X162852842Y-50956443D01*
X162852843Y-50956444D01*
X162836649Y-50980680D01*
X162836642Y-50980692D01*
X162784555Y-51106442D01*
X162784553Y-51106448D01*
X162758000Y-51239939D01*
X162758000Y-53002416D01*
X162738315Y-53069455D01*
X162721681Y-53090097D01*
X161802097Y-54009681D01*
X161740774Y-54043166D01*
X161714416Y-54046000D01*
X148419583Y-54046000D01*
X148352544Y-54026315D01*
X148331902Y-54009681D01*
X148067876Y-53745654D01*
X148034391Y-53684331D01*
X148039375Y-53614639D01*
X148081247Y-53558706D01*
X148099260Y-53547489D01*
X148181382Y-53505647D01*
X148390668Y-53353592D01*
X148502319Y-53241941D01*
X148563642Y-53208456D01*
X148633334Y-53213440D01*
X148677681Y-53241941D01*
X148789332Y-53353592D01*
X148998618Y-53505647D01*
X149229115Y-53623091D01*
X149475146Y-53703032D01*
X149570961Y-53718207D01*
X149730649Y-53743500D01*
X149730654Y-53743500D01*
X149989351Y-53743500D01*
X150131294Y-53721017D01*
X150244854Y-53703032D01*
X150490885Y-53623091D01*
X150721382Y-53505647D01*
X150930668Y-53353592D01*
X151042319Y-53241941D01*
X151103642Y-53208456D01*
X151173334Y-53213440D01*
X151217681Y-53241941D01*
X151329332Y-53353592D01*
X151538618Y-53505647D01*
X151769115Y-53623091D01*
X152015146Y-53703032D01*
X152110961Y-53718207D01*
X152270649Y-53743500D01*
X152270654Y-53743500D01*
X152529351Y-53743500D01*
X152671294Y-53721017D01*
X152784854Y-53703032D01*
X153030885Y-53623091D01*
X153261382Y-53505647D01*
X153470668Y-53353592D01*
X153582319Y-53241941D01*
X153643642Y-53208456D01*
X153713334Y-53213440D01*
X153757681Y-53241941D01*
X153869332Y-53353592D01*
X154078618Y-53505647D01*
X154309115Y-53623091D01*
X154555146Y-53703032D01*
X154650961Y-53718207D01*
X154810649Y-53743500D01*
X154810654Y-53743500D01*
X155069351Y-53743500D01*
X155211294Y-53721017D01*
X155324854Y-53703032D01*
X155570885Y-53623091D01*
X155801382Y-53505647D01*
X156010668Y-53353592D01*
X156122319Y-53241941D01*
X156183642Y-53208456D01*
X156253334Y-53213440D01*
X156297681Y-53241941D01*
X156409332Y-53353592D01*
X156618618Y-53505647D01*
X156849115Y-53623091D01*
X157095146Y-53703032D01*
X157190961Y-53718207D01*
X157350649Y-53743500D01*
X157350654Y-53743500D01*
X157609351Y-53743500D01*
X157751294Y-53721017D01*
X157864854Y-53703032D01*
X158110885Y-53623091D01*
X158341382Y-53505647D01*
X158550668Y-53353592D01*
X158733592Y-53170668D01*
X158885647Y-52961382D01*
X158960445Y-52814581D01*
X158983247Y-52783198D01*
X159430438Y-52336006D01*
X159457271Y-52400785D01*
X159526764Y-52504789D01*
X159615211Y-52593236D01*
X159719215Y-52662729D01*
X159783991Y-52689560D01*
X159048516Y-53425034D01*
X159048517Y-53425036D01*
X159158877Y-53505216D01*
X159389304Y-53622625D01*
X159635266Y-53702543D01*
X159890694Y-53743000D01*
X160149306Y-53743000D01*
X160404733Y-53702543D01*
X160404734Y-53702543D01*
X160650695Y-53622625D01*
X160881119Y-53505218D01*
X160991481Y-53425034D01*
X160991482Y-53425034D01*
X160256008Y-52689560D01*
X160320785Y-52662729D01*
X160424789Y-52593236D01*
X160513236Y-52504789D01*
X160582729Y-52400785D01*
X160609560Y-52336008D01*
X161345034Y-53071482D01*
X161345034Y-53071481D01*
X161425218Y-52961119D01*
X161542625Y-52730695D01*
X161622543Y-52484734D01*
X161622543Y-52484733D01*
X161663000Y-52229306D01*
X161663000Y-51970693D01*
X161622543Y-51715266D01*
X161622543Y-51715265D01*
X161542625Y-51469304D01*
X161425216Y-51238877D01*
X161345036Y-51128517D01*
X161345034Y-51128516D01*
X160609560Y-51863991D01*
X160582729Y-51799215D01*
X160513236Y-51695211D01*
X160424789Y-51606764D01*
X160320785Y-51537271D01*
X160256006Y-51510438D01*
X160991482Y-50774964D01*
X160991481Y-50774963D01*
X160881122Y-50694783D01*
X160650695Y-50577374D01*
X160404733Y-50497456D01*
X160149306Y-50457000D01*
X159890694Y-50457000D01*
X159635266Y-50497456D01*
X159635265Y-50497456D01*
X159389304Y-50577374D01*
X159158884Y-50694779D01*
X159048517Y-50774964D01*
X159048517Y-50774965D01*
X159783991Y-51510439D01*
X159719215Y-51537271D01*
X159615211Y-51606764D01*
X159526764Y-51695211D01*
X159457271Y-51799215D01*
X159430439Y-51863992D01*
X158983247Y-51416800D01*
X158960443Y-51385414D01*
X158903328Y-51273319D01*
X158885647Y-51238618D01*
X158733592Y-51029332D01*
X158550668Y-50846408D01*
X158341382Y-50694353D01*
X158303647Y-50675126D01*
X158238705Y-50642036D01*
X158187909Y-50594061D01*
X158171000Y-50531551D01*
X158171000Y-49232583D01*
X158190685Y-49165544D01*
X158207319Y-49144902D01*
X158618902Y-48733319D01*
X158680225Y-48699834D01*
X158706583Y-48697000D01*
X166999639Y-48697000D01*
X167066678Y-48716685D01*
X167087320Y-48733318D01*
X167187365Y-48833363D01*
X167325493Y-48933719D01*
X167477620Y-49011231D01*
X167477622Y-49011232D01*
X167639995Y-49063990D01*
X167639996Y-49063990D01*
X167639999Y-49063991D01*
X167808632Y-49090700D01*
X167808633Y-49090700D01*
X167979367Y-49090700D01*
X167979368Y-49090700D01*
X168148001Y-49063991D01*
X168148004Y-49063990D01*
X168148005Y-49063990D01*
X168310377Y-49011232D01*
X168310377Y-49011231D01*
X168310380Y-49011231D01*
X168462507Y-48933719D01*
X168600635Y-48833363D01*
X168721363Y-48712635D01*
X168821719Y-48574507D01*
X168899231Y-48422380D01*
X168932840Y-48318943D01*
X168951990Y-48260005D01*
X168951990Y-48260004D01*
X168951991Y-48260001D01*
X168978700Y-48091368D01*
X168978700Y-47920632D01*
X168951991Y-47751999D01*
X168951990Y-47751995D01*
X168951990Y-47751994D01*
X168899232Y-47589622D01*
X168899230Y-47589619D01*
X168882965Y-47557695D01*
X168821719Y-47437493D01*
X168721363Y-47299365D01*
X168600635Y-47178637D01*
X168462507Y-47078281D01*
X168406188Y-47049585D01*
X168355392Y-47001610D01*
X168338597Y-46933789D01*
X168361135Y-46867654D01*
X168374793Y-46851427D01*
X168430735Y-46795487D01*
X168506356Y-46682311D01*
X168509621Y-46674430D01*
X168532400Y-46619434D01*
X168558445Y-46556557D01*
X168585000Y-46423057D01*
X168585000Y-46360360D01*
X168604685Y-46293321D01*
X168621319Y-46272679D01*
X168658007Y-46235991D01*
X168721363Y-46172635D01*
X168821719Y-46034507D01*
X168899231Y-45882380D01*
X168903369Y-45869644D01*
X168951990Y-45720005D01*
X168951990Y-45720004D01*
X168951991Y-45720001D01*
X168978700Y-45551368D01*
X168978700Y-45380632D01*
X168951991Y-45211999D01*
X168951990Y-45211995D01*
X168951990Y-45211994D01*
X168899232Y-45049622D01*
X168899230Y-45049619D01*
X168854875Y-44962565D01*
X168821719Y-44897493D01*
X168721363Y-44759365D01*
X168600635Y-44638637D01*
X168462507Y-44538281D01*
X168310380Y-44460769D01*
X168310377Y-44460767D01*
X168148004Y-44408009D01*
X168021526Y-44387977D01*
X167979368Y-44381300D01*
X167808632Y-44381300D01*
X167752421Y-44390203D01*
X167639997Y-44408009D01*
X167639994Y-44408009D01*
X167477622Y-44460767D01*
X167477619Y-44460769D01*
X167325492Y-44538281D01*
X167261878Y-44584500D01*
X167187365Y-44638637D01*
X167187363Y-44638639D01*
X167187362Y-44638639D01*
X167066639Y-44759362D01*
X167066639Y-44759363D01*
X167066637Y-44759365D01*
X167023538Y-44818685D01*
X166966281Y-44897492D01*
X166888769Y-45049619D01*
X166888767Y-45049622D01*
X166836009Y-45211994D01*
X166836009Y-45211997D01*
X166829543Y-45252822D01*
X166809300Y-45380632D01*
X166809300Y-45551368D01*
X166814442Y-45583832D01*
X166824542Y-45647602D01*
X166815587Y-45716896D01*
X166770591Y-45770348D01*
X166703840Y-45790987D01*
X166702069Y-45791000D01*
X158427938Y-45791000D01*
X158313438Y-45813776D01*
X158313437Y-45813776D01*
X158301998Y-45816051D01*
X158294440Y-45817555D01*
X158294439Y-45817555D01*
X158168694Y-45869640D01*
X158168681Y-45869647D01*
X158055513Y-45945264D01*
X158055509Y-45945267D01*
X154403269Y-49597507D01*
X154403263Y-49597514D01*
X154328476Y-49709443D01*
X154328460Y-49709468D01*
X154327645Y-49710687D01*
X154327643Y-49710689D01*
X154275555Y-49836442D01*
X154275553Y-49836448D01*
X154249000Y-49969939D01*
X154249000Y-50531551D01*
X154229315Y-50598590D01*
X154181295Y-50642036D01*
X154078617Y-50694353D01*
X153869333Y-50846407D01*
X153757681Y-50958059D01*
X153696358Y-50991543D01*
X153626666Y-50986559D01*
X153582319Y-50958059D01*
X153528615Y-50904355D01*
X153470668Y-50846408D01*
X153261382Y-50694353D01*
X153030885Y-50576909D01*
X152784854Y-50496968D01*
X152784852Y-50496967D01*
X152784850Y-50496967D01*
X152529351Y-50456500D01*
X152529346Y-50456500D01*
X152270654Y-50456500D01*
X152270653Y-50456500D01*
X152218396Y-50464776D01*
X152149103Y-50455820D01*
X152095652Y-50410823D01*
X152075013Y-50344071D01*
X152075000Y-50342302D01*
X152075000Y-41628083D01*
X152083644Y-41598642D01*
X152090168Y-41568656D01*
X152093922Y-41563640D01*
X152094685Y-41561044D01*
X152111319Y-41540402D01*
X152189403Y-41462318D01*
X152250726Y-41428833D01*
X152277084Y-41425999D01*
X153320871Y-41425999D01*
X153320872Y-41425999D01*
X153380483Y-41419591D01*
X153515331Y-41369296D01*
X153630546Y-41283046D01*
X153716796Y-41167831D01*
X153767091Y-41032983D01*
X153773500Y-40973373D01*
X153773499Y-40921132D01*
X153776077Y-40908692D01*
X153786776Y-40888626D01*
X153793182Y-40866808D01*
X153802900Y-40858386D01*
X153808951Y-40847039D01*
X153828800Y-40835942D01*
X153845985Y-40821052D01*
X153858713Y-40819221D01*
X153869938Y-40812947D01*
X153892635Y-40814343D01*
X153915143Y-40811107D01*
X153926839Y-40816448D01*
X153939676Y-40817238D01*
X153958015Y-40830684D01*
X153978700Y-40840130D01*
X153994753Y-40857621D01*
X153996023Y-40858552D01*
X153996322Y-40859330D01*
X153997816Y-40860958D01*
X153998729Y-40862215D01*
X153998731Y-40862216D01*
X154561504Y-40299442D01*
X154577619Y-40359581D01*
X154644498Y-40475420D01*
X154739080Y-40570002D01*
X154854919Y-40636881D01*
X154915057Y-40652994D01*
X154352283Y-41215768D01*
X154352283Y-41215769D01*
X154389567Y-41242858D01*
X154566562Y-41333042D01*
X154755477Y-41394424D01*
X154951679Y-41425500D01*
X155150321Y-41425500D01*
X155346520Y-41394424D01*
X155346523Y-41394424D01*
X155535437Y-41333042D01*
X155712425Y-41242862D01*
X155749716Y-41215768D01*
X155186942Y-40652994D01*
X155247081Y-40636881D01*
X155362920Y-40570002D01*
X155457502Y-40475420D01*
X155524381Y-40359581D01*
X155540495Y-40299442D01*
X156103268Y-40862215D01*
X156130364Y-40824922D01*
X156210234Y-40668169D01*
X156258208Y-40617372D01*
X156326029Y-40600577D01*
X156392164Y-40623114D01*
X156431203Y-40668167D01*
X156511213Y-40825194D01*
X156628019Y-40985964D01*
X156768536Y-41126481D01*
X156929306Y-41243287D01*
X157015627Y-41287270D01*
X157106367Y-41333505D01*
X157106370Y-41333506D01*
X157178174Y-41356836D01*
X157295364Y-41394913D01*
X157491639Y-41426000D01*
X157491640Y-41426000D01*
X157690360Y-41426000D01*
X157690361Y-41426000D01*
X157886636Y-41394913D01*
X158075632Y-41333505D01*
X158252694Y-41243287D01*
X158413464Y-41126481D01*
X158553981Y-40985964D01*
X158670787Y-40825194D01*
X158750515Y-40668718D01*
X158798490Y-40617923D01*
X158866311Y-40601128D01*
X158932446Y-40623665D01*
X158971484Y-40668718D01*
X159051213Y-40825194D01*
X159168019Y-40985964D01*
X159308536Y-41126481D01*
X159469306Y-41243287D01*
X159555627Y-41287270D01*
X159646367Y-41333505D01*
X159646370Y-41333506D01*
X159718174Y-41356836D01*
X159835364Y-41394913D01*
X160031639Y-41426000D01*
X160031640Y-41426000D01*
X160230360Y-41426000D01*
X160230361Y-41426000D01*
X160426636Y-41394913D01*
X160615632Y-41333505D01*
X160792694Y-41243287D01*
X160953464Y-41126481D01*
X161093981Y-40985964D01*
X161210787Y-40825194D01*
X161301005Y-40648132D01*
X161362413Y-40459136D01*
X161393500Y-40262861D01*
X161393500Y-40064139D01*
X161362413Y-39867864D01*
X161315708Y-39724119D01*
X161301006Y-39678870D01*
X161301005Y-39678867D01*
X161250982Y-39580693D01*
X161247170Y-39573212D01*
X161210787Y-39501806D01*
X161093981Y-39341036D01*
X160953464Y-39200519D01*
X160792694Y-39083713D01*
X160781393Y-39077955D01*
X160615632Y-38993494D01*
X160615629Y-38993493D01*
X160426637Y-38932087D01*
X160328498Y-38916543D01*
X160230361Y-38901000D01*
X160031639Y-38901000D01*
X159966214Y-38911362D01*
X159835362Y-38932087D01*
X159646370Y-38993493D01*
X159646367Y-38993494D01*
X159469305Y-39083713D01*
X159308533Y-39200521D01*
X159168021Y-39341033D01*
X159051213Y-39501805D01*
X158971485Y-39658280D01*
X158923510Y-39709076D01*
X158855689Y-39725871D01*
X158789554Y-39703333D01*
X158750515Y-39658280D01*
X158731179Y-39620332D01*
X158670787Y-39501806D01*
X158553981Y-39341036D01*
X158413464Y-39200519D01*
X158252694Y-39083713D01*
X158241393Y-39077955D01*
X158075632Y-38993494D01*
X158075629Y-38993493D01*
X157886637Y-38932087D01*
X157788498Y-38916543D01*
X157690361Y-38901000D01*
X157491639Y-38901000D01*
X157426214Y-38911362D01*
X157295362Y-38932087D01*
X157106370Y-38993493D01*
X157106367Y-38993494D01*
X156929305Y-39083713D01*
X156768533Y-39200521D01*
X156628021Y-39341033D01*
X156511213Y-39501805D01*
X156431204Y-39658831D01*
X156383229Y-39709627D01*
X156315408Y-39726422D01*
X156249273Y-39703884D01*
X156210234Y-39658831D01*
X156130358Y-39502067D01*
X156103268Y-39464783D01*
X155540494Y-40027557D01*
X155524381Y-39967419D01*
X155457502Y-39851580D01*
X155362920Y-39756998D01*
X155247081Y-39690119D01*
X155186942Y-39674004D01*
X155749716Y-39111231D01*
X155749715Y-39111230D01*
X155712432Y-39084141D01*
X155535437Y-38993957D01*
X155346522Y-38932575D01*
X155150321Y-38901500D01*
X154951679Y-38901500D01*
X154755479Y-38932575D01*
X154755476Y-38932575D01*
X154566562Y-38993957D01*
X154389564Y-39084143D01*
X154352283Y-39111229D01*
X154352282Y-39111230D01*
X154915058Y-39674004D01*
X154854919Y-39690119D01*
X154739080Y-39756998D01*
X154644498Y-39851580D01*
X154577619Y-39967419D01*
X154561504Y-40027557D01*
X153998730Y-39464782D01*
X153998728Y-39464783D01*
X153997817Y-39466038D01*
X153942487Y-39508704D01*
X153872874Y-39514683D01*
X153811079Y-39482077D01*
X153776722Y-39421239D01*
X153776077Y-39418306D01*
X153773499Y-39405861D01*
X153773499Y-39353628D01*
X153767091Y-39294017D01*
X153729389Y-39192934D01*
X153729389Y-39192931D01*
X153716798Y-39159173D01*
X153716793Y-39159164D01*
X153630547Y-39043955D01*
X153630544Y-39043952D01*
X153515335Y-38957706D01*
X153515328Y-38957702D01*
X153380482Y-38907408D01*
X153380483Y-38907408D01*
X153320883Y-38901001D01*
X153320881Y-38901000D01*
X153320873Y-38901000D01*
X153320864Y-38901000D01*
X151701129Y-38901000D01*
X151701123Y-38901001D01*
X151641516Y-38907408D01*
X151506671Y-38957702D01*
X151506664Y-38957706D01*
X151391455Y-39043952D01*
X151391452Y-39043955D01*
X151305206Y-39159164D01*
X151305202Y-39159171D01*
X151254908Y-39294017D01*
X151249853Y-39341039D01*
X151248501Y-39353623D01*
X151248500Y-39353635D01*
X151248500Y-39414323D01*
X151228815Y-39481362D01*
X151176011Y-39527117D01*
X151106853Y-39537061D01*
X151043297Y-39508036D01*
X151024182Y-39487209D01*
X150994652Y-39446565D01*
X150917981Y-39341036D01*
X150777464Y-39200519D01*
X150616694Y-39083713D01*
X150605393Y-39077955D01*
X150439632Y-38993494D01*
X150439629Y-38993493D01*
X150250637Y-38932087D01*
X150152498Y-38916543D01*
X150054361Y-38901000D01*
X149855639Y-38901000D01*
X149790214Y-38911362D01*
X149659362Y-38932087D01*
X149470370Y-38993493D01*
X149470367Y-38993494D01*
X149293305Y-39083713D01*
X149132533Y-39200521D01*
X148992021Y-39341033D01*
X148875213Y-39501805D01*
X148795204Y-39658831D01*
X148747229Y-39709627D01*
X148679408Y-39726422D01*
X148613273Y-39703884D01*
X148574234Y-39658831D01*
X148494358Y-39502067D01*
X148467268Y-39464783D01*
X147904494Y-40027557D01*
X147888381Y-39967419D01*
X147821502Y-39851580D01*
X147726920Y-39756998D01*
X147611081Y-39690119D01*
X147550942Y-39674004D01*
X148113716Y-39111231D01*
X148113715Y-39111230D01*
X148076432Y-39084141D01*
X147899437Y-38993957D01*
X147710522Y-38932575D01*
X147514321Y-38901500D01*
X147315679Y-38901500D01*
X147119479Y-38932575D01*
X147119476Y-38932575D01*
X146930562Y-38993957D01*
X146753564Y-39084143D01*
X146716283Y-39111229D01*
X146716282Y-39111230D01*
X147279058Y-39674004D01*
X147218919Y-39690119D01*
X147103080Y-39756998D01*
X147008498Y-39851580D01*
X146941619Y-39967419D01*
X146925504Y-40027557D01*
X146362730Y-39464782D01*
X146362729Y-39464783D01*
X146335643Y-39502064D01*
X146245457Y-39679062D01*
X146184075Y-39867976D01*
X146184075Y-39867979D01*
X146153000Y-40064178D01*
X146153000Y-40262821D01*
X146184075Y-40459020D01*
X146184075Y-40459023D01*
X146245457Y-40647937D01*
X146335641Y-40824932D01*
X146362730Y-40862215D01*
X146362731Y-40862216D01*
X146925504Y-40299442D01*
X146941619Y-40359581D01*
X147008498Y-40475420D01*
X147103080Y-40570002D01*
X147218919Y-40636881D01*
X147279057Y-40652994D01*
X146716283Y-41215768D01*
X146716283Y-41215769D01*
X146753567Y-41242858D01*
X146930562Y-41333042D01*
X147119477Y-41394424D01*
X147315679Y-41425500D01*
X147514321Y-41425500D01*
X147710520Y-41394424D01*
X147710523Y-41394424D01*
X147899437Y-41333042D01*
X148076425Y-41242862D01*
X148113716Y-41215768D01*
X147550942Y-40652994D01*
X147611081Y-40636881D01*
X147726920Y-40570002D01*
X147821502Y-40475420D01*
X147888381Y-40359581D01*
X147904495Y-40299442D01*
X148467268Y-40862215D01*
X148494364Y-40824922D01*
X148574234Y-40668169D01*
X148622208Y-40617372D01*
X148690029Y-40600577D01*
X148756164Y-40623114D01*
X148795203Y-40668167D01*
X148875213Y-40825194D01*
X148992019Y-40985964D01*
X148992021Y-40985966D01*
X149116681Y-41110626D01*
X149150166Y-41171949D01*
X149153000Y-41198307D01*
X149153000Y-46307341D01*
X149152640Y-46308566D01*
X149152976Y-46309800D01*
X149142821Y-46342005D01*
X149133315Y-46374380D01*
X149132224Y-46375613D01*
X149131965Y-46376436D01*
X149128832Y-46379450D01*
X149108328Y-46402646D01*
X149101568Y-46408271D01*
X149025344Y-46455288D01*
X148927328Y-46553303D01*
X148922974Y-46556928D01*
X148895895Y-46568651D01*
X148870003Y-46582789D01*
X148864198Y-46582373D01*
X148858856Y-46584687D01*
X148829739Y-46579909D01*
X148800312Y-46577805D01*
X148794620Y-46574147D01*
X148789908Y-46573374D01*
X148781205Y-46565525D01*
X148755965Y-46549304D01*
X148662345Y-46455684D01*
X148513124Y-46363643D01*
X148513119Y-46363641D01*
X148346697Y-46308494D01*
X148346690Y-46308493D01*
X148243986Y-46298000D01*
X148094000Y-46298000D01*
X148094000Y-48697999D01*
X148243972Y-48697999D01*
X148243986Y-48697998D01*
X148346697Y-48687505D01*
X148513119Y-48632358D01*
X148513124Y-48632356D01*
X148662342Y-48540317D01*
X148755964Y-48446695D01*
X148817287Y-48413210D01*
X148886979Y-48418194D01*
X148931327Y-48446695D01*
X149025344Y-48540712D01*
X149110096Y-48592987D01*
X149156821Y-48644935D01*
X149169000Y-48698526D01*
X149169000Y-50531551D01*
X149149315Y-50598590D01*
X149101295Y-50642036D01*
X148998617Y-50694353D01*
X148789333Y-50846407D01*
X148677681Y-50958059D01*
X148616358Y-50991543D01*
X148546666Y-50986559D01*
X148502319Y-50958059D01*
X148448615Y-50904355D01*
X148390668Y-50846408D01*
X148181382Y-50694353D01*
X147950885Y-50576909D01*
X147704854Y-50496968D01*
X147704852Y-50496967D01*
X147704850Y-50496967D01*
X147449351Y-50456500D01*
X147449346Y-50456500D01*
X147190654Y-50456500D01*
X147190649Y-50456500D01*
X146935149Y-50496967D01*
X146689112Y-50576910D01*
X146458617Y-50694353D01*
X146249333Y-50846407D01*
X146137681Y-50958059D01*
X146076358Y-50991543D01*
X146006666Y-50986559D01*
X145962319Y-50958059D01*
X145908615Y-50904355D01*
X145850668Y-50846408D01*
X145641382Y-50694353D01*
X145410885Y-50576909D01*
X145164854Y-50496968D01*
X145164852Y-50496967D01*
X145164850Y-50496967D01*
X144909351Y-50456500D01*
X144909346Y-50456500D01*
X144650654Y-50456500D01*
X144650649Y-50456500D01*
X144395149Y-50496967D01*
X144149112Y-50576910D01*
X143918617Y-50694353D01*
X143709333Y-50846407D01*
X143597681Y-50958059D01*
X143536358Y-50991543D01*
X143466666Y-50986559D01*
X143422319Y-50958059D01*
X143368615Y-50904355D01*
X143310668Y-50846408D01*
X143101382Y-50694353D01*
X142870885Y-50576909D01*
X142624854Y-50496968D01*
X142624852Y-50496967D01*
X142624850Y-50496967D01*
X142369351Y-50456500D01*
X142369346Y-50456500D01*
X142110654Y-50456500D01*
X142110649Y-50456500D01*
X141855149Y-50496967D01*
X141609112Y-50576910D01*
X141378617Y-50694353D01*
X141169333Y-50846407D01*
X141057681Y-50958059D01*
X140996358Y-50991543D01*
X140926666Y-50986559D01*
X140882319Y-50958059D01*
X140828615Y-50904355D01*
X140770668Y-50846408D01*
X140561382Y-50694353D01*
X140330885Y-50576909D01*
X140084854Y-50496968D01*
X140084852Y-50496967D01*
X140084850Y-50496967D01*
X139829351Y-50456500D01*
X139829346Y-50456500D01*
X139570654Y-50456500D01*
X139570649Y-50456500D01*
X139315149Y-50496967D01*
X139069112Y-50576910D01*
X138838617Y-50694353D01*
X138629329Y-50846410D01*
X138446410Y-51029329D01*
X138294353Y-51238617D01*
X138176910Y-51469112D01*
X138096967Y-51715149D01*
X138056500Y-51970648D01*
X123563500Y-51970648D01*
X123523051Y-51715266D01*
X123523032Y-51715146D01*
X123487420Y-51605547D01*
X123485426Y-51535707D01*
X123517669Y-51479551D01*
X123977903Y-51019319D01*
X124039226Y-50985834D01*
X124065584Y-50983000D01*
X129989060Y-50983000D01*
X130092735Y-50962377D01*
X130122557Y-50956445D01*
X130248311Y-50904356D01*
X130281105Y-50882444D01*
X130335037Y-50846408D01*
X130361487Y-50828735D01*
X132108735Y-49081486D01*
X132184356Y-48968311D01*
X132236445Y-48842557D01*
X132262288Y-48712636D01*
X132263000Y-48709059D01*
X132263000Y-47997986D01*
X146744001Y-47997986D01*
X146754494Y-48100697D01*
X146809641Y-48267119D01*
X146809643Y-48267124D01*
X146901684Y-48416345D01*
X147025654Y-48540315D01*
X147174875Y-48632356D01*
X147174880Y-48632358D01*
X147341302Y-48687505D01*
X147341309Y-48687506D01*
X147444019Y-48697999D01*
X147593999Y-48697999D01*
X147594000Y-48697998D01*
X147594000Y-47748000D01*
X146744001Y-47748000D01*
X146744001Y-47997986D01*
X132263000Y-47997986D01*
X132263000Y-46998013D01*
X146744000Y-46998013D01*
X146744000Y-47248000D01*
X147594000Y-47248000D01*
X147594000Y-46298000D01*
X147444027Y-46298000D01*
X147444012Y-46298001D01*
X147341302Y-46308494D01*
X147174880Y-46363641D01*
X147174875Y-46363643D01*
X147025654Y-46455684D01*
X146901684Y-46579654D01*
X146809643Y-46728875D01*
X146809641Y-46728880D01*
X146754494Y-46895302D01*
X146754493Y-46895309D01*
X146744000Y-46998013D01*
X132263000Y-46998013D01*
X132263000Y-43263584D01*
X132282685Y-43196545D01*
X132299319Y-43175903D01*
X133140732Y-42334490D01*
X133140735Y-42334487D01*
X133216356Y-42221312D01*
X133268445Y-42095558D01*
X133269935Y-42088062D01*
X133272224Y-42076558D01*
X133272224Y-42076554D01*
X133295000Y-41962058D01*
X133295000Y-41380708D01*
X133314685Y-41313669D01*
X133336836Y-41289879D01*
X133336275Y-41289318D01*
X133342543Y-41283049D01*
X133342544Y-41283047D01*
X133342546Y-41283046D01*
X133428796Y-41167831D01*
X133479091Y-41032983D01*
X133485500Y-40973373D01*
X133485499Y-40921132D01*
X133488077Y-40908692D01*
X133498776Y-40888626D01*
X133505182Y-40866808D01*
X133514900Y-40858386D01*
X133520951Y-40847039D01*
X133540800Y-40835942D01*
X133557985Y-40821052D01*
X133570713Y-40819221D01*
X133581938Y-40812947D01*
X133604635Y-40814343D01*
X133627143Y-40811107D01*
X133638839Y-40816448D01*
X133651676Y-40817238D01*
X133670015Y-40830684D01*
X133690700Y-40840130D01*
X133706753Y-40857621D01*
X133708023Y-40858552D01*
X133708322Y-40859330D01*
X133709816Y-40860958D01*
X133710729Y-40862215D01*
X133710731Y-40862216D01*
X134273504Y-40299442D01*
X134289619Y-40359581D01*
X134356498Y-40475420D01*
X134451080Y-40570002D01*
X134566919Y-40636881D01*
X134627057Y-40652994D01*
X134064283Y-41215768D01*
X134064283Y-41215769D01*
X134101567Y-41242858D01*
X134278562Y-41333042D01*
X134467477Y-41394424D01*
X134663679Y-41425500D01*
X134862321Y-41425500D01*
X135058520Y-41394424D01*
X135058523Y-41394424D01*
X135247437Y-41333042D01*
X135424425Y-41242862D01*
X135461716Y-41215768D01*
X134898942Y-40652994D01*
X134959081Y-40636881D01*
X135074920Y-40570002D01*
X135169502Y-40475420D01*
X135236381Y-40359581D01*
X135252495Y-40299442D01*
X135815268Y-40862215D01*
X135842364Y-40824922D01*
X135922234Y-40668169D01*
X135970208Y-40617372D01*
X136038029Y-40600577D01*
X136104164Y-40623114D01*
X136143203Y-40668167D01*
X136223213Y-40825194D01*
X136340019Y-40985964D01*
X136480536Y-41126481D01*
X136641306Y-41243287D01*
X136727627Y-41287270D01*
X136818367Y-41333505D01*
X136818370Y-41333506D01*
X136890174Y-41356836D01*
X137007364Y-41394913D01*
X137203639Y-41426000D01*
X137203640Y-41426000D01*
X137402360Y-41426000D01*
X137402361Y-41426000D01*
X137598636Y-41394913D01*
X137787632Y-41333505D01*
X137964694Y-41243287D01*
X138125464Y-41126481D01*
X138265981Y-40985964D01*
X138382787Y-40825194D01*
X138462515Y-40668718D01*
X138510490Y-40617923D01*
X138578311Y-40601128D01*
X138644446Y-40623665D01*
X138683484Y-40668718D01*
X138763213Y-40825194D01*
X138880019Y-40985964D01*
X139020536Y-41126481D01*
X139181306Y-41243287D01*
X139267627Y-41287270D01*
X139358367Y-41333505D01*
X139358370Y-41333506D01*
X139430174Y-41356836D01*
X139547364Y-41394913D01*
X139743639Y-41426000D01*
X139743640Y-41426000D01*
X139942360Y-41426000D01*
X139942361Y-41426000D01*
X140138636Y-41394913D01*
X140327632Y-41333505D01*
X140504694Y-41243287D01*
X140665464Y-41126481D01*
X140805981Y-40985964D01*
X140850127Y-40925201D01*
X140905454Y-40882538D01*
X140975067Y-40876559D01*
X141036863Y-40909164D01*
X141071220Y-40970002D01*
X141073733Y-40984835D01*
X141078909Y-41032983D01*
X141129202Y-41167828D01*
X141129206Y-41167835D01*
X141215452Y-41283044D01*
X141215455Y-41283047D01*
X141330664Y-41369293D01*
X141330671Y-41369297D01*
X141465517Y-41419591D01*
X141465516Y-41419591D01*
X141472444Y-41420335D01*
X141525127Y-41426000D01*
X143144872Y-41425999D01*
X143204483Y-41419591D01*
X143339331Y-41369296D01*
X143454546Y-41283046D01*
X143540796Y-41167831D01*
X143556219Y-41126481D01*
X143556706Y-41125175D01*
X143556707Y-41125173D01*
X143591090Y-41032985D01*
X143591091Y-41032983D01*
X143597500Y-40973373D01*
X143597499Y-39353628D01*
X143591091Y-39294017D01*
X143569385Y-39235821D01*
X143556705Y-39201823D01*
X143556704Y-39201821D01*
X143556218Y-39200519D01*
X143553060Y-39192052D01*
X143540798Y-39159173D01*
X143540793Y-39159164D01*
X143454547Y-39043955D01*
X143454544Y-39043952D01*
X143339335Y-38957706D01*
X143339328Y-38957702D01*
X143204482Y-38907408D01*
X143204483Y-38907408D01*
X143144883Y-38901001D01*
X143144881Y-38901000D01*
X143144873Y-38901000D01*
X143144864Y-38901000D01*
X141525129Y-38901000D01*
X141525123Y-38901001D01*
X141465516Y-38907408D01*
X141330671Y-38957702D01*
X141330664Y-38957706D01*
X141215455Y-39043952D01*
X141215452Y-39043955D01*
X141129206Y-39159164D01*
X141129202Y-39159171D01*
X141078908Y-39294016D01*
X141073732Y-39342166D01*
X141046994Y-39406717D01*
X140989601Y-39446565D01*
X140919776Y-39449058D01*
X140859688Y-39413405D01*
X140850125Y-39401795D01*
X140815130Y-39353629D01*
X140805981Y-39341036D01*
X140665464Y-39200519D01*
X140504694Y-39083713D01*
X140493393Y-39077955D01*
X140327632Y-38993494D01*
X140327629Y-38993493D01*
X140138637Y-38932087D01*
X140040498Y-38916543D01*
X139942361Y-38901000D01*
X139743639Y-38901000D01*
X139678214Y-38911362D01*
X139547362Y-38932087D01*
X139358370Y-38993493D01*
X139358367Y-38993494D01*
X139181305Y-39083713D01*
X139020533Y-39200521D01*
X138880021Y-39341033D01*
X138763213Y-39501805D01*
X138683485Y-39658280D01*
X138635510Y-39709076D01*
X138567689Y-39725871D01*
X138501554Y-39703333D01*
X138462515Y-39658280D01*
X138443179Y-39620332D01*
X138382787Y-39501806D01*
X138265981Y-39341036D01*
X138125464Y-39200519D01*
X137964694Y-39083713D01*
X137953393Y-39077955D01*
X137787632Y-38993494D01*
X137787629Y-38993493D01*
X137598637Y-38932087D01*
X137500498Y-38916543D01*
X137402361Y-38901000D01*
X137203639Y-38901000D01*
X137138214Y-38911362D01*
X137007362Y-38932087D01*
X136818370Y-38993493D01*
X136818367Y-38993494D01*
X136641305Y-39083713D01*
X136480533Y-39200521D01*
X136340021Y-39341033D01*
X136223213Y-39501805D01*
X136143204Y-39658831D01*
X136095229Y-39709627D01*
X136027408Y-39726422D01*
X135961273Y-39703884D01*
X135922234Y-39658831D01*
X135842358Y-39502067D01*
X135815268Y-39464783D01*
X135252494Y-40027557D01*
X135236381Y-39967419D01*
X135169502Y-39851580D01*
X135074920Y-39756998D01*
X134959081Y-39690119D01*
X134898942Y-39674004D01*
X135461716Y-39111231D01*
X135461715Y-39111230D01*
X135424432Y-39084141D01*
X135247437Y-38993957D01*
X135058522Y-38932575D01*
X134862321Y-38901500D01*
X134663679Y-38901500D01*
X134467479Y-38932575D01*
X134467476Y-38932575D01*
X134278562Y-38993957D01*
X134101564Y-39084143D01*
X134064283Y-39111229D01*
X134064282Y-39111230D01*
X134627058Y-39674004D01*
X134566919Y-39690119D01*
X134451080Y-39756998D01*
X134356498Y-39851580D01*
X134289619Y-39967419D01*
X134273504Y-40027557D01*
X133710730Y-39464782D01*
X133710728Y-39464783D01*
X133709817Y-39466038D01*
X133654487Y-39508704D01*
X133584874Y-39514683D01*
X133523079Y-39482077D01*
X133488722Y-39421239D01*
X133488077Y-39418306D01*
X133485499Y-39405861D01*
X133485499Y-39353628D01*
X133479091Y-39294017D01*
X133441389Y-39192934D01*
X133441389Y-39192931D01*
X133428798Y-39159173D01*
X133428793Y-39159164D01*
X133342547Y-39043955D01*
X133342544Y-39043952D01*
X133227335Y-38957706D01*
X133227328Y-38957702D01*
X133092482Y-38907408D01*
X133092483Y-38907408D01*
X133032883Y-38901001D01*
X133032881Y-38901000D01*
X133032873Y-38901000D01*
X133032864Y-38901000D01*
X131413129Y-38901000D01*
X131413123Y-38901001D01*
X131353516Y-38907408D01*
X131218671Y-38957702D01*
X131218664Y-38957706D01*
X131103455Y-39043952D01*
X131063456Y-39097384D01*
X131007522Y-39139254D01*
X130937830Y-39144238D01*
X130891306Y-39123390D01*
X130836694Y-39083713D01*
X130825393Y-39077955D01*
X130659632Y-38993494D01*
X130659629Y-38993493D01*
X130470637Y-38932087D01*
X130372498Y-38916543D01*
X130274361Y-38901000D01*
X130075639Y-38901000D01*
X130010214Y-38911362D01*
X129879362Y-38932087D01*
X129690370Y-38993493D01*
X129690367Y-38993494D01*
X129513305Y-39083713D01*
X129352533Y-39200521D01*
X129212021Y-39341033D01*
X129095213Y-39501805D01*
X129015204Y-39658831D01*
X128967229Y-39709627D01*
X128899408Y-39726422D01*
X128833273Y-39703884D01*
X128794234Y-39658831D01*
X128714358Y-39502067D01*
X128687268Y-39464783D01*
X128124494Y-40027557D01*
X128108381Y-39967419D01*
X128041502Y-39851580D01*
X127946920Y-39756998D01*
X127831081Y-39690119D01*
X127770942Y-39674004D01*
X128333716Y-39111231D01*
X128333715Y-39111230D01*
X128296432Y-39084141D01*
X128119437Y-38993957D01*
X127930522Y-38932575D01*
X127734321Y-38901500D01*
X127535679Y-38901500D01*
X127339479Y-38932575D01*
X127339476Y-38932575D01*
X127150562Y-38993957D01*
X126973564Y-39084143D01*
X126936283Y-39111229D01*
X126936282Y-39111230D01*
X127499058Y-39674004D01*
X127438919Y-39690119D01*
X127323080Y-39756998D01*
X127228498Y-39851580D01*
X127161619Y-39967419D01*
X127145504Y-40027557D01*
X126582730Y-39464782D01*
X126582729Y-39464783D01*
X126555643Y-39502064D01*
X126465457Y-39679062D01*
X126404075Y-39867976D01*
X126404075Y-39867979D01*
X126373000Y-40064178D01*
X126373000Y-40262821D01*
X126404075Y-40459020D01*
X126404075Y-40459023D01*
X126465457Y-40647937D01*
X126555641Y-40824932D01*
X126582730Y-40862215D01*
X126582731Y-40862216D01*
X127145504Y-40299442D01*
X127161619Y-40359581D01*
X127228498Y-40475420D01*
X127323080Y-40570002D01*
X127438919Y-40636881D01*
X127499057Y-40652994D01*
X126936283Y-41215768D01*
X126936283Y-41215769D01*
X126973567Y-41242858D01*
X127150562Y-41333042D01*
X127339477Y-41394424D01*
X127535679Y-41425500D01*
X127734321Y-41425500D01*
X127930520Y-41394424D01*
X127930523Y-41394424D01*
X128119437Y-41333042D01*
X128296425Y-41242862D01*
X128333716Y-41215768D01*
X127770942Y-40652994D01*
X127831081Y-40636881D01*
X127946920Y-40570002D01*
X128041502Y-40475420D01*
X128108381Y-40359581D01*
X128124495Y-40299442D01*
X128687268Y-40862215D01*
X128714364Y-40824922D01*
X128794234Y-40668169D01*
X128842208Y-40617372D01*
X128910029Y-40600577D01*
X128976164Y-40623114D01*
X129015203Y-40668167D01*
X129095213Y-40825194D01*
X129212019Y-40985964D01*
X129352536Y-41126481D01*
X129432884Y-41184857D01*
X129475551Y-41240186D01*
X129484000Y-41285175D01*
X129484000Y-45418341D01*
X129483640Y-45419566D01*
X129483976Y-45420800D01*
X129473821Y-45453005D01*
X129464315Y-45485380D01*
X129463224Y-45486613D01*
X129462965Y-45487436D01*
X129459832Y-45490450D01*
X129439328Y-45513646D01*
X129432568Y-45519271D01*
X129356344Y-45566288D01*
X129258328Y-45664303D01*
X129253974Y-45667928D01*
X129226895Y-45679651D01*
X129201003Y-45693789D01*
X129195198Y-45693373D01*
X129189856Y-45695687D01*
X129160739Y-45690909D01*
X129131312Y-45688805D01*
X129125620Y-45685147D01*
X129120908Y-45684374D01*
X129112205Y-45676525D01*
X129086965Y-45660304D01*
X128993345Y-45566684D01*
X128844124Y-45474643D01*
X128844119Y-45474641D01*
X128677697Y-45419494D01*
X128677690Y-45419493D01*
X128574986Y-45409000D01*
X128425000Y-45409000D01*
X128425000Y-47808999D01*
X128574972Y-47808999D01*
X128574986Y-47808998D01*
X128677697Y-47798505D01*
X128844119Y-47743358D01*
X128844124Y-47743356D01*
X128993342Y-47651317D01*
X129086964Y-47557695D01*
X129089867Y-47556109D01*
X129091600Y-47553292D01*
X129120320Y-47539480D01*
X129148287Y-47524210D01*
X129151586Y-47524445D01*
X129154568Y-47523012D01*
X129186198Y-47526921D01*
X129217979Y-47529194D01*
X129221605Y-47531297D01*
X129223910Y-47531582D01*
X129234458Y-47538751D01*
X129253974Y-47550071D01*
X129258322Y-47553690D01*
X129356344Y-47651712D01*
X129432579Y-47698734D01*
X129439328Y-47704351D01*
X129454096Y-47726358D01*
X129471821Y-47746064D01*
X129474125Y-47756205D01*
X129478261Y-47762368D01*
X129478522Y-47775553D01*
X129484000Y-47799656D01*
X129484000Y-47922416D01*
X129464315Y-47989455D01*
X129447681Y-48010097D01*
X128655097Y-48802681D01*
X128593774Y-48836166D01*
X128567416Y-48839000D01*
X120073940Y-48839000D01*
X119940448Y-48865553D01*
X119940438Y-48865556D01*
X119814695Y-48917640D01*
X119814682Y-48917647D01*
X119701514Y-48993264D01*
X119701510Y-48993267D01*
X118843269Y-49851507D01*
X118843263Y-49851514D01*
X118783999Y-49940211D01*
X118783998Y-49940213D01*
X118767648Y-49964681D01*
X118767640Y-49964695D01*
X118715556Y-50090438D01*
X118715553Y-50090448D01*
X118689000Y-50223939D01*
X118689000Y-50531551D01*
X118669315Y-50598590D01*
X118621295Y-50642036D01*
X118518617Y-50694353D01*
X118309333Y-50846407D01*
X118197681Y-50958059D01*
X118136358Y-50991543D01*
X118066666Y-50986559D01*
X118022319Y-50958059D01*
X117968615Y-50904355D01*
X117910668Y-50846408D01*
X117701382Y-50694353D01*
X117470885Y-50576909D01*
X117224854Y-50496968D01*
X117224852Y-50496967D01*
X117224850Y-50496967D01*
X116969351Y-50456500D01*
X116969346Y-50456500D01*
X116710654Y-50456500D01*
X116710649Y-50456500D01*
X116455149Y-50496967D01*
X116209112Y-50576910D01*
X115978617Y-50694353D01*
X115769333Y-50846407D01*
X115657681Y-50958059D01*
X115596358Y-50991543D01*
X115526666Y-50986559D01*
X115482319Y-50958059D01*
X115428615Y-50904355D01*
X115370668Y-50846408D01*
X115161382Y-50694353D01*
X115002874Y-50613589D01*
X114987751Y-50599306D01*
X114969705Y-50588965D01*
X114958267Y-50571460D01*
X114952079Y-50565616D01*
X114949139Y-50560282D01*
X114946668Y-50555527D01*
X114912356Y-50472689D01*
X114876853Y-50419555D01*
X114836735Y-50359513D01*
X114836733Y-50359511D01*
X114836731Y-50359508D01*
X112614319Y-48137096D01*
X112580834Y-48075773D01*
X112578000Y-48049415D01*
X112578000Y-47108986D01*
X127075001Y-47108986D01*
X127085494Y-47211697D01*
X127140641Y-47378119D01*
X127140643Y-47378124D01*
X127232684Y-47527345D01*
X127356654Y-47651315D01*
X127505875Y-47743356D01*
X127505880Y-47743358D01*
X127672302Y-47798505D01*
X127672309Y-47798506D01*
X127775019Y-47808999D01*
X127924999Y-47808999D01*
X127925000Y-47808998D01*
X127925000Y-46859000D01*
X127075001Y-46859000D01*
X127075001Y-47108986D01*
X112578000Y-47108986D01*
X112578000Y-46109013D01*
X127075000Y-46109013D01*
X127075000Y-46359000D01*
X127925000Y-46359000D01*
X127925000Y-45409000D01*
X127775027Y-45409000D01*
X127775012Y-45409001D01*
X127672302Y-45419494D01*
X127505880Y-45474641D01*
X127505875Y-45474643D01*
X127356654Y-45566684D01*
X127232684Y-45690654D01*
X127140643Y-45839875D01*
X127140641Y-45839880D01*
X127085494Y-46006302D01*
X127085493Y-46006309D01*
X127075000Y-46109013D01*
X112578000Y-46109013D01*
X112578000Y-43771583D01*
X112597685Y-43704544D01*
X112614319Y-43683902D01*
X113185732Y-43112489D01*
X113185735Y-43112486D01*
X113261356Y-42999311D01*
X113313445Y-42873557D01*
X113323771Y-42821644D01*
X113331885Y-42780851D01*
X113340000Y-42740059D01*
X113340000Y-41509266D01*
X113359685Y-41442227D01*
X113393692Y-41410564D01*
X113392231Y-41408612D01*
X113492558Y-41333506D01*
X113514546Y-41317046D01*
X113600796Y-41201831D01*
X113651091Y-41066983D01*
X113657500Y-41007373D01*
X113657499Y-40955132D01*
X113660077Y-40942692D01*
X113670776Y-40922626D01*
X113677182Y-40900808D01*
X113686900Y-40892386D01*
X113692951Y-40881039D01*
X113712800Y-40869942D01*
X113729985Y-40855052D01*
X113742713Y-40853221D01*
X113753938Y-40846947D01*
X113776635Y-40848343D01*
X113799143Y-40845107D01*
X113810839Y-40850448D01*
X113823676Y-40851238D01*
X113842015Y-40864684D01*
X113862700Y-40874130D01*
X113878753Y-40891621D01*
X113880023Y-40892552D01*
X113880322Y-40893330D01*
X113881816Y-40894958D01*
X113882729Y-40896215D01*
X113882731Y-40896216D01*
X114445504Y-40333442D01*
X114461619Y-40393581D01*
X114528498Y-40509420D01*
X114623080Y-40604002D01*
X114738919Y-40670881D01*
X114799057Y-40686994D01*
X114236283Y-41249768D01*
X114236283Y-41249769D01*
X114273567Y-41276858D01*
X114450562Y-41367042D01*
X114639477Y-41428424D01*
X114835679Y-41459500D01*
X115034321Y-41459500D01*
X115230520Y-41428424D01*
X115230523Y-41428424D01*
X115419437Y-41367042D01*
X115596425Y-41276862D01*
X115633716Y-41249768D01*
X115070942Y-40686994D01*
X115131081Y-40670881D01*
X115246920Y-40604002D01*
X115341502Y-40509420D01*
X115408381Y-40393581D01*
X115424495Y-40333442D01*
X115987268Y-40896215D01*
X116014364Y-40858922D01*
X116094234Y-40702169D01*
X116142208Y-40651372D01*
X116210029Y-40634577D01*
X116276164Y-40657114D01*
X116315203Y-40702167D01*
X116395213Y-40859194D01*
X116512019Y-41019964D01*
X116652536Y-41160481D01*
X116813306Y-41277287D01*
X116891333Y-41317044D01*
X116990367Y-41367505D01*
X116990370Y-41367506D01*
X117058702Y-41389708D01*
X117179364Y-41428913D01*
X117375639Y-41460000D01*
X117375640Y-41460000D01*
X117574360Y-41460000D01*
X117574361Y-41460000D01*
X117770636Y-41428913D01*
X117959632Y-41367505D01*
X118136694Y-41277287D01*
X118297464Y-41160481D01*
X118437981Y-41019964D01*
X118554787Y-40859194D01*
X118634515Y-40702718D01*
X118682490Y-40651923D01*
X118750311Y-40635128D01*
X118816446Y-40657665D01*
X118855484Y-40702718D01*
X118935213Y-40859194D01*
X119052019Y-41019964D01*
X119192536Y-41160481D01*
X119353306Y-41277287D01*
X119431333Y-41317044D01*
X119530367Y-41367505D01*
X119530370Y-41367506D01*
X119598702Y-41389708D01*
X119719364Y-41428913D01*
X119915639Y-41460000D01*
X119915640Y-41460000D01*
X120114360Y-41460000D01*
X120114361Y-41460000D01*
X120310636Y-41428913D01*
X120499632Y-41367505D01*
X120676694Y-41277287D01*
X120837464Y-41160481D01*
X120977981Y-41019964D01*
X121068183Y-40895811D01*
X121123511Y-40853146D01*
X121193125Y-40847167D01*
X121254920Y-40879772D01*
X121289277Y-40940611D01*
X121292500Y-40968681D01*
X121292500Y-40973362D01*
X121292501Y-40973376D01*
X121298908Y-41032983D01*
X121349202Y-41167828D01*
X121349206Y-41167835D01*
X121435452Y-41283044D01*
X121435455Y-41283047D01*
X121550664Y-41369293D01*
X121550671Y-41369297D01*
X121685517Y-41419591D01*
X121685516Y-41419591D01*
X121692444Y-41420335D01*
X121745127Y-41426000D01*
X123364872Y-41425999D01*
X123424483Y-41419591D01*
X123559331Y-41369296D01*
X123674546Y-41283046D01*
X123760796Y-41167831D01*
X123776219Y-41126481D01*
X123776706Y-41125175D01*
X123776707Y-41125173D01*
X123811090Y-41032985D01*
X123811091Y-41032983D01*
X123817500Y-40973373D01*
X123817499Y-39353628D01*
X123811091Y-39294017D01*
X123789385Y-39235821D01*
X123776705Y-39201823D01*
X123776704Y-39201821D01*
X123776218Y-39200519D01*
X123773060Y-39192052D01*
X123760798Y-39159173D01*
X123760793Y-39159164D01*
X123674547Y-39043955D01*
X123674544Y-39043952D01*
X123559335Y-38957706D01*
X123559328Y-38957702D01*
X123424482Y-38907408D01*
X123424483Y-38907408D01*
X123364883Y-38901001D01*
X123364881Y-38901000D01*
X123364873Y-38901000D01*
X123364864Y-38901000D01*
X121745129Y-38901000D01*
X121745123Y-38901001D01*
X121685516Y-38907408D01*
X121550671Y-38957702D01*
X121550664Y-38957706D01*
X121435455Y-39043952D01*
X121435452Y-39043955D01*
X121349206Y-39159164D01*
X121349202Y-39159171D01*
X121298908Y-39294017D01*
X121293853Y-39341039D01*
X121292501Y-39353623D01*
X121292500Y-39353635D01*
X121292500Y-39426301D01*
X121272815Y-39493340D01*
X121220011Y-39539095D01*
X121150853Y-39549039D01*
X121087297Y-39520014D01*
X121068182Y-39499187D01*
X121055231Y-39481362D01*
X120977981Y-39375036D01*
X120837464Y-39234519D01*
X120676694Y-39117713D01*
X120499632Y-39027494D01*
X120499629Y-39027493D01*
X120310637Y-38966087D01*
X120212498Y-38950543D01*
X120114361Y-38935000D01*
X119915639Y-38935000D01*
X119850214Y-38945362D01*
X119719362Y-38966087D01*
X119530370Y-39027493D01*
X119530367Y-39027494D01*
X119353305Y-39117713D01*
X119192533Y-39234521D01*
X119052021Y-39375033D01*
X118935213Y-39535805D01*
X118855485Y-39692280D01*
X118807510Y-39743076D01*
X118739689Y-39759871D01*
X118673554Y-39737333D01*
X118634515Y-39692280D01*
X118615179Y-39654332D01*
X118554787Y-39535806D01*
X118437981Y-39375036D01*
X118297464Y-39234519D01*
X118136694Y-39117713D01*
X117959632Y-39027494D01*
X117959629Y-39027493D01*
X117770637Y-38966087D01*
X117672498Y-38950543D01*
X117574361Y-38935000D01*
X117375639Y-38935000D01*
X117310214Y-38945362D01*
X117179362Y-38966087D01*
X116990370Y-39027493D01*
X116990367Y-39027494D01*
X116813305Y-39117713D01*
X116652533Y-39234521D01*
X116512021Y-39375033D01*
X116395213Y-39535805D01*
X116315204Y-39692831D01*
X116267229Y-39743627D01*
X116199408Y-39760422D01*
X116133273Y-39737884D01*
X116094234Y-39692831D01*
X116014358Y-39536067D01*
X115987268Y-39498783D01*
X115424494Y-40061557D01*
X115408381Y-40001419D01*
X115341502Y-39885580D01*
X115246920Y-39790998D01*
X115131081Y-39724119D01*
X115070942Y-39708004D01*
X115633716Y-39145231D01*
X115633715Y-39145230D01*
X115596432Y-39118141D01*
X115419437Y-39027957D01*
X115230522Y-38966575D01*
X115034321Y-38935500D01*
X114835679Y-38935500D01*
X114639479Y-38966575D01*
X114639476Y-38966575D01*
X114450562Y-39027957D01*
X114273564Y-39118143D01*
X114236283Y-39145229D01*
X114236282Y-39145230D01*
X114799058Y-39708004D01*
X114738919Y-39724119D01*
X114623080Y-39790998D01*
X114528498Y-39885580D01*
X114461619Y-40001419D01*
X114445504Y-40061557D01*
X113882730Y-39498782D01*
X113882728Y-39498783D01*
X113881817Y-39500038D01*
X113826487Y-39542704D01*
X113756874Y-39548683D01*
X113695079Y-39516077D01*
X113660722Y-39455239D01*
X113660077Y-39452306D01*
X113657499Y-39439861D01*
X113657499Y-39387628D01*
X113651091Y-39328017D01*
X113613389Y-39226934D01*
X113613389Y-39226931D01*
X113600798Y-39193173D01*
X113600793Y-39193164D01*
X113514547Y-39077955D01*
X113514544Y-39077952D01*
X113399335Y-38991706D01*
X113399328Y-38991702D01*
X113264482Y-38941408D01*
X113264483Y-38941408D01*
X113204883Y-38935001D01*
X113204881Y-38935000D01*
X113204873Y-38935000D01*
X113204864Y-38935000D01*
X111585129Y-38935000D01*
X111585123Y-38935001D01*
X111525516Y-38941408D01*
X111390671Y-38991702D01*
X111390664Y-38991706D01*
X111275455Y-39077952D01*
X111275452Y-39077955D01*
X111189206Y-39193164D01*
X111189202Y-39193171D01*
X111138908Y-39328017D01*
X111132501Y-39387616D01*
X111132501Y-39387623D01*
X111132500Y-39387635D01*
X111132500Y-39461261D01*
X111112815Y-39528300D01*
X111060011Y-39574055D01*
X110990853Y-39583999D01*
X110927297Y-39554974D01*
X110908182Y-39534147D01*
X110882488Y-39498783D01*
X110792581Y-39375036D01*
X110652064Y-39234519D01*
X110491294Y-39117713D01*
X110314232Y-39027494D01*
X110314229Y-39027493D01*
X110125237Y-38966087D01*
X110027098Y-38950543D01*
X109928961Y-38935000D01*
X109730239Y-38935000D01*
X109664814Y-38945362D01*
X109533962Y-38966087D01*
X109344970Y-39027493D01*
X109344967Y-39027494D01*
X109167905Y-39117713D01*
X109007133Y-39234521D01*
X108866621Y-39375033D01*
X108749813Y-39535805D01*
X108669804Y-39692831D01*
X108621829Y-39743627D01*
X108554008Y-39760422D01*
X108487873Y-39737884D01*
X108448834Y-39692831D01*
X108368958Y-39536067D01*
X108341868Y-39498783D01*
X107779094Y-40061557D01*
X107762981Y-40001419D01*
X107696102Y-39885580D01*
X107601520Y-39790998D01*
X107485681Y-39724119D01*
X107425542Y-39708004D01*
X107988316Y-39145231D01*
X107988315Y-39145230D01*
X107951032Y-39118141D01*
X107774037Y-39027957D01*
X107585122Y-38966575D01*
X107388921Y-38935500D01*
X107190279Y-38935500D01*
X106994079Y-38966575D01*
X106994076Y-38966575D01*
X106805162Y-39027957D01*
X106628164Y-39118143D01*
X106590883Y-39145229D01*
X106590882Y-39145230D01*
X107153658Y-39708004D01*
X107093519Y-39724119D01*
X106977680Y-39790998D01*
X106883098Y-39885580D01*
X106816219Y-40001419D01*
X106800104Y-40061557D01*
X106237330Y-39498782D01*
X106237329Y-39498783D01*
X106210243Y-39536064D01*
X106120057Y-39713062D01*
X106058675Y-39901976D01*
X106058675Y-39901979D01*
X106027600Y-40098178D01*
X106027600Y-40296821D01*
X106058675Y-40493020D01*
X106058675Y-40493023D01*
X106120057Y-40681937D01*
X106210241Y-40858932D01*
X106237330Y-40896215D01*
X106237331Y-40896216D01*
X106800104Y-40333442D01*
X106816219Y-40393581D01*
X106883098Y-40509420D01*
X106977680Y-40604002D01*
X107093519Y-40670881D01*
X107153657Y-40686994D01*
X106590883Y-41249768D01*
X106590883Y-41249769D01*
X106628167Y-41276858D01*
X106805162Y-41367042D01*
X106994077Y-41428424D01*
X107190279Y-41459500D01*
X107388921Y-41459500D01*
X107585120Y-41428424D01*
X107585123Y-41428424D01*
X107774037Y-41367042D01*
X107951025Y-41276862D01*
X107988316Y-41249768D01*
X107425542Y-40686994D01*
X107485681Y-40670881D01*
X107601520Y-40604002D01*
X107696102Y-40509420D01*
X107762981Y-40393581D01*
X107779095Y-40333442D01*
X108341868Y-40896215D01*
X108368964Y-40858922D01*
X108448834Y-40702169D01*
X108496808Y-40651372D01*
X108564629Y-40634577D01*
X108630764Y-40657114D01*
X108669803Y-40702167D01*
X108749813Y-40859194D01*
X108866619Y-41019964D01*
X109007136Y-41160481D01*
X109167906Y-41277287D01*
X109245933Y-41317044D01*
X109344967Y-41367505D01*
X109344970Y-41367506D01*
X109413302Y-41389708D01*
X109533964Y-41428913D01*
X109583400Y-41436742D01*
X109646532Y-41466670D01*
X109683464Y-41525981D01*
X109688000Y-41559215D01*
X109688000Y-45466136D01*
X109668315Y-45533175D01*
X109615511Y-45578930D01*
X109603006Y-45583841D01*
X109550668Y-45601184D01*
X109401345Y-45693287D01*
X109307327Y-45787305D01*
X109246003Y-45820789D01*
X109176312Y-45815805D01*
X109131965Y-45787304D01*
X109038345Y-45693684D01*
X108889124Y-45601643D01*
X108889119Y-45601641D01*
X108722697Y-45546494D01*
X108722690Y-45546493D01*
X108619986Y-45536000D01*
X108470000Y-45536000D01*
X108470000Y-47935999D01*
X108619972Y-47935999D01*
X108619986Y-47935998D01*
X108722697Y-47925505D01*
X108889119Y-47870358D01*
X108889124Y-47870356D01*
X109038342Y-47778317D01*
X109131964Y-47684695D01*
X109134867Y-47683109D01*
X109136600Y-47680292D01*
X109165320Y-47666480D01*
X109193287Y-47651210D01*
X109196586Y-47651445D01*
X109199568Y-47650012D01*
X109231198Y-47653921D01*
X109262979Y-47656194D01*
X109266605Y-47658297D01*
X109268910Y-47658582D01*
X109279458Y-47665751D01*
X109298974Y-47677071D01*
X109303322Y-47680690D01*
X109401344Y-47778712D01*
X109477579Y-47825734D01*
X109484328Y-47831351D01*
X109499096Y-47853358D01*
X109516821Y-47873064D01*
X109519125Y-47883205D01*
X109523261Y-47889368D01*
X109523522Y-47902553D01*
X109529000Y-47926656D01*
X109529000Y-48439058D01*
X109529000Y-48439060D01*
X109528999Y-48439060D01*
X109549220Y-48540709D01*
X109549220Y-48540710D01*
X109555553Y-48572550D01*
X109555556Y-48572560D01*
X109607642Y-48698309D01*
X109607644Y-48698312D01*
X109683263Y-48811485D01*
X109683269Y-48811492D01*
X111032681Y-50160902D01*
X111066166Y-50222225D01*
X111069000Y-50248583D01*
X111069000Y-50531551D01*
X111049315Y-50598590D01*
X111001295Y-50642036D01*
X110898617Y-50694353D01*
X110689333Y-50846407D01*
X110577681Y-50958059D01*
X110516358Y-50991543D01*
X110446666Y-50986559D01*
X110402319Y-50958059D01*
X110348615Y-50904355D01*
X110290668Y-50846408D01*
X110081382Y-50694353D01*
X109850885Y-50576909D01*
X109604854Y-50496968D01*
X109604852Y-50496967D01*
X109604850Y-50496967D01*
X109349351Y-50456500D01*
X109349346Y-50456500D01*
X109090654Y-50456500D01*
X109090649Y-50456500D01*
X108835149Y-50496967D01*
X108589112Y-50576910D01*
X108358617Y-50694353D01*
X108149333Y-50846407D01*
X108037681Y-50958059D01*
X107976358Y-50991543D01*
X107906666Y-50986559D01*
X107862319Y-50958059D01*
X107808615Y-50904355D01*
X107750668Y-50846408D01*
X107541382Y-50694353D01*
X107310885Y-50576909D01*
X107064854Y-50496968D01*
X107064852Y-50496967D01*
X107064850Y-50496967D01*
X106809351Y-50456500D01*
X106809346Y-50456500D01*
X106550654Y-50456500D01*
X106550649Y-50456500D01*
X106295149Y-50496967D01*
X106049112Y-50576910D01*
X105818617Y-50694353D01*
X105609333Y-50846407D01*
X105497681Y-50958059D01*
X105436358Y-50991543D01*
X105366666Y-50986559D01*
X105322319Y-50958059D01*
X105268615Y-50904355D01*
X105210668Y-50846408D01*
X105001382Y-50694353D01*
X104770885Y-50576909D01*
X104524854Y-50496968D01*
X104524852Y-50496967D01*
X104524850Y-50496967D01*
X104269351Y-50456500D01*
X104269346Y-50456500D01*
X104010654Y-50456500D01*
X104010649Y-50456500D01*
X103755149Y-50496967D01*
X103509112Y-50576910D01*
X103278617Y-50694353D01*
X103069333Y-50846407D01*
X102957681Y-50958059D01*
X102896358Y-50991543D01*
X102826666Y-50986559D01*
X102782319Y-50958059D01*
X102728615Y-50904355D01*
X102670668Y-50846408D01*
X102461382Y-50694353D01*
X102230885Y-50576909D01*
X101984854Y-50496968D01*
X101984852Y-50496967D01*
X101984850Y-50496967D01*
X101729351Y-50456500D01*
X101729346Y-50456500D01*
X101470654Y-50456500D01*
X101470649Y-50456500D01*
X101215149Y-50496967D01*
X100969112Y-50576910D01*
X100738617Y-50694353D01*
X100529329Y-50846410D01*
X100346410Y-51029329D01*
X100194353Y-51238617D01*
X100076910Y-51469112D01*
X99996967Y-51715149D01*
X99956500Y-51970648D01*
X97655500Y-51970648D01*
X97655500Y-47235986D01*
X107120001Y-47235986D01*
X107130494Y-47338697D01*
X107185641Y-47505119D01*
X107185643Y-47505124D01*
X107277684Y-47654345D01*
X107401654Y-47778315D01*
X107550875Y-47870356D01*
X107550880Y-47870358D01*
X107717302Y-47925505D01*
X107717309Y-47925506D01*
X107820019Y-47935999D01*
X107969999Y-47935999D01*
X107970000Y-47935998D01*
X107970000Y-46986000D01*
X107120001Y-46986000D01*
X107120001Y-47235986D01*
X97655500Y-47235986D01*
X97655500Y-46236013D01*
X107120000Y-46236013D01*
X107120000Y-46486000D01*
X107970000Y-46486000D01*
X107970000Y-45536000D01*
X107820027Y-45536000D01*
X107820012Y-45536001D01*
X107717302Y-45546494D01*
X107550880Y-45601641D01*
X107550875Y-45601643D01*
X107401654Y-45693684D01*
X107277684Y-45817654D01*
X107185643Y-45966875D01*
X107185641Y-45966880D01*
X107130494Y-46133302D01*
X107130493Y-46133309D01*
X107120000Y-46236013D01*
X97655500Y-46236013D01*
X97655500Y-39387635D01*
X100947100Y-39387635D01*
X100947100Y-41007370D01*
X100947101Y-41007376D01*
X100953508Y-41066983D01*
X101003802Y-41201828D01*
X101003806Y-41201835D01*
X101090052Y-41317044D01*
X101090055Y-41317047D01*
X101205264Y-41403293D01*
X101205271Y-41403297D01*
X101340117Y-41453591D01*
X101340116Y-41453591D01*
X101347044Y-41454335D01*
X101399727Y-41460000D01*
X103019472Y-41459999D01*
X103079083Y-41453591D01*
X103213931Y-41403296D01*
X103329146Y-41317046D01*
X103415396Y-41201831D01*
X103431306Y-41159175D01*
X103431307Y-41159173D01*
X103465690Y-41066985D01*
X103465691Y-41066983D01*
X103469346Y-41032985D01*
X103472100Y-41007373D01*
X103472099Y-39387628D01*
X103465691Y-39328017D01*
X103453009Y-39294016D01*
X103431305Y-39235823D01*
X103431304Y-39235821D01*
X103430818Y-39234519D01*
X103427660Y-39226052D01*
X103415398Y-39193173D01*
X103415393Y-39193164D01*
X103329147Y-39077955D01*
X103329144Y-39077952D01*
X103213935Y-38991706D01*
X103213928Y-38991702D01*
X103079082Y-38941408D01*
X103079083Y-38941408D01*
X103019483Y-38935001D01*
X103019481Y-38935000D01*
X103019473Y-38935000D01*
X103019464Y-38935000D01*
X101399729Y-38935000D01*
X101399723Y-38935001D01*
X101340116Y-38941408D01*
X101205271Y-38991702D01*
X101205264Y-38991706D01*
X101090055Y-39077952D01*
X101090052Y-39077955D01*
X101003806Y-39193164D01*
X101003802Y-39193171D01*
X100953508Y-39328017D01*
X100947101Y-39387616D01*
X100947101Y-39387623D01*
X100947100Y-39387635D01*
X97655500Y-39387635D01*
X97655500Y-38113701D01*
X97675185Y-38046662D01*
X97691819Y-38026020D01*
X98962781Y-36755059D01*
X164140000Y-36755059D01*
X164140000Y-37098940D01*
X164173705Y-37441165D01*
X164173708Y-37441182D01*
X164240791Y-37778437D01*
X164240792Y-37778443D01*
X164340623Y-38107540D01*
X164472219Y-38425241D01*
X164472226Y-38425255D01*
X164634322Y-38728518D01*
X164634333Y-38728536D01*
X164825377Y-39014453D01*
X164825387Y-39014467D01*
X164993785Y-39219659D01*
X164993786Y-39219660D01*
X166345748Y-37867698D01*
X166419588Y-37969330D01*
X166597670Y-38147412D01*
X166699300Y-38221251D01*
X165347338Y-39573212D01*
X165347339Y-39573213D01*
X165552533Y-39741612D01*
X165552546Y-39741622D01*
X165838463Y-39932666D01*
X165838481Y-39932677D01*
X166141744Y-40094773D01*
X166141758Y-40094780D01*
X166459459Y-40226376D01*
X166788556Y-40326207D01*
X166788562Y-40326208D01*
X167125817Y-40393291D01*
X167125834Y-40393294D01*
X167468059Y-40427000D01*
X167811941Y-40427000D01*
X168154165Y-40393294D01*
X168154182Y-40393291D01*
X168491437Y-40326208D01*
X168491443Y-40326207D01*
X168820540Y-40226376D01*
X169138241Y-40094780D01*
X169138255Y-40094773D01*
X169441518Y-39932677D01*
X169441536Y-39932666D01*
X169727453Y-39741622D01*
X169727466Y-39741612D01*
X169932659Y-39573213D01*
X169932659Y-39573212D01*
X168580698Y-38221251D01*
X168682330Y-38147412D01*
X168860412Y-37969330D01*
X168934251Y-37867698D01*
X170286212Y-39219659D01*
X170286213Y-39219659D01*
X170454612Y-39014466D01*
X170454622Y-39014453D01*
X170645666Y-38728536D01*
X170645677Y-38728518D01*
X170807773Y-38425255D01*
X170807780Y-38425241D01*
X170939376Y-38107540D01*
X171039207Y-37778443D01*
X171039208Y-37778437D01*
X171106291Y-37441182D01*
X171106294Y-37441165D01*
X171140000Y-37098940D01*
X171140000Y-36755059D01*
X171106294Y-36412834D01*
X171106291Y-36412817D01*
X171039208Y-36075562D01*
X171039207Y-36075556D01*
X170939376Y-35746459D01*
X170807780Y-35428758D01*
X170807773Y-35428744D01*
X170645677Y-35125481D01*
X170645666Y-35125463D01*
X170454622Y-34839546D01*
X170454612Y-34839533D01*
X170286213Y-34634339D01*
X170286212Y-34634338D01*
X168934250Y-35986300D01*
X168860412Y-35884670D01*
X168682330Y-35706588D01*
X168580697Y-35632747D01*
X169932660Y-34280786D01*
X169932659Y-34280785D01*
X169727467Y-34112387D01*
X169727453Y-34112377D01*
X169441536Y-33921333D01*
X169441518Y-33921322D01*
X169138255Y-33759226D01*
X169138241Y-33759219D01*
X168820540Y-33627623D01*
X168491443Y-33527792D01*
X168491437Y-33527791D01*
X168154182Y-33460708D01*
X168154165Y-33460705D01*
X167811941Y-33427000D01*
X167468059Y-33427000D01*
X167125834Y-33460705D01*
X167125817Y-33460708D01*
X166788562Y-33527791D01*
X166788556Y-33527792D01*
X166459459Y-33627623D01*
X166141758Y-33759219D01*
X166141744Y-33759226D01*
X165838481Y-33921322D01*
X165838463Y-33921333D01*
X165552546Y-34112377D01*
X165552532Y-34112387D01*
X165347338Y-34280786D01*
X166699301Y-35632748D01*
X166597670Y-35706588D01*
X166419588Y-35884670D01*
X166345748Y-35986301D01*
X164993786Y-34634338D01*
X164825387Y-34839532D01*
X164825377Y-34839546D01*
X164634333Y-35125463D01*
X164634322Y-35125481D01*
X164472226Y-35428744D01*
X164472219Y-35428758D01*
X164340623Y-35746459D01*
X164240792Y-36075556D01*
X164240791Y-36075562D01*
X164173708Y-36412817D01*
X164173705Y-36412834D01*
X164140000Y-36755059D01*
X98962781Y-36755059D01*
X99053509Y-36664331D01*
X99240021Y-36477819D01*
X99301344Y-36444334D01*
X99327702Y-36441500D01*
X106783183Y-36441500D01*
X106821501Y-36447569D01*
X106860504Y-36460241D01*
X106967603Y-36495041D01*
X107026446Y-36504360D01*
X107144130Y-36523000D01*
X107144134Y-36523000D01*
X107322870Y-36523000D01*
X107411131Y-36509020D01*
X107499397Y-36495041D01*
X107614154Y-36457753D01*
X107645499Y-36447569D01*
X107683817Y-36441500D01*
X157823365Y-36441500D01*
X157823366Y-36441500D01*
X157999897Y-36413540D01*
X157999900Y-36413539D01*
X157999901Y-36413539D01*
X158169878Y-36358310D01*
X158169878Y-36358309D01*
X158169881Y-36358309D01*
X158329132Y-36277167D01*
X158473728Y-36172111D01*
X158600111Y-36045728D01*
X158705167Y-35901132D01*
X158786309Y-35741881D01*
X158841540Y-35571897D01*
X158869500Y-35395366D01*
X158869500Y-35216634D01*
X158841540Y-35040103D01*
X158841539Y-35040099D01*
X158841539Y-35040098D01*
X158786310Y-34870121D01*
X158786308Y-34870118D01*
X158770725Y-34839533D01*
X158705167Y-34710868D01*
X158600111Y-34566272D01*
X158588319Y-34554480D01*
X158573615Y-34527552D01*
X158557023Y-34501734D01*
X158556131Y-34495533D01*
X158554834Y-34493157D01*
X158552000Y-34466799D01*
X158552000Y-33584360D01*
X158565515Y-33528065D01*
X158599835Y-33460708D01*
X158612231Y-33436380D01*
X158620163Y-33411969D01*
X158664990Y-33274005D01*
X158664990Y-33274004D01*
X158664991Y-33274001D01*
X158691700Y-33105368D01*
X158691700Y-32982232D01*
X158711385Y-32915193D01*
X158764189Y-32869438D01*
X158833347Y-32859494D01*
X158896903Y-32888519D01*
X158933631Y-32943914D01*
X158960993Y-33028129D01*
X158960994Y-33028132D01*
X159049792Y-33202406D01*
X159051213Y-33205194D01*
X159168019Y-33365964D01*
X159308536Y-33506481D01*
X159469306Y-33623287D01*
X159556149Y-33667535D01*
X159646367Y-33713505D01*
X159646370Y-33713506D01*
X159740866Y-33744209D01*
X159835364Y-33774913D01*
X160031639Y-33806000D01*
X160031640Y-33806000D01*
X160230360Y-33806000D01*
X160230361Y-33806000D01*
X160426636Y-33774913D01*
X160615632Y-33713505D01*
X160792694Y-33623287D01*
X160953464Y-33506481D01*
X161093981Y-33365964D01*
X161210787Y-33205194D01*
X161301005Y-33028132D01*
X161362413Y-32839136D01*
X161393500Y-32642861D01*
X161393500Y-32444139D01*
X161362413Y-32247864D01*
X161314055Y-32099033D01*
X161301006Y-32058870D01*
X161301005Y-32058867D01*
X161251653Y-31962009D01*
X161210787Y-31881806D01*
X161093981Y-31721036D01*
X160953464Y-31580519D01*
X160792694Y-31463713D01*
X160615632Y-31373494D01*
X160615629Y-31373493D01*
X160426637Y-31312087D01*
X160328498Y-31296543D01*
X160230361Y-31281000D01*
X160031639Y-31281000D01*
X159966214Y-31291362D01*
X159835362Y-31312087D01*
X159646370Y-31373493D01*
X159646367Y-31373494D01*
X159469305Y-31463713D01*
X159308533Y-31580521D01*
X159168021Y-31721033D01*
X159051213Y-31881805D01*
X158960994Y-32058867D01*
X158960993Y-32058870D01*
X158899587Y-32247862D01*
X158868500Y-32444139D01*
X158868500Y-32609428D01*
X158848815Y-32676467D01*
X158796011Y-32722222D01*
X158726853Y-32732166D01*
X158663297Y-32703141D01*
X158626569Y-32647747D01*
X158614118Y-32609428D01*
X158612231Y-32603620D01*
X158534719Y-32451493D01*
X158434363Y-32313365D01*
X158313635Y-32192637D01*
X158175507Y-32092281D01*
X158023380Y-32014769D01*
X158023377Y-32014767D01*
X157861004Y-31962009D01*
X157734526Y-31941977D01*
X157692368Y-31935300D01*
X157521632Y-31935300D01*
X157465421Y-31944203D01*
X157352997Y-31962009D01*
X157352994Y-31962009D01*
X157190622Y-32014767D01*
X157190619Y-32014769D01*
X157038492Y-32092281D01*
X156969706Y-32142258D01*
X156900365Y-32192637D01*
X156900363Y-32192639D01*
X156900362Y-32192639D01*
X156779639Y-32313362D01*
X156779639Y-32313363D01*
X156779637Y-32313365D01*
X156771553Y-32324492D01*
X156679281Y-32451492D01*
X156601769Y-32603619D01*
X156601767Y-32603622D01*
X156549009Y-32765994D01*
X156549009Y-32765997D01*
X156522300Y-32934632D01*
X156522300Y-33105367D01*
X156549009Y-33274002D01*
X156549009Y-33274005D01*
X156601767Y-33436377D01*
X156648485Y-33528065D01*
X156662000Y-33584360D01*
X156662000Y-34046500D01*
X156642315Y-34113539D01*
X156589511Y-34159294D01*
X156538000Y-34170500D01*
X148770000Y-34170500D01*
X148702961Y-34150815D01*
X148657206Y-34098011D01*
X148646000Y-34046500D01*
X148646000Y-33457360D01*
X148648845Y-33445128D01*
X148647822Y-33436183D01*
X148658132Y-33405217D01*
X148658737Y-33402619D01*
X148659119Y-33401840D01*
X148706231Y-33309380D01*
X148709382Y-33299680D01*
X148713305Y-33291708D01*
X148731165Y-33272258D01*
X148746067Y-33250462D01*
X148754425Y-33246928D01*
X148760563Y-33240245D01*
X148786100Y-33233539D01*
X148810424Y-33223258D01*
X148819367Y-33224804D01*
X148828142Y-33222501D01*
X148853247Y-33230665D01*
X148879271Y-33235167D01*
X148886940Y-33241622D01*
X148894586Y-33244109D01*
X148904927Y-33256763D01*
X148924885Y-33273562D01*
X148992019Y-33365964D01*
X149132536Y-33506481D01*
X149293306Y-33623287D01*
X149380149Y-33667535D01*
X149470367Y-33713505D01*
X149470370Y-33713506D01*
X149564866Y-33744209D01*
X149659364Y-33774913D01*
X149855639Y-33806000D01*
X149855640Y-33806000D01*
X150054360Y-33806000D01*
X150054361Y-33806000D01*
X150250636Y-33774913D01*
X150439632Y-33713505D01*
X150616694Y-33623287D01*
X150777464Y-33506481D01*
X150917981Y-33365964D01*
X151034787Y-33205194D01*
X151122515Y-33033019D01*
X151170490Y-32982223D01*
X151238311Y-32965428D01*
X151304446Y-32987966D01*
X151343485Y-33033019D01*
X151431213Y-33205194D01*
X151548019Y-33365964D01*
X151688536Y-33506481D01*
X151849306Y-33623287D01*
X151936149Y-33667535D01*
X152026367Y-33713505D01*
X152026370Y-33713506D01*
X152120866Y-33744209D01*
X152215364Y-33774913D01*
X152411639Y-33806000D01*
X152411640Y-33806000D01*
X152610360Y-33806000D01*
X152610361Y-33806000D01*
X152806636Y-33774913D01*
X152995632Y-33713505D01*
X153172694Y-33623287D01*
X153333464Y-33506481D01*
X153473981Y-33365964D01*
X153590787Y-33205194D01*
X153681005Y-33028132D01*
X153742413Y-32839136D01*
X153773500Y-32642861D01*
X153773500Y-32444139D01*
X153742413Y-32247864D01*
X153694055Y-32099033D01*
X153681006Y-32058870D01*
X153681005Y-32058867D01*
X153631653Y-31962009D01*
X153590787Y-31881806D01*
X153473981Y-31721036D01*
X153333464Y-31580519D01*
X153172694Y-31463713D01*
X152995632Y-31373494D01*
X152995629Y-31373493D01*
X152806637Y-31312087D01*
X152708498Y-31296543D01*
X152610361Y-31281000D01*
X152411639Y-31281000D01*
X152346214Y-31291362D01*
X152215362Y-31312087D01*
X152026370Y-31373493D01*
X152026367Y-31373494D01*
X151849305Y-31463713D01*
X151688533Y-31580521D01*
X151548021Y-31721033D01*
X151431213Y-31881805D01*
X151343485Y-32053980D01*
X151295510Y-32104776D01*
X151227689Y-32121571D01*
X151161554Y-32099033D01*
X151122515Y-32053980D01*
X151034786Y-31881805D01*
X151004915Y-31840691D01*
X150917981Y-31721036D01*
X150777464Y-31580519D01*
X150616694Y-31463713D01*
X150439632Y-31373494D01*
X150439629Y-31373493D01*
X150250637Y-31312087D01*
X150152498Y-31296543D01*
X150054361Y-31281000D01*
X149855639Y-31281000D01*
X149790214Y-31291362D01*
X149659362Y-31312087D01*
X149470370Y-31373493D01*
X149470367Y-31373494D01*
X149293305Y-31463713D01*
X149132533Y-31580521D01*
X148992021Y-31721033D01*
X148875213Y-31881805D01*
X148784995Y-32058867D01*
X148752269Y-32159586D01*
X148712831Y-32217261D01*
X148648472Y-32244459D01*
X148579626Y-32232544D01*
X148534020Y-32194152D01*
X148528363Y-32186365D01*
X148407635Y-32065637D01*
X148269507Y-31965281D01*
X148117380Y-31887769D01*
X148117377Y-31887767D01*
X147955004Y-31835009D01*
X147828526Y-31814977D01*
X147786368Y-31808300D01*
X147615632Y-31808300D01*
X147559421Y-31817203D01*
X147446997Y-31835009D01*
X147446994Y-31835009D01*
X147284622Y-31887767D01*
X147284619Y-31887769D01*
X147132492Y-31965281D01*
X147096850Y-31991177D01*
X146994365Y-32065637D01*
X146994363Y-32065639D01*
X146994362Y-32065639D01*
X146873639Y-32186362D01*
X146873639Y-32186363D01*
X146873637Y-32186365D01*
X146851190Y-32217261D01*
X146773281Y-32324492D01*
X146695769Y-32476619D01*
X146695767Y-32476622D01*
X146643009Y-32638994D01*
X146643009Y-32638997D01*
X146637012Y-32676860D01*
X146616300Y-32807632D01*
X146616300Y-32978368D01*
X146619430Y-32998128D01*
X146643009Y-33147002D01*
X146643009Y-33147005D01*
X146695767Y-33309377D01*
X146710885Y-33339047D01*
X146741924Y-33399965D01*
X146742485Y-33401065D01*
X146756000Y-33457360D01*
X146756000Y-34046500D01*
X146736315Y-34113539D01*
X146683511Y-34159294D01*
X146632000Y-34170500D01*
X138737000Y-34170500D01*
X138669961Y-34150815D01*
X138624206Y-34098011D01*
X138613000Y-34046500D01*
X138613000Y-33457360D01*
X138616121Y-33444357D01*
X138615130Y-33434475D01*
X138626514Y-33401068D01*
X138638156Y-33378219D01*
X138649660Y-33355639D01*
X138697632Y-33304844D01*
X138765453Y-33288047D01*
X138831588Y-33310583D01*
X138860461Y-33339045D01*
X138880019Y-33365964D01*
X139020536Y-33506481D01*
X139181306Y-33623287D01*
X139268149Y-33667535D01*
X139358367Y-33713505D01*
X139358370Y-33713506D01*
X139452866Y-33744209D01*
X139547364Y-33774913D01*
X139743639Y-33806000D01*
X139743640Y-33806000D01*
X139942360Y-33806000D01*
X139942361Y-33806000D01*
X140138636Y-33774913D01*
X140327632Y-33713505D01*
X140504694Y-33623287D01*
X140665464Y-33506481D01*
X140805981Y-33365964D01*
X140922787Y-33205194D01*
X140978515Y-33095821D01*
X141026490Y-33045026D01*
X141094311Y-33028231D01*
X141160446Y-33050769D01*
X141199484Y-33095821D01*
X141255213Y-33205194D01*
X141372019Y-33365964D01*
X141512536Y-33506481D01*
X141673306Y-33623287D01*
X141760149Y-33667535D01*
X141850367Y-33713505D01*
X141850370Y-33713506D01*
X141944866Y-33744209D01*
X142039364Y-33774913D01*
X142235639Y-33806000D01*
X142235640Y-33806000D01*
X142434360Y-33806000D01*
X142434361Y-33806000D01*
X142630636Y-33774913D01*
X142819632Y-33713505D01*
X142996694Y-33623287D01*
X143157464Y-33506481D01*
X143297981Y-33365964D01*
X143414787Y-33205194D01*
X143505005Y-33028132D01*
X143566413Y-32839136D01*
X143597500Y-32642861D01*
X143597500Y-32444139D01*
X143566413Y-32247864D01*
X143518055Y-32099033D01*
X143505006Y-32058870D01*
X143505005Y-32058867D01*
X143455653Y-31962009D01*
X143414787Y-31881806D01*
X143297981Y-31721036D01*
X143157464Y-31580519D01*
X142996694Y-31463713D01*
X142819632Y-31373494D01*
X142819629Y-31373493D01*
X142630637Y-31312087D01*
X142532498Y-31296543D01*
X142434361Y-31281000D01*
X142235639Y-31281000D01*
X142170214Y-31291362D01*
X142039362Y-31312087D01*
X141850370Y-31373493D01*
X141850367Y-31373494D01*
X141673305Y-31463713D01*
X141512533Y-31580521D01*
X141372021Y-31721033D01*
X141255209Y-31881810D01*
X141199484Y-31991177D01*
X141151510Y-32041973D01*
X141083689Y-32058768D01*
X141017554Y-32036230D01*
X140978516Y-31991177D01*
X140922790Y-31881810D01*
X140869382Y-31808300D01*
X140805981Y-31721036D01*
X140665464Y-31580519D01*
X140504694Y-31463713D01*
X140327632Y-31373494D01*
X140327629Y-31373493D01*
X140138637Y-31312087D01*
X140040498Y-31296543D01*
X139942361Y-31281000D01*
X139743639Y-31281000D01*
X139678214Y-31291362D01*
X139547362Y-31312087D01*
X139358370Y-31373493D01*
X139358367Y-31373494D01*
X139181305Y-31463713D01*
X139020533Y-31580521D01*
X138880021Y-31721033D01*
X138763213Y-31881805D01*
X138672994Y-32058867D01*
X138672993Y-32058870D01*
X138660695Y-32096722D01*
X138621257Y-32154398D01*
X138556899Y-32181596D01*
X138488052Y-32169681D01*
X138455083Y-32146085D01*
X138374637Y-32065639D01*
X138374635Y-32065637D01*
X138236507Y-31965281D01*
X138084380Y-31887769D01*
X138084377Y-31887767D01*
X137922004Y-31835009D01*
X137795526Y-31814977D01*
X137753368Y-31808300D01*
X137582632Y-31808300D01*
X137526421Y-31817203D01*
X137413997Y-31835009D01*
X137413994Y-31835009D01*
X137251622Y-31887767D01*
X137251619Y-31887769D01*
X137099492Y-31965281D01*
X137063850Y-31991177D01*
X136961365Y-32065637D01*
X136961363Y-32065639D01*
X136961362Y-32065639D01*
X136840639Y-32186362D01*
X136840639Y-32186363D01*
X136840637Y-32186365D01*
X136818190Y-32217261D01*
X136740281Y-32324492D01*
X136662769Y-32476619D01*
X136662767Y-32476622D01*
X136610009Y-32638994D01*
X136610009Y-32638997D01*
X136604012Y-32676860D01*
X136583300Y-32807632D01*
X136583300Y-32978368D01*
X136586430Y-32998128D01*
X136610009Y-33147002D01*
X136610009Y-33147005D01*
X136662767Y-33309377D01*
X136677885Y-33339047D01*
X136708924Y-33399965D01*
X136709485Y-33401065D01*
X136723000Y-33457360D01*
X136723000Y-34046500D01*
X136703315Y-34113539D01*
X136650511Y-34159294D01*
X136599000Y-34170500D01*
X128831000Y-34170500D01*
X128763961Y-34150815D01*
X128718206Y-34098011D01*
X128707000Y-34046500D01*
X128707000Y-33584360D01*
X128720515Y-33528065D01*
X128754835Y-33460708D01*
X128767231Y-33436380D01*
X128819991Y-33274001D01*
X128833869Y-33186375D01*
X128863796Y-33123246D01*
X128923107Y-33086314D01*
X128992970Y-33087311D01*
X129051203Y-33125921D01*
X129066825Y-33149482D01*
X129093792Y-33202406D01*
X129095213Y-33205194D01*
X129212019Y-33365964D01*
X129352536Y-33506481D01*
X129513306Y-33623287D01*
X129600149Y-33667535D01*
X129690367Y-33713505D01*
X129690370Y-33713506D01*
X129784866Y-33744209D01*
X129879364Y-33774913D01*
X130075639Y-33806000D01*
X130075640Y-33806000D01*
X130274360Y-33806000D01*
X130274361Y-33806000D01*
X130470636Y-33774913D01*
X130659632Y-33713505D01*
X130836694Y-33623287D01*
X130997464Y-33506481D01*
X131111319Y-33392626D01*
X131172642Y-33359141D01*
X131242334Y-33364125D01*
X131286681Y-33392626D01*
X131400536Y-33506481D01*
X131561306Y-33623287D01*
X131648149Y-33667535D01*
X131738367Y-33713505D01*
X131738370Y-33713506D01*
X131832866Y-33744209D01*
X131927364Y-33774913D01*
X132123639Y-33806000D01*
X132123640Y-33806000D01*
X132322360Y-33806000D01*
X132322361Y-33806000D01*
X132518636Y-33774913D01*
X132707632Y-33713505D01*
X132884694Y-33623287D01*
X133045464Y-33506481D01*
X133185981Y-33365964D01*
X133302787Y-33205194D01*
X133393005Y-33028132D01*
X133454413Y-32839136D01*
X133485500Y-32642861D01*
X133485500Y-32444139D01*
X133454413Y-32247864D01*
X133406055Y-32099033D01*
X133393006Y-32058870D01*
X133393005Y-32058867D01*
X133343653Y-31962009D01*
X133302787Y-31881806D01*
X133185981Y-31721036D01*
X133045464Y-31580519D01*
X132884694Y-31463713D01*
X132707632Y-31373494D01*
X132707629Y-31373493D01*
X132518637Y-31312087D01*
X132420498Y-31296543D01*
X132322361Y-31281000D01*
X132123639Y-31281000D01*
X132058214Y-31291362D01*
X131927362Y-31312087D01*
X131738370Y-31373493D01*
X131738367Y-31373494D01*
X131561305Y-31463713D01*
X131400533Y-31580521D01*
X131286681Y-31694374D01*
X131225358Y-31727859D01*
X131155666Y-31722875D01*
X131111319Y-31694374D01*
X130997466Y-31580521D01*
X130997464Y-31580519D01*
X130836694Y-31463713D01*
X130659632Y-31373494D01*
X130659629Y-31373493D01*
X130470637Y-31312087D01*
X130372498Y-31296543D01*
X130274361Y-31281000D01*
X130075639Y-31281000D01*
X130010214Y-31291362D01*
X129879362Y-31312087D01*
X129690370Y-31373493D01*
X129690367Y-31373494D01*
X129513305Y-31463713D01*
X129352533Y-31580521D01*
X129212021Y-31721033D01*
X129095213Y-31881805D01*
X129004994Y-32058867D01*
X129004993Y-32058870D01*
X128943587Y-32247862D01*
X128918400Y-32406885D01*
X128888471Y-32470020D01*
X128829159Y-32506951D01*
X128759297Y-32505953D01*
X128701064Y-32467343D01*
X128690200Y-32452277D01*
X128689722Y-32451498D01*
X128689720Y-32451495D01*
X128689719Y-32451493D01*
X128589363Y-32313365D01*
X128468635Y-32192637D01*
X128330507Y-32092281D01*
X128178380Y-32014769D01*
X128178377Y-32014767D01*
X128016004Y-31962009D01*
X127889526Y-31941977D01*
X127847368Y-31935300D01*
X127676632Y-31935300D01*
X127620421Y-31944203D01*
X127507997Y-31962009D01*
X127507994Y-31962009D01*
X127345622Y-32014767D01*
X127345619Y-32014769D01*
X127193492Y-32092281D01*
X127124706Y-32142258D01*
X127055365Y-32192637D01*
X127055363Y-32192639D01*
X127055362Y-32192639D01*
X126934639Y-32313362D01*
X126934639Y-32313363D01*
X126934637Y-32313365D01*
X126926553Y-32324492D01*
X126834281Y-32451492D01*
X126756769Y-32603619D01*
X126756767Y-32603622D01*
X126704009Y-32765994D01*
X126704009Y-32765997D01*
X126677300Y-32934632D01*
X126677300Y-33105367D01*
X126704009Y-33274002D01*
X126704009Y-33274005D01*
X126756767Y-33436377D01*
X126803485Y-33528065D01*
X126817000Y-33584360D01*
X126817000Y-34046500D01*
X126797315Y-34113539D01*
X126744511Y-34159294D01*
X126693000Y-34170500D01*
X118782000Y-34170500D01*
X118714961Y-34150815D01*
X118669206Y-34098011D01*
X118658000Y-34046500D01*
X118658000Y-33457360D01*
X118660405Y-33446462D01*
X118659374Y-33438955D01*
X118668020Y-33411969D01*
X118669526Y-33405152D01*
X118670480Y-33403095D01*
X118718231Y-33309380D01*
X118728147Y-33278861D01*
X118731293Y-33272084D01*
X118749602Y-33251216D01*
X118765271Y-33228300D01*
X118772324Y-33225319D01*
X118777374Y-33219564D01*
X118804060Y-33211906D01*
X118829629Y-33201101D01*
X118837171Y-33202406D01*
X118844533Y-33200294D01*
X118871121Y-33208280D01*
X118898476Y-33213013D01*
X118904909Y-33218428D01*
X118911450Y-33220393D01*
X118922286Y-33233056D01*
X118944085Y-33251406D01*
X118966297Y-33281978D01*
X119052019Y-33399964D01*
X119192536Y-33540481D01*
X119353306Y-33657287D01*
X119440149Y-33701535D01*
X119530367Y-33747505D01*
X119530370Y-33747506D01*
X119614719Y-33774912D01*
X119719364Y-33808913D01*
X119915639Y-33840000D01*
X119915640Y-33840000D01*
X120114360Y-33840000D01*
X120114361Y-33840000D01*
X120310636Y-33808913D01*
X120499632Y-33747505D01*
X120676694Y-33657287D01*
X120837464Y-33540481D01*
X120977981Y-33399964D01*
X121094787Y-33239194D01*
X121183177Y-33065718D01*
X121231150Y-33014923D01*
X121298971Y-32998128D01*
X121365106Y-33020665D01*
X121404145Y-33065719D01*
X121475209Y-33205189D01*
X121499914Y-33239192D01*
X121592019Y-33365964D01*
X121732536Y-33506481D01*
X121893306Y-33623287D01*
X121980149Y-33667535D01*
X122070367Y-33713505D01*
X122070370Y-33713506D01*
X122164866Y-33744209D01*
X122259364Y-33774913D01*
X122455639Y-33806000D01*
X122455640Y-33806000D01*
X122654360Y-33806000D01*
X122654361Y-33806000D01*
X122850636Y-33774913D01*
X123039632Y-33713505D01*
X123216694Y-33623287D01*
X123377464Y-33506481D01*
X123517981Y-33365964D01*
X123634787Y-33205194D01*
X123725005Y-33028132D01*
X123786413Y-32839136D01*
X123817500Y-32642861D01*
X123817500Y-32444139D01*
X123786413Y-32247864D01*
X123738055Y-32099033D01*
X123725006Y-32058870D01*
X123725005Y-32058867D01*
X123675653Y-31962009D01*
X123634787Y-31881806D01*
X123517981Y-31721036D01*
X123377464Y-31580519D01*
X123216694Y-31463713D01*
X123039632Y-31373494D01*
X123039629Y-31373493D01*
X122850637Y-31312087D01*
X122752498Y-31296543D01*
X122654361Y-31281000D01*
X122455639Y-31281000D01*
X122390214Y-31291362D01*
X122259362Y-31312087D01*
X122070370Y-31373493D01*
X122070367Y-31373494D01*
X121893305Y-31463713D01*
X121732533Y-31580521D01*
X121592021Y-31721033D01*
X121475213Y-31881805D01*
X121386823Y-32055280D01*
X121338848Y-32106076D01*
X121271027Y-32122871D01*
X121204892Y-32100333D01*
X121165853Y-32055280D01*
X121145210Y-32014767D01*
X121094787Y-31915806D01*
X120977981Y-31755036D01*
X120837464Y-31614519D01*
X120676694Y-31497713D01*
X120609966Y-31463713D01*
X120499632Y-31407494D01*
X120499629Y-31407493D01*
X120310637Y-31346087D01*
X120212498Y-31330543D01*
X120114361Y-31315000D01*
X119915639Y-31315000D01*
X119850214Y-31325362D01*
X119719362Y-31346087D01*
X119530370Y-31407493D01*
X119530367Y-31407494D01*
X119353305Y-31497713D01*
X119192533Y-31614521D01*
X119052021Y-31755033D01*
X118935213Y-31915805D01*
X118844994Y-32092867D01*
X118844993Y-32092870D01*
X118805070Y-32215742D01*
X118765632Y-32273418D01*
X118701274Y-32300616D01*
X118632427Y-32288701D01*
X118586821Y-32250309D01*
X118540365Y-32186368D01*
X118540360Y-32186362D01*
X118419637Y-32065639D01*
X118419635Y-32065637D01*
X118281507Y-31965281D01*
X118129380Y-31887769D01*
X118129377Y-31887767D01*
X117967004Y-31835009D01*
X117840526Y-31814977D01*
X117798368Y-31808300D01*
X117627632Y-31808300D01*
X117571421Y-31817203D01*
X117458997Y-31835009D01*
X117458994Y-31835009D01*
X117296622Y-31887767D01*
X117296619Y-31887769D01*
X117144492Y-31965281D01*
X117108850Y-31991177D01*
X117006365Y-32065637D01*
X117006363Y-32065639D01*
X117006362Y-32065639D01*
X116885639Y-32186362D01*
X116885639Y-32186363D01*
X116885637Y-32186365D01*
X116863190Y-32217261D01*
X116785281Y-32324492D01*
X116707769Y-32476619D01*
X116707767Y-32476622D01*
X116655009Y-32638994D01*
X116655009Y-32638997D01*
X116649012Y-32676860D01*
X116628300Y-32807632D01*
X116628300Y-32978368D01*
X116631430Y-32998128D01*
X116655009Y-33147002D01*
X116655009Y-33147005D01*
X116707767Y-33309377D01*
X116722885Y-33339047D01*
X116753924Y-33399965D01*
X116754485Y-33401065D01*
X116768000Y-33457360D01*
X116768000Y-34046500D01*
X116748315Y-34113539D01*
X116695511Y-34159294D01*
X116644000Y-34170500D01*
X108828500Y-34170500D01*
X108761461Y-34150815D01*
X108715706Y-34098011D01*
X108704500Y-34046500D01*
X108704500Y-33537207D01*
X108724185Y-33470168D01*
X108776989Y-33424413D01*
X108846147Y-33414469D01*
X108909703Y-33443494D01*
X108916181Y-33449526D01*
X109007136Y-33540481D01*
X109167906Y-33657287D01*
X109254749Y-33701535D01*
X109344967Y-33747505D01*
X109344970Y-33747506D01*
X109429319Y-33774912D01*
X109533964Y-33808913D01*
X109730239Y-33840000D01*
X109730240Y-33840000D01*
X109928960Y-33840000D01*
X109928961Y-33840000D01*
X110125236Y-33808913D01*
X110314232Y-33747505D01*
X110491294Y-33657287D01*
X110652064Y-33540481D01*
X110792581Y-33399964D01*
X110909387Y-33239194D01*
X110999605Y-33062132D01*
X110999606Y-33062129D01*
X111001815Y-33057794D01*
X111049790Y-33006998D01*
X111117611Y-32990203D01*
X111183746Y-33012740D01*
X111222785Y-33057794D01*
X111224994Y-33062129D01*
X111224995Y-33062132D01*
X111315213Y-33239194D01*
X111432019Y-33399964D01*
X111572536Y-33540481D01*
X111733306Y-33657287D01*
X111820149Y-33701535D01*
X111910367Y-33747505D01*
X111910370Y-33747506D01*
X111994719Y-33774912D01*
X112099364Y-33808913D01*
X112295639Y-33840000D01*
X112295640Y-33840000D01*
X112494360Y-33840000D01*
X112494361Y-33840000D01*
X112690636Y-33808913D01*
X112879632Y-33747505D01*
X113056694Y-33657287D01*
X113217464Y-33540481D01*
X113357981Y-33399964D01*
X113474787Y-33239194D01*
X113565005Y-33062132D01*
X113626413Y-32873136D01*
X113657500Y-32676861D01*
X113657500Y-32478139D01*
X113626413Y-32281864D01*
X113581053Y-32142258D01*
X113565006Y-32092870D01*
X113565005Y-32092867D01*
X113499996Y-31965281D01*
X113474787Y-31915806D01*
X113357981Y-31755036D01*
X113217464Y-31614519D01*
X113056694Y-31497713D01*
X112989966Y-31463713D01*
X112879632Y-31407494D01*
X112879629Y-31407493D01*
X112690637Y-31346087D01*
X112592498Y-31330543D01*
X112494361Y-31315000D01*
X112295639Y-31315000D01*
X112230214Y-31325362D01*
X112099362Y-31346087D01*
X111910370Y-31407493D01*
X111910367Y-31407494D01*
X111733305Y-31497713D01*
X111572533Y-31614521D01*
X111432021Y-31755033D01*
X111315213Y-31915805D01*
X111222785Y-32097205D01*
X111174810Y-32148001D01*
X111106989Y-32164796D01*
X111040854Y-32142258D01*
X111001815Y-32097205D01*
X110959810Y-32014767D01*
X110909387Y-31915806D01*
X110792581Y-31755036D01*
X110652064Y-31614519D01*
X110491294Y-31497713D01*
X110424566Y-31463713D01*
X110314232Y-31407494D01*
X110314229Y-31407493D01*
X110125237Y-31346087D01*
X110027098Y-31330543D01*
X109928961Y-31315000D01*
X109730239Y-31315000D01*
X109664814Y-31325362D01*
X109533962Y-31346087D01*
X109344970Y-31407493D01*
X109344967Y-31407494D01*
X109167905Y-31497713D01*
X109007133Y-31614521D01*
X108866621Y-31755033D01*
X108749813Y-31915805D01*
X108659595Y-32092866D01*
X108651867Y-32116652D01*
X108612428Y-32174327D01*
X108548069Y-32201524D01*
X108479223Y-32189609D01*
X108439359Y-32156051D01*
X108438275Y-32156977D01*
X108435108Y-32153269D01*
X108308729Y-32026890D01*
X108292043Y-32014767D01*
X108164132Y-31921833D01*
X108004881Y-31840691D01*
X108004878Y-31840689D01*
X107834899Y-31785460D01*
X107717209Y-31766820D01*
X107658366Y-31757500D01*
X107479634Y-31757500D01*
X107420790Y-31766820D01*
X107303101Y-31785460D01*
X107303098Y-31785460D01*
X107133121Y-31840689D01*
X107133118Y-31840691D01*
X106973867Y-31921833D01*
X106829270Y-32026890D01*
X106702890Y-32153270D01*
X106597833Y-32297867D01*
X106516691Y-32457118D01*
X106516689Y-32457121D01*
X106461460Y-32627098D01*
X106461460Y-32627101D01*
X106433500Y-32803634D01*
X106433500Y-34046500D01*
X106413815Y-34113539D01*
X106361011Y-34159294D01*
X106309500Y-34170500D01*
X98716630Y-34170500D01*
X98540108Y-34198458D01*
X98540106Y-34198458D01*
X98540103Y-34198459D01*
X98455111Y-34226075D01*
X98370114Y-34253692D01*
X98210875Y-34334829D01*
X98210862Y-34334837D01*
X98152830Y-34377000D01*
X98152830Y-34377001D01*
X98066270Y-34439889D01*
X95780272Y-36725889D01*
X95653891Y-36852269D01*
X95653890Y-36852270D01*
X95548833Y-36996867D01*
X95467243Y-37156997D01*
X95466184Y-37160754D01*
X95412458Y-37326105D01*
X95384500Y-37502629D01*
X93029301Y-37502629D01*
X93041697Y-37461766D01*
X93061209Y-37397443D01*
X93061210Y-37397437D01*
X93128293Y-37060182D01*
X93128296Y-37060165D01*
X93162002Y-36717940D01*
X93162002Y-36374059D01*
X93128296Y-36031834D01*
X93128293Y-36031817D01*
X93061210Y-35694562D01*
X93061209Y-35694556D01*
X92961378Y-35365459D01*
X92829782Y-35047758D01*
X92829775Y-35047744D01*
X92667679Y-34744481D01*
X92667668Y-34744463D01*
X92476624Y-34458546D01*
X92476614Y-34458533D01*
X92308215Y-34253339D01*
X92308214Y-34253338D01*
X90956252Y-35605300D01*
X90882414Y-35503670D01*
X90704332Y-35325588D01*
X90602699Y-35251747D01*
X91954662Y-33899786D01*
X91954661Y-33899785D01*
X91749469Y-33731387D01*
X91749455Y-33731377D01*
X91463538Y-33540333D01*
X91463520Y-33540322D01*
X91160257Y-33378226D01*
X91160243Y-33378219D01*
X90842542Y-33246623D01*
X90513445Y-33146792D01*
X90513439Y-33146791D01*
X90176184Y-33079708D01*
X90176167Y-33079705D01*
X89833943Y-33046000D01*
X89490061Y-33046000D01*
X89147836Y-33079705D01*
X89147819Y-33079708D01*
X88810564Y-33146791D01*
X88810558Y-33146792D01*
X88481461Y-33246623D01*
X88163760Y-33378219D01*
X88163746Y-33378226D01*
X87860483Y-33540322D01*
X87860465Y-33540333D01*
X87574548Y-33731377D01*
X87574534Y-33731387D01*
X87369340Y-33899786D01*
X88721303Y-35251748D01*
X88619672Y-35325588D01*
X88441590Y-35503670D01*
X88367750Y-35605301D01*
X87015788Y-34253338D01*
X86847389Y-34458532D01*
X86847379Y-34458546D01*
X86656335Y-34744463D01*
X86656324Y-34744481D01*
X86494228Y-35047744D01*
X86494221Y-35047758D01*
X86362625Y-35365459D01*
X86262794Y-35694556D01*
X86262793Y-35694562D01*
X86195710Y-36031817D01*
X86195707Y-36031834D01*
X86162002Y-36374059D01*
X84604688Y-36374059D01*
X84586567Y-32478139D01*
X100947100Y-32478139D01*
X100947100Y-32676861D01*
X100958215Y-32747037D01*
X100978187Y-32873137D01*
X101039593Y-33062129D01*
X101039594Y-33062132D01*
X101126932Y-33233539D01*
X101129813Y-33239194D01*
X101246619Y-33399964D01*
X101387136Y-33540481D01*
X101547906Y-33657287D01*
X101634749Y-33701535D01*
X101724967Y-33747505D01*
X101724970Y-33747506D01*
X101809319Y-33774912D01*
X101913964Y-33808913D01*
X102110239Y-33840000D01*
X102110240Y-33840000D01*
X102308960Y-33840000D01*
X102308961Y-33840000D01*
X102505236Y-33808913D01*
X102694232Y-33747505D01*
X102871294Y-33657287D01*
X103032064Y-33540481D01*
X103172581Y-33399964D01*
X103289387Y-33239194D01*
X103379605Y-33062132D01*
X103441013Y-32873136D01*
X103472100Y-32676861D01*
X103472100Y-32478139D01*
X103441013Y-32281864D01*
X103395653Y-32142258D01*
X103379606Y-32092870D01*
X103379605Y-32092867D01*
X103314596Y-31965281D01*
X103289387Y-31915806D01*
X103172581Y-31755036D01*
X103032064Y-31614519D01*
X102871294Y-31497713D01*
X102804566Y-31463713D01*
X102694232Y-31407494D01*
X102694229Y-31407493D01*
X102505237Y-31346087D01*
X102407098Y-31330543D01*
X102308961Y-31315000D01*
X102110239Y-31315000D01*
X102044814Y-31325362D01*
X101913962Y-31346087D01*
X101724970Y-31407493D01*
X101724967Y-31407494D01*
X101547905Y-31497713D01*
X101387133Y-31614521D01*
X101246621Y-31755033D01*
X101129813Y-31915805D01*
X101039594Y-32092867D01*
X101039593Y-32092870D01*
X100978187Y-32281862D01*
X100951196Y-32452277D01*
X100947100Y-32478139D01*
X84586567Y-32478139D01*
X84582000Y-31496214D01*
X84582000Y-31495638D01*
X84582000Y-29461000D01*
X84601685Y-29393961D01*
X84654489Y-29348206D01*
X84706000Y-29337000D01*
X172346122Y-29337000D01*
X172413161Y-29356685D01*
G37*
%TD.AperFunction*%
%TD*%
M02*
