%TF.GenerationSoftware,KiCad,Pcbnew,9.0.0-rc2-32673a0ead~182~ubuntu24.04.1*%
%TF.CreationDate,2025-01-29T18:27:37-05:00*%
%TF.ProjectId,cmod_s7,636d6f64-5f73-4372-9e6b-696361645f70,rev?*%
%TF.SameCoordinates,Original*%
%TF.FileFunction,Paste,Bot*%
%TF.FilePolarity,Positive*%
%FSLAX46Y46*%
G04 Gerber Fmt 4.6, Leading zero omitted, Abs format (unit mm)*
G04 Created by KiCad (PCBNEW 9.0.0-rc2-32673a0ead~182~ubuntu24.04.1) date 2025-01-29 18:27:37*
%MOMM*%
%LPD*%
G01*
G04 APERTURE LIST*
G04 Aperture macros list*
%AMRoundRect*
0 Rectangle with rounded corners*
0 $1 Rounding radius*
0 $2 $3 $4 $5 $6 $7 $8 $9 X,Y pos of 4 corners*
0 Add a 4 corners polygon primitive as box body*
4,1,4,$2,$3,$4,$5,$6,$7,$8,$9,$2,$3,0*
0 Add four circle primitives for the rounded corners*
1,1,$1+$1,$2,$3*
1,1,$1+$1,$4,$5*
1,1,$1+$1,$6,$7*
1,1,$1+$1,$8,$9*
0 Add four rect primitives between the rounded corners*
20,1,$1+$1,$2,$3,$4,$5,0*
20,1,$1+$1,$4,$5,$6,$7,0*
20,1,$1+$1,$6,$7,$8,$9,0*
20,1,$1+$1,$8,$9,$2,$3,0*%
G04 Aperture macros list end*
%ADD10RoundRect,0.250000X0.475000X-0.337500X0.475000X0.337500X-0.475000X0.337500X-0.475000X-0.337500X0*%
%ADD11R,1.470000X1.200000*%
%ADD12RoundRect,0.250000X-0.475000X0.337500X-0.475000X-0.337500X0.475000X-0.337500X0.475000X0.337500X0*%
G04 APERTURE END LIST*
D10*
%TO.C,C20*%
X112887000Y-37298000D03*
X112887000Y-35223000D03*
%TD*%
D11*
%TO.C,L4*%
X157607000Y-35589000D03*
X157607000Y-37309000D03*
%TD*%
D10*
%TO.C,C18*%
X115300000Y-37298000D03*
X115300000Y-35223000D03*
%TD*%
%TO.C,C12*%
X142494000Y-37359500D03*
X142494000Y-35284500D03*
%TD*%
D12*
%TO.C,C2*%
X140081000Y-35284500D03*
X140081000Y-37359500D03*
%TD*%
D10*
%TO.C,C3*%
X124968000Y-37486500D03*
X124968000Y-35411500D03*
%TD*%
%TO.C,C19*%
X105394000Y-37298000D03*
X105394000Y-35223000D03*
%TD*%
D11*
%TO.C,L2*%
X137668000Y-35335000D03*
X137668000Y-37055000D03*
%TD*%
%TO.C,L3*%
X147574000Y-35335000D03*
X147574000Y-37055000D03*
%TD*%
D10*
%TO.C,C13*%
X155321000Y-37359500D03*
X155321000Y-35284500D03*
%TD*%
%TO.C,C5*%
X122555000Y-37486500D03*
X122555000Y-35411500D03*
%TD*%
%TO.C,C15*%
X152908000Y-37359500D03*
X152908000Y-35284500D03*
%TD*%
%TO.C,C6*%
X132969000Y-37359500D03*
X132969000Y-35284500D03*
%TD*%
D12*
%TO.C,C1*%
X129921000Y-35284500D03*
X129921000Y-37359500D03*
%TD*%
D11*
%TO.C,L5*%
X117713000Y-35400500D03*
X117713000Y-37120500D03*
%TD*%
D12*
%TO.C,C16*%
X120126000Y-35350000D03*
X120126000Y-37425000D03*
%TD*%
%TO.C,C10*%
X150114000Y-35284500D03*
X150114000Y-37359500D03*
%TD*%
%TO.C,C11*%
X160020000Y-35538500D03*
X160020000Y-37613500D03*
%TD*%
D10*
%TO.C,C4*%
X135255000Y-37359500D03*
X135255000Y-35284500D03*
%TD*%
%TO.C,C21*%
X103108000Y-37298000D03*
X103108000Y-35223000D03*
%TD*%
%TO.C,C14*%
X145034000Y-37359500D03*
X145034000Y-35284500D03*
%TD*%
D12*
%TO.C,C17*%
X110220000Y-35350000D03*
X110220000Y-37425000D03*
%TD*%
D11*
%TO.C,L6*%
X107807000Y-35400500D03*
X107807000Y-37120500D03*
%TD*%
%TO.C,L1*%
X127508000Y-35589000D03*
X127508000Y-37309000D03*
%TD*%
M02*
