%TF.GenerationSoftware,KiCad,Pcbnew,9.0.0-rc2-32673a0ead~182~ubuntu24.04.1*%
%TF.CreationDate,2025-01-29T18:27:37-05:00*%
%TF.ProjectId,cmod_s7,636d6f64-5f73-4372-9e6b-696361645f70,rev?*%
%TF.SameCoordinates,Original*%
%TF.FileFunction,Soldermask,Bot*%
%TF.FilePolarity,Negative*%
%FSLAX46Y46*%
G04 Gerber Fmt 4.6, Leading zero omitted, Abs format (unit mm)*
G04 Created by KiCad (PCBNEW 9.0.0-rc2-32673a0ead~182~ubuntu24.04.1) date 2025-01-29 18:27:37*
%MOMM*%
%LPD*%
G01*
G04 APERTURE LIST*
G04 Aperture macros list*
%AMRoundRect*
0 Rectangle with rounded corners*
0 $1 Rounding radius*
0 $2 $3 $4 $5 $6 $7 $8 $9 X,Y pos of 4 corners*
0 Add a 4 corners polygon primitive as box body*
4,1,4,$2,$3,$4,$5,$6,$7,$8,$9,$2,$3,0*
0 Add four circle primitives for the rounded corners*
1,1,$1+$1,$2,$3*
1,1,$1+$1,$4,$5*
1,1,$1+$1,$6,$7*
1,1,$1+$1,$8,$9*
0 Add four rect primitives between the rounded corners*
20,1,$1+$1,$2,$3,$4,$5,0*
20,1,$1+$1,$4,$5,$6,$7,0*
20,1,$1+$1,$6,$7,$8,$9,0*
20,1,$1+$1,$8,$9,$2,$3,0*%
G04 Aperture macros list end*
%ADD10C,1.390000*%
%ADD11R,1.390000X1.390000*%
%ADD12R,1.524000X1.524000*%
%ADD13C,1.524000*%
%ADD14C,2.286000*%
%ADD15RoundRect,0.250000X0.475000X-0.337500X0.475000X0.337500X-0.475000X0.337500X-0.475000X-0.337500X0*%
%ADD16R,1.470000X1.200000*%
%ADD17RoundRect,0.250000X-0.475000X0.337500X-0.475000X-0.337500X0.475000X-0.337500X0.475000X0.337500X0*%
%ADD18C,6.000000*%
%ADD19C,1.168400*%
G04 APERTURE END LIST*
D10*
%TO.C,J7*%
X101092000Y-76708000D03*
X103632000Y-76708000D03*
X106172000Y-76708000D03*
X108712000Y-76708000D03*
X111252000Y-76708000D03*
X113792000Y-76708000D03*
X101092000Y-74168000D03*
X103632000Y-74168000D03*
X106172000Y-74168000D03*
X108712000Y-74168000D03*
X111252000Y-74168000D03*
D11*
X113792000Y-74168000D03*
%TD*%
D12*
%TO.C,J1*%
X122555000Y-40163500D03*
D13*
X127635000Y-40163500D03*
X130175000Y-40163500D03*
X130175000Y-32543500D03*
X122555000Y-32543500D03*
%TD*%
D12*
%TO.C,J5*%
X102209600Y-40197500D03*
D13*
X107289600Y-40197500D03*
X109829600Y-40197500D03*
X109829600Y-32577500D03*
X102209600Y-32577500D03*
%TD*%
D12*
%TO.C,J4*%
X152511000Y-40163500D03*
D13*
X155051000Y-40163500D03*
X157591000Y-40163500D03*
X160131000Y-40163500D03*
X160131000Y-32543500D03*
X152511000Y-32543500D03*
%TD*%
D11*
%TO.C,J8*%
X138015500Y-74168000D03*
D10*
X135475500Y-74168000D03*
X132935500Y-74168000D03*
X130395500Y-74168000D03*
X127855500Y-74168000D03*
X125315500Y-74168000D03*
X138015500Y-76708000D03*
X135475500Y-76708000D03*
X132935500Y-76708000D03*
X130395500Y-76708000D03*
X127855500Y-76708000D03*
X125315500Y-76708000D03*
%TD*%
D14*
%TO.C,U2*%
X101600000Y-67340000D03*
X104140000Y-67340000D03*
X106680000Y-67340000D03*
X109220000Y-67340000D03*
X111760000Y-67340000D03*
X114300000Y-67340000D03*
X116840000Y-67340000D03*
X119380000Y-67340000D03*
X121920000Y-67340000D03*
X139700000Y-67340000D03*
X142240000Y-67340000D03*
X144780000Y-67340000D03*
X147320000Y-67340000D03*
X149860000Y-67340000D03*
X152400000Y-67340000D03*
X154940000Y-67340000D03*
X157480000Y-67340000D03*
X160020000Y-67340000D03*
X160020000Y-52100000D03*
X157480000Y-52100000D03*
X154940000Y-52100000D03*
X152400000Y-52100000D03*
X149860000Y-52100000D03*
X147320000Y-52100000D03*
X144780000Y-52100000D03*
X142240000Y-52100000D03*
X139700000Y-52100000D03*
X121920000Y-52100000D03*
X119380000Y-52100000D03*
X116840000Y-52100000D03*
X114300000Y-52100000D03*
X111760000Y-52100000D03*
X109220000Y-52100000D03*
X106680000Y-52100000D03*
X104140000Y-52100000D03*
X101600000Y-52100000D03*
%TD*%
D12*
%TO.C,J2*%
X132223000Y-40163500D03*
D13*
X134763000Y-40163500D03*
X137303000Y-40163500D03*
X139843000Y-40163500D03*
X139843000Y-32543500D03*
X132223000Y-32543500D03*
%TD*%
D12*
%TO.C,J6*%
X112395000Y-40197500D03*
D13*
X114935000Y-40197500D03*
X117475000Y-40197500D03*
X120015000Y-40197500D03*
X120015000Y-32577500D03*
X112395000Y-32577500D03*
%TD*%
D12*
%TO.C,J3*%
X142335000Y-40163500D03*
D13*
X147415000Y-40163500D03*
X149955000Y-40163500D03*
X149955000Y-32543500D03*
X142335000Y-32543500D03*
%TD*%
D15*
%TO.C,C20*%
X112887000Y-37298000D03*
X112887000Y-35223000D03*
%TD*%
D16*
%TO.C,L4*%
X157607000Y-35589000D03*
X157607000Y-37309000D03*
%TD*%
D15*
%TO.C,C18*%
X115300000Y-37298000D03*
X115300000Y-35223000D03*
%TD*%
%TO.C,C12*%
X142494000Y-37359500D03*
X142494000Y-35284500D03*
%TD*%
D17*
%TO.C,C2*%
X140081000Y-35284500D03*
X140081000Y-37359500D03*
%TD*%
D15*
%TO.C,C3*%
X124968000Y-37486500D03*
X124968000Y-35411500D03*
%TD*%
%TO.C,C19*%
X105394000Y-37298000D03*
X105394000Y-35223000D03*
%TD*%
D16*
%TO.C,L2*%
X137668000Y-35335000D03*
X137668000Y-37055000D03*
%TD*%
%TO.C,L3*%
X147574000Y-35335000D03*
X147574000Y-37055000D03*
%TD*%
D15*
%TO.C,C13*%
X155321000Y-37359500D03*
X155321000Y-35284500D03*
%TD*%
%TO.C,C5*%
X122555000Y-37486500D03*
X122555000Y-35411500D03*
%TD*%
%TO.C,C15*%
X152908000Y-37359500D03*
X152908000Y-35284500D03*
%TD*%
%TO.C,C6*%
X132969000Y-37359500D03*
X132969000Y-35284500D03*
%TD*%
D17*
%TO.C,C1*%
X129921000Y-35284500D03*
X129921000Y-37359500D03*
%TD*%
D16*
%TO.C,L5*%
X117713000Y-35400500D03*
X117713000Y-37120500D03*
%TD*%
D17*
%TO.C,C16*%
X120126000Y-35350000D03*
X120126000Y-37425000D03*
%TD*%
%TO.C,C10*%
X150114000Y-35284500D03*
X150114000Y-37359500D03*
%TD*%
%TO.C,C11*%
X160020000Y-35538500D03*
X160020000Y-37613500D03*
%TD*%
D15*
%TO.C,C4*%
X135255000Y-37359500D03*
X135255000Y-35284500D03*
%TD*%
%TO.C,C21*%
X103108000Y-37298000D03*
X103108000Y-35223000D03*
%TD*%
%TO.C,C14*%
X145034000Y-37359500D03*
X145034000Y-35284500D03*
%TD*%
D17*
%TO.C,C17*%
X110220000Y-35350000D03*
X110220000Y-37425000D03*
%TD*%
D16*
%TO.C,L6*%
X107807000Y-35400500D03*
X107807000Y-37120500D03*
%TD*%
%TO.C,L1*%
X127508000Y-35589000D03*
X127508000Y-37309000D03*
%TD*%
D18*
%TO.C,H2*%
X167640000Y-36927000D03*
%TD*%
%TO.C,H3*%
X89662002Y-36546000D03*
%TD*%
%TO.C,H1*%
X89662002Y-80996000D03*
%TD*%
%TO.C,H4*%
X167640000Y-82042000D03*
%TD*%
D19*
X167894000Y-50546000D03*
X167894000Y-48006000D03*
X167894000Y-45466000D03*
X89712800Y-45669200D03*
X89712800Y-42494200D03*
X89712800Y-48336200D03*
M02*
